<mxfile host="Electron" modified="2023-05-11T21:47:39.449Z" agent="Mozilla/5.0 (Windows NT 10.0; Win64; x64) AppleWebKit/537.36 (KHTML, like Gecko) draw.io/21.2.8 Chrome/112.0.5615.165 Electron/24.2.0 Safari/537.36" etag="kHMpGWLKsidj1mewimgE" version="21.2.8" type="device">
  <diagram name="Page-1" id="Axyi0ZO_WcJgHzGyMsrf">
    <mxGraphModel dx="7783" dy="926" grid="1" gridSize="10" guides="1" tooltips="1" connect="1" arrows="1" fold="1" page="1" pageScale="1" pageWidth="1100" pageHeight="850" math="0" shadow="0">
      <root>
        <mxCell id="0" />
        <mxCell id="1" parent="0" />
        <mxCell id="D8F80IK6GejHwHV3GmlB-4" value="" style="rounded=1;whiteSpace=wrap;html=1;fillColor=#fff2cc;strokeColor=#d6b656;strokeWidth=3;fontSize=9;" parent="1" vertex="1">
          <mxGeometry x="-6500" y="40" width="830" height="320" as="geometry" />
        </mxCell>
        <mxCell id="BPUPT0OHVQ3fbzKF05TD-2" value="" style="rounded=1;whiteSpace=wrap;html=1;fillColor=#ffe6cc;strokeColor=#d79b00;fillStyle=auto;strokeWidth=4;fontSize=9;" parent="1" vertex="1">
          <mxGeometry x="-6400" y="90" width="304" height="250" as="geometry" />
        </mxCell>
        <mxCell id="ZdHZs-xIcd3arrK55Dnx-14" value="&lt;b style=&quot;font-size: 18px;&quot;&gt;MV3&lt;/b&gt;" style="text;html=1;align=center;verticalAlign=middle;resizable=0;points=[];autosize=1;strokeColor=none;fillColor=none;fontSize=18;fontColor=default;fontStyle=0;" parent="1" vertex="1">
          <mxGeometry x="-6382" y="290.36" width="60" height="40" as="geometry" />
        </mxCell>
        <mxCell id="jPhf9QpesXwXawj8Bi22-1" value="" style="rounded=1;whiteSpace=wrap;html=1;fillColor=#ffe6cc;strokeColor=#d79b00;strokeWidth=2;fontSize=9;" parent="1" vertex="1">
          <mxGeometry x="-6400" y="116.78999999999999" width="96" height="170.01" as="geometry" />
        </mxCell>
        <mxCell id="jPhf9QpesXwXawj8Bi22-2" value="&lt;span style=&quot;font-size: 12px;&quot;&gt;&lt;font style=&quot;font-size: 12px;&quot;&gt;brlan0&lt;br style=&quot;font-size: 12px;&quot;&gt;&lt;/font&gt;&lt;/span&gt;" style="text;strokeColor=none;align=center;fillColor=none;html=1;verticalAlign=top;whiteSpace=wrap;rounded=1;fontSize=12;fontStyle=1" parent="1" vertex="1">
          <mxGeometry x="-6393.65" y="113.21000000000001" width="110" height="37.15" as="geometry" />
        </mxCell>
        <mxCell id="jPhf9QpesXwXawj8Bi22-3" value="&lt;b style=&quot;font-size: 9px;&quot;&gt;eth1&lt;/b&gt;" style="rounded=1;whiteSpace=wrap;html=1;fillColor=#ffe6cc;strokeColor=#d79b00;fontSize=9;" parent="1" vertex="1">
          <mxGeometry x="-6400" y="156.43999999999997" width="40" height="30" as="geometry" />
        </mxCell>
        <mxCell id="jPhf9QpesXwXawj8Bi22-4" value="eth0" style="rounded=1;whiteSpace=wrap;html=1;fillColor=#ffe6cc;strokeColor=#d79b00;fontSize=10;fontStyle=1;strokeWidth=2;" parent="1" vertex="1">
          <mxGeometry x="-6136" y="113.21" width="40" height="120" as="geometry" />
        </mxCell>
        <mxCell id="jPhf9QpesXwXawj8Bi22-5" value="&lt;b style=&quot;font-size: 10px;&quot;&gt;erouter0 (1081)&lt;/b&gt;&lt;b style=&quot;font-size: 10px;&quot;&gt;&lt;br&gt;&lt;/b&gt;" style="rounded=1;whiteSpace=wrap;html=1;align=center;fillColor=#ffe6cc;strokeColor=#d79b00;fontSize=10;strokeWidth=2;verticalAlign=top;" parent="1" vertex="1">
          <mxGeometry x="-6236" y="113.21" width="100" height="60" as="geometry" />
        </mxCell>
        <mxCell id="jPhf9QpesXwXawj8Bi22-6" value="&lt;b style=&quot;font-size: 12px;&quot;&gt;&#39;wan&#39;&lt;/b&gt;&lt;br style=&quot;font-size: 12px;&quot;&gt;bridge" style="shape=trapezoid;perimeter=trapezoidPerimeter;whiteSpace=wrap;html=1;fixedSize=1;fontSize=12;fillColor=#f5f5f5;fontColor=#333333;strokeColor=#666666;" parent="1" vertex="1">
          <mxGeometry x="-6090" y="158.21" width="70" height="30" as="geometry" />
        </mxCell>
        <mxCell id="jPhf9QpesXwXawj8Bi22-7" value="" style="rounded=1;whiteSpace=wrap;html=1;fillColor=#d5e8d4;strokeColor=#82b366;strokeWidth=3;fontSize=9;" parent="1" vertex="1">
          <mxGeometry x="-6010" y="260.71" width="110" height="89.29" as="geometry" />
        </mxCell>
        <mxCell id="jPhf9QpesXwXawj8Bi22-11" value="&lt;font style=&quot;font-size: 12px;&quot;&gt;eth0&lt;br style=&quot;font-size: 12px;&quot;&gt;&lt;/font&gt;" style="rounded=1;whiteSpace=wrap;html=1;fillColor=#d5e8d4;strokeColor=#82b366;fontSize=12;fontStyle=1;strokeWidth=2;" parent="1" vertex="1">
          <mxGeometry x="-5930" y="300" width="30" height="30" as="geometry" />
        </mxCell>
        <mxCell id="VWxw-bLilHhJzbKpekQc-1" value="&lt;b style=&quot;font-size: 9px;&quot;&gt;eth2&lt;/b&gt;" style="rounded=1;whiteSpace=wrap;html=1;fillColor=#ffe6cc;strokeColor=#d79b00;fontSize=9;" parent="1" vertex="1">
          <mxGeometry x="-6400" y="186.43999999999997" width="40" height="30" as="geometry" />
        </mxCell>
        <mxCell id="VWxw-bLilHhJzbKpekQc-2" value="&lt;b style=&quot;font-size: 9px;&quot;&gt;eth3&lt;/b&gt;" style="rounded=1;whiteSpace=wrap;html=1;fillColor=#ffe6cc;strokeColor=#d79b00;fontSize=9;" parent="1" vertex="1">
          <mxGeometry x="-6400" y="217.15" width="40" height="30" as="geometry" />
        </mxCell>
        <mxCell id="VWxw-bLilHhJzbKpekQc-3" value="&lt;b style=&quot;font-size: 9px;&quot;&gt;eth4&lt;/b&gt;" style="rounded=1;whiteSpace=wrap;html=1;fillColor=#ffe6cc;strokeColor=#d79b00;fontSize=9;" parent="1" vertex="1">
          <mxGeometry x="-6400" y="247.15" width="40" height="30" as="geometry" />
        </mxCell>
        <mxCell id="VWxw-bLilHhJzbKpekQc-5" value="" style="endArrow=none;html=1;rounded=0;fontSize=9;" parent="1" source="VEIhGE11iWbtG9OPqQKF-5" target="jPhf9QpesXwXawj8Bi22-3" edge="1">
          <mxGeometry width="50" height="50" relative="1" as="geometry">
            <mxPoint x="-6687.98536231884" y="117.38202898550722" as="sourcePoint" />
            <mxPoint x="-5878.71" y="-38.56000000000002" as="targetPoint" />
            <Array as="points" />
          </mxGeometry>
        </mxCell>
        <mxCell id="VWxw-bLilHhJzbKpekQc-7" value="" style="endArrow=none;html=1;rounded=0;fontSize=9;" parent="1" source="jPhf9QpesXwXawj8Bi22-6" target="jPhf9QpesXwXawj8Bi22-4" edge="1">
          <mxGeometry width="50" height="50" relative="1" as="geometry">
            <mxPoint x="-5984.96" y="190.01" as="sourcePoint" />
            <mxPoint x="-6623.094615384615" y="405.01" as="targetPoint" />
          </mxGeometry>
        </mxCell>
        <mxCell id="VEIhGE11iWbtG9OPqQKF-1" value="" style="rounded=1;whiteSpace=wrap;html=1;fillColor=#dae8fc;strokeColor=#6c8ebf;strokeWidth=3;fontSize=9;" parent="1" vertex="1">
          <mxGeometry x="-6010" y="87.15" width="310" height="160" as="geometry" />
        </mxCell>
        <mxCell id="VEIhGE11iWbtG9OPqQKF-2" value="eth1" style="rounded=1;whiteSpace=wrap;html=1;fillColor=#dae8fc;strokeColor=#6c8ebf;fontSize=10;fontStyle=1;strokeWidth=2;" parent="1" vertex="1">
          <mxGeometry x="-6010" y="107.15" width="40" height="120" as="geometry" />
        </mxCell>
        <mxCell id="VEIhGE11iWbtG9OPqQKF-5" value="&lt;b style=&quot;font-size: 12px;&quot;&gt;&#39;lan&#39;&lt;br style=&quot;font-size: 12px;&quot;&gt;&lt;/b&gt;bridge" style="shape=trapezoid;perimeter=trapezoidPerimeter;whiteSpace=wrap;html=1;fixedSize=1;fontSize=12;fillColor=#f5f5f5;fontColor=#333333;strokeColor=#666666;" parent="1" vertex="1">
          <mxGeometry x="-6490" y="154.75" width="67.29" height="33.38" as="geometry" />
        </mxCell>
        <mxCell id="VEIhGE11iWbtG9OPqQKF-6" value="" style="endArrow=none;html=1;rounded=0;fontSize=9;" parent="1" source="jPhf9QpesXwXawj8Bi22-6" target="VEIhGE11iWbtG9OPqQKF-2" edge="1">
          <mxGeometry width="50" height="50" relative="1" as="geometry">
            <mxPoint x="-5954.201941054135" y="319.6464172426108" as="sourcePoint" />
            <mxPoint x="-6330" y="548.85" as="targetPoint" />
          </mxGeometry>
        </mxCell>
        <mxCell id="VEIhGE11iWbtG9OPqQKF-7" value="&lt;b style=&quot;font-size: 18px;&quot;&gt;BNG&lt;/b&gt;" style="text;html=1;align=center;verticalAlign=middle;resizable=0;points=[];autosize=1;strokeColor=none;fillColor=none;fontSize=18;fontColor=default;fontStyle=0;" parent="1" vertex="1">
          <mxGeometry x="-5834.07" y="87.15" width="60" height="40" as="geometry" />
        </mxCell>
        <mxCell id="VEIhGE11iWbtG9OPqQKF-8" value="&lt;b style=&quot;font-size: 18px;&quot;&gt;ACS&lt;/b&gt;" style="text;html=1;align=center;verticalAlign=middle;resizable=0;points=[];autosize=1;strokeColor=none;fillColor=#d5e8d4;fontSize=18;fontStyle=0;" parent="1" vertex="1">
          <mxGeometry x="-6000" y="268.21000000000004" width="60" height="40" as="geometry" />
        </mxCell>
        <mxCell id="mIAgexFHFYWs2OW3OZyE-1" value="&lt;font style=&quot;font-size: 10px;&quot;&gt;&lt;font style=&quot;font-size: 10px;&quot;&gt;lxdbr1&lt;/font&gt;&lt;/font&gt;" style="shape=trapezoid;perimeter=trapezoidPerimeter;whiteSpace=wrap;html=1;fixedSize=1;fontSize=10;fontStyle=1;fillColor=#f5f5f5;fontColor=#333333;strokeColor=#666666;" parent="1" vertex="1">
          <mxGeometry x="-5885" y="300" width="60" height="30" as="geometry" />
        </mxCell>
        <mxCell id="mIAgexFHFYWs2OW3OZyE-3" value="" style="endArrow=none;html=1;rounded=0;fontSize=9;" parent="1" source="mIAgexFHFYWs2OW3OZyE-1" target="mIAgexFHFYWs2OW3OZyE-2" edge="1">
          <mxGeometry width="50" height="50" relative="1" as="geometry">
            <mxPoint x="-5962.71" y="280.35" as="sourcePoint" />
            <mxPoint x="-5824.993576248314" y="217.14999999999995" as="targetPoint" />
          </mxGeometry>
        </mxCell>
        <mxCell id="mIAgexFHFYWs2OW3OZyE-2" value="eth0" style="rounded=1;whiteSpace=wrap;html=1;fillColor=#dae8fc;strokeColor=#6c8ebf;fontSize=12;fontStyle=1;strokeWidth=2;" parent="1" vertex="1">
          <mxGeometry x="-5840" y="220" width="40" height="27.15" as="geometry" />
        </mxCell>
        <mxCell id="mIAgexFHFYWs2OW3OZyE-4" value="" style="endArrow=none;html=1;rounded=0;fontSize=9;" parent="1" source="jPhf9QpesXwXawj8Bi22-11" target="mIAgexFHFYWs2OW3OZyE-1" edge="1">
          <mxGeometry width="50" height="50" relative="1" as="geometry">
            <mxPoint x="-5946.91" y="3.709999999999999" as="sourcePoint" />
            <mxPoint x="-5870" y="330.71000000000004" as="targetPoint" />
          </mxGeometry>
        </mxCell>
        <mxCell id="TkQ-gT52N2ZANkxyGBpz-5" value="eth1.881 (mg0)" style="rounded=1;whiteSpace=wrap;html=1;fillColor=#dae8fc;strokeColor=#6c8ebf;fontSize=10;fontStyle=1;strokeWidth=2;verticalAlign=top;" parent="1" vertex="1">
          <mxGeometry x="-5970" y="167.15" width="120" height="60" as="geometry" />
        </mxCell>
        <mxCell id="TkQ-gT52N2ZANkxyGBpz-6" value="eth1.1081 (erouter0)" style="rounded=1;whiteSpace=wrap;html=1;fillColor=#dae8fc;strokeColor=#6c8ebf;fontSize=10;fontStyle=1;strokeWidth=2;verticalAlign=top;" parent="1" vertex="1">
          <mxGeometry x="-5970" y="107.15" width="120" height="60" as="geometry" />
        </mxCell>
        <mxCell id="TkQ-gT52N2ZANkxyGBpz-7" value="&lt;b style=&quot;font-size: 10px;&quot;&gt;mg0 (881)&lt;/b&gt;&lt;span style=&quot;font-size: 10px;&quot;&gt;&lt;br style=&quot;font-size: 10px;&quot;&gt;&lt;/span&gt;" style="rounded=1;whiteSpace=wrap;html=1;align=center;fillColor=#ffe6cc;strokeColor=#d79b00;fontSize=10;strokeWidth=2;verticalAlign=top;" parent="1" vertex="1">
          <mxGeometry x="-6236" y="173.21" width="100" height="60" as="geometry" />
        </mxCell>
        <mxCell id="9MWK7dJc7GmQ7OKOMlYW-17" value="" style="shape=image;aspect=fixed;image=data:image/png,iVBORw0KGgoAAAANSUhEUgAAAwAAAACXCAYAAACiCjzoAAAgAElEQVR4nOy9e/AtV1Xv+xm/86t9U7v2TaVSOakUl6I43PXjYBSMqIhAeAgoiOkfiiiKDx4+eAiIyEFRpDDiO+pReakIKgqIEn8tCCoIEsCIiMrhdfNbh5PCnFQqN5Wbm8rdd9eu3D3uH/0aPXvOXt1rdfda67fmN1n7N3r0mN855uzRs+ec3T1bSOcfAi4FQBVE6AwFfOY+fch2KET+yF+3fwyHs7vGcqeGdP5U4OWT5BUxJc4D9+byvcA50POZXs6C3gPcA/J/g94NchdwJ3AHqncgcjfoWZKDC2vyf71I588B/mun60QXuUvayD89f3We3AOcy//eA9wFWpwT/yfIbcBtwK3537tIZveyi0jn9wE+D+wB6zq+XyCZfe2SJYg4mp9G+GOUJwx+fo0GvQnkaSSzmwH2gSuBy4G88194pHkCn5z/lcB+n17a+JaRHZR5ErDxjUh8/IH0g/OPXT87zi/sMx2uAB7R/4yP8omVRS6AngO5m3R+K/Al4GbgfwDzvCG+GdV7OTzghOIUcCY7dz11JT3lLmkj//T8lf7y9vMCq78XuIv0+GZgDvJ54HOofhqRLwL3ksw4wdgDzlAMANZyfPX0kAXaKaTzy0CPQB4x3PlVpCfXLZItOtl8FOVpHM5uLzT7fkP3ZPXIZV6+9G0cq9gsgluZXXhcfVt+Y/MvQFv2QyDyr5i564Q6qhYbr+xrGCL/lvDvAafzi+wVwENp4izCTRwdfxrhn0FuBD5DMjvrsd1CdLiO1OrQI/flifzbwr8PXJb/vqa0y86ju1D+lfT4RlRuAG7kcHYnJw5aF9d2fCN6IZ0/APR9wAPrbT5hufPxbeHw2TauPW6epfJPQJ/L4cE5m3x/6R6TSLPskv/jXjtdZ1XC+wnYLEprbVwfQv540WI4OH9HueC3j2fV6mEJzpPOPyU0z1tzR4oYKVDGST4yL86dwl+l0kOTJ/KfVP7TIFcBVwHflz+CeTfp/BOovg+R95Pdpt/OR4hsHdR0Htsup26XdjbynwT+SxAeCzwW4SeAc6TzT6L6l4j8BapzDk/CY3WeNqQNY9d/xGKk868BjkDu492/av3X+sAd5GLb5a90F1D9RYRX+R5F3fcOPhbBOhFCF97awKEnR9d9bke9yC8kT8Hfxt1Wt4t4uhyXneFfJrCXhPd4e0aIxb5y4Oycua7Llify7wY/XIzyBOAJKNcBnyOd/xnwxyg3cbhFj0WINMsM/a4NJdcKaSP/tvNfBDwK5FEov4TIp0jnfwy8jaR6nGHr0Kd/M3b9RyxGevwklHcCF7faLRv/fY+Jex0qtquJpvMIz+fw4PdDFPvmebDm32DHuKWHq7lczJiJo7fcYvQqILneyr5ZueJl5YK/nHlrq62cs+Gzs6mOcix+8dRbUVeh5919epenVm87zK+tB2t42I5hOetpT04je3ZnsukM1mRjE/l3jf9K0J8BeSXCR0nnvwWkW/HypJb/OPVgrxNW78i1tjLf4aa1TUHk3w1+5KGoPhS4lvT43Si/jsintu6dAfsYyDrqP6Ib0jnAs0DfhHBqtPiXfKfmG2LkUB9JfYQAehciTwc+0Fa0vcorz18pnDO/0tmOMgHZtZEiT0cuYeRaWpp+Njhs2VwfpG4nJv2Y/N4yeXhqZ6pjLwH7yD8taif7opj1766lbcgem8i/W/zZgg2PBf1z4LMcHT+HdH6KjYYG2kGotaEE5NKGKk2Z1vBF/l3lPw3yPYj8E8r7OJp/DVsFWy6a8tj1H7EY6RxUXwm8GSRrb8eKf6hzNPgW6Cv5i4hcTTL7wKJB8X5tlqYg0dpIopnK2oRkpEpr9RrQ901bg0/Xpu+LMfjdsnjKXqsHnJH/Avtd55+yfQuFZae46WrjK1Dk31H+ByLyZlRfRnr8cpC/2sjZz8a1xIdV6rALIv8O8O8BTwJ5Aun8HcArSGa3rkA6DVrPjSnrP8KLdH4K1V8HXrC4HQthyfgPdotC/WSKuwI3gn4rycFtXbzba2TepaDWJiTTU9837bZDQnKovB0Cyabdef4JY0VtfhrIO6RvsxFnX+SP/MWmAlyJ8l5U30U6v2JB5luALnUY+SN/kH8f1e9B9bOkxz9AOt8bMbMRsO31f4KQzk+j+k7gBcOR9qj/YDcn1E8GRN4N+sSunX+A/eq2wpBQBp+CHYFy7bB1X5ND9oG0XWx2jX/qYJFyCL7AsG8gu53EyB/5GzbfDjyao+NnI/wVyaZ8V0DD53lExHi4BPhd4BrS+XNJZnes26EGsg7bur2I8CGdXwYcIfKIdbvSEReA30D15X1Xx8o+ltS4pdDWmdEFjwA5tq0XtJ4Xyy6Dp9DjGG1PlyxKOzi/BhIUdeEjcuupzSbyT/sIkBv30PQ39IiHz2aVtJF/N/m5HOQIuJZ0/rOb8UiQPS+WncHxpeuqi/w7zp8A/0g6PySZfWYJ58ZDl74GMG79dHJgt5DO7w/6PlQelCmmjv9Qvzq3E1z9vSAvQXj9Mh+U3CuJCifE+YvxT9wNj+zauGbW3L4EYeugYefsc/UhfpfXwue+enSj8Bf1IqYOTP1ZffmyiVtu8fNE/vAxGRONePCVx7UhYOOxj/yRP8RfcewDrwHeTDqf8kvYftixuT2/feeqT7bp8Ohq+sgf+X38PAC4gXT+WDYR66yfUhEBFGv8fwzkQeuLfyH8gi91vXI3cIjw+mUnfPJn5DTPXCuZfNvKjb+FbPRolc61UcNnR5++57rdL9XJgrSNWPb57tppfdu1n4LfltfWYZf6ifZh+ynhLvlVOx9c2doQsPHYR/7IH+Iv2tYCqs9BN2EQULR/C85J679bFmvjcpf6yB/5W/kvAX0v6fwJ7UQTQvGfv1PWT/wacIZ0DunxNwIfBO6z/vj39XOcPg/cgvA4Dg9WWgBiv3KmcFAcB32dMVft0ddstGnb4PfZFGeJxyYkh/It11RtswnoR+F38wjpOtR/p7SRf1Q0Ytb4A/X4CNl0liN/5PfY1Nvt7wO5h/T4Rb4vQE6C2rWkwwkZXBQimCAgR/7I37A/DXo9R/Mncji7sUPm48LXEdy4+t8ZPAvlTaDVssprr//Wa8WnEDkkmd2yONN2mEeAoNZzsio8cg3BHflMlYekMVvew6bg9D2uhKNf9KJN1/VVB+dvFquRV5e675t2V/gXHJZBUYtx65853mqC2d7Ow9VLB33kj/w07V0oLwAZcBWLgbCozWwm6Hc+R/7I7+c/A3p99pz3mmHH8Asxdv3sKNLjPdL5T6C8GWj5pspU8Sk1VVMWEHkPwuOG6PyDXQWo1kl1MhYoI7b2SIx4ZKEaRDgXs2pjsb6TjdnnVrov7xaaoK+j8Nu/vrQhX/ra7DD/OhDKP+qjflR90eYWilrv4jrS+SdJ1jHrqeGLYUMf9L9IsOJFOPJHfgCuAN5JOn8MyexcjxyHRdkH8Pm8jvrZMRwd7wO/DvxIvR2FzYh/Zzvrd78eeAnJwWBfge+xTq7U/6pUdyYUR5ZKtvDdDQ7ZLLLbZqipy7JcQiMo3HotbEL1XnJG/kkRiveajfnbWv6OcuSP/DXZnBtaO09OAW8hnZ9uYR8HXdr7Uh/035+2bx1G/shfpX0Yqq8hnQfIJoDtJ9Eiu2n6yLW0Hv6T1Kfqg/T4NCLvBPmRUrcJ8Vnss8cn47sX5KXAi0hmg3X+ofwSsEExmdSGLiMh2/j7OAt9yMbd7/K6/qhHDqGvzRj83jLZQjv7S858w5d+YVDuEP+UsMfbe9zF2NjG15HV2HvlyB/5Q/y08TwI4VXAT/rYR4NIF9/8+r42kT/y97KRHwWuB9b7PsBQZVwm7cSXyY3A0fFlINejPKqxbxPis4l7UP1+Dg/e3TlFD+xlk6amlS4DI9c1gsS26C2yOPoij6KTFlrRxdrU3lY3NrUVgYzOumfzEOfXSKce3Yj8Rf0UK9s06ttyO3UoBOrWqfOd518jxPwt/LVxg9GL0dfqxmcT+SN/S1o39uvnyo9yNH8gU0Lxl9eVC7T5H6q3yB/5l+M/BbyOozV9LXgT6sfZfeJxNL8/In+P8qiNqH8vv+nPoLchPH6szj/AXrPzpJTLdZYdM/tbwOi9mOUXMLuUo5b/UCpsPo20xkYd+1oZHD+L8uD83HzcvMfkbwSHrddcLsts9K69DahQUO4q/9SNW1ketwEw55I9xwobDTQwDZvIH/nb+H1tT+28uQjW8diD9dm0o41yLfS/mdatn8gf+fvxPxTR72FdWHf9lH2dHUA6fyiiN6B65cbGZ61PpJ8BHkky+8RodQLsV88jFc7nvasyNgSzUakKuDGknr81TstnZPXo29J6n6PSAL/kKqu39m5aH/eQ/IRlWw+2bn3100DkL+1Dh3AsBNtSN6Y8hhqqj8gf+bvwu7bBdN8O+hrgC+3ODIRasdva7rZz3il3sB2J/JF/GX5ezdH8TzlcwwvBbt9rLfWzAziaPwHlz4GLgQ2Oz1wn8jeofieHB3d1LuOS2K86SsaRxhvMnt6UBApfK4+r9/G4G9rcEUobJBOPbhGHL+1Y/KGACHEuOoG72u8S/4RQe850iYcu8dNXjvy7zd/pnNkHXgI8P0A8MNxrSVt5+p7zi+TIH/k78TwA+A7gDwPk40GssO76OaFI598D/C5w0VbEp8rvAS/k8OB8gGxQeJ5/6xMUvsJL9hOfnrpNQw7lH0q7KsY+Afp2ELrwrNIB2TX+iIhdQedz4LtJ55eM7EyGXmPxsc/hyB/5g3gZ6fGAvnRA49zY6PrZPqTHexwd/xfgj4CLFidYe/3fi/JTCD9IMpuk8w/ZjFAGezciBIXs2SWhekG3GLmoX66lN5m4u90TIrg/wB3K1/XT9cVH1eb/kPw2bScZyvL3Trtj/JOiyJvqeIfi2dcpEo++L0/k323+7rgYeCrw1l6plkHrWthjIPJH/qVoH4LIw5lyRSAh3M9YGj3rZw03yydBOt9HuQ7hxfUdGxuf54Bnczh7x7D+LEZ+B0CN3+r8NfraIEbqabpO7ArUXpjw7Wuk10ofPGHsyWT4Q2mK/Er7QFnG5Lc2neRV0u4Y/9SNW+14m+1Ferccy/JE/t3m74fvWs8a6Ms5G/kj/6j8Ge2zxyFvy3fo8vTkG/twrQPZ907eTqPzD5sZn3o78HiS6Tv/4PsOgAsh70yJo1Nnv6OHaoedqW1w+56NctPS1HsruxiBufu0zlNmFbIPYWz+iMEw5QoHorR+3CMiYm3wzUrpYxG5BBj5JbPivFhl5q1L2sgf+Vfl56mk85dM93VgbfarQnaj1c8JuwVwNL8UuB7l0fUdGxqfwhdADklmNy3h2CDY9/Vl64/5SF42d8bedNhrgwCzYetFqDpJZZ6e2fZGXWrF36hj0+NWJ+8alzTzKlcXCvlgyzsGf939oNxmb3m1g/2u8U8GaR7jiIhJYdtCc7ey0ZYByCnQbwT+dFyfxJO3236Ko+/kP+ETPPJH/mX45XJUHwH8XSDjgeH2GdZRPyfoonV0fH/Q9wJXNvppNWxIfCIfRvXpHB7c0VKq0WFeAs4dbHTOtdpnxNYKcDtodl+t7qSxu4mQjRp/tL6z0LuV7/O/mLn35T0Wvx0ULZLBf566Op/9LvNHROwk1HM+mItZ0QArj5/Cldrf8trQdsJ29t/RR/7Ivyq/PKWFeFj4JgYLZyarn1AfbsuQHl+FcANw5VbEJ/I24Mnr7vwD7IO+EeRM+UEZ8g6r4IyEcqUYOdtRyeqRxdgUsnjSBvUE0jZNvDIB+5qJs0Ocv0Pzlye/Q2r1PhvfknrFQGRR2l3jFznLVPDOqEwuvwfVdzVexPe9MO2ex7Vz2tjYQWytnDvBfwr0FMg+2SoS/yvKGUQvBrkU5FKUKxAuA7mEcjJlrTGQl81s2uVpBSs/mnQOyYzRIOb4+H2wxpXYzf8ecuSP/B14hCcwFdqWWp+sflwfthDp/AnAu4BL1h4/i/kvoPw8oq8mObjQsYSjYp/k4NXrdiIiYqtRnuiBgfE08mc4PJh+LetdRjonHyRcDDpD5SsQvg70sSAPAN2bLgYMul3XHwBcDtzeyXopLNnBGLZf8lHgydWmZxBYzXhVExLF/tIfY9e64t3O8F8EnEY5A3oZ2UD4vqD/O8gDgYfkA+TmUuNj9zuX57+SdH4ZyWz8mdnAqQst+qFwAvr92bKtYtb4HxDj1M954AcR/pDkYJQMlsH+YpOIiIh2iJk9xlxrc507OY25MGsPuY3/pNzO3SZks+fngTvy343A75Ee76F8BfC9CM9B9dKVj++i+MG1EcfOqDOKUwgPAT7Qu9xdUZTBHbMA5aORxX7Xz8X+V53TNn64wOHsnsHKFFGgvU7T+R7C/YBHgV6D8iSEiwc/vsPGzz7Iw4H3LCj76ijOXde3KetnWwcC6RyUHwf9JWBvg+LHzw93gjydZDbR+yXdEQcAERGDIG8Mmrf9aDQkbY+khOSik9/GH7EZyG7vfhp4Oen8tYi8GtUfQSRrb5c9vq3xg2OTb3gvXAW/jjsAkFpmgVlP8XeCOvkPC/m3tZOz7UhmF4Cb89/bODq+GOR7EF6G8oDBju/Q8YN+HVMMANTkPWb8t9XPNl420vk+6HWIvHgj46fJ/0XgKSSzLywo2Vrg+RJwREREPyhlS6FmRmFIeRF/xGYimd1FMnspIk9B9e6lj2+rnKdfJNvtjODBYxU7gzTz9PmyrP9turKM8QTZCBwe3E0yez3w5cBPgp4d5PgOHT/w0EnqQxjH/z71s22D43R+Eegfo7x4kvpZnf/jwCM3tfMPcQAQETEA3JZUF8vS12YB/7Y15ruGZPY3wFOA6uX0PsfXlYf5zsWIbwBHRHiQzM5xOPtFVL4OWNv65y14COl8/H7RJoxLdROc6Ih0finoX6N8x7pd6QSRP0XkiSSz29btShviACAiYlUUj2II+d8OMgPZFHIcAWw+Dg8+Crx0qeO7MDaW+CEPGLfAGijDGL8AfzwvNhOHs88g8hhEPrPS8R0+fu4DXDpJHQxapiW5tgFH8/sBfw/y6MnrZxl++GXQZ5LMpluJcEnEAUBExMrwNKShSdwu6JJ2Ff6I9UH4HZQby+31Ht8rOJqfGo29dl6M3dnYks5MRIVkdhuqTwZuXWw8WfzsMcWdManlORThyUM6vwrhY8BXrEY0SfycR/lhhFeQHNw7coaDIA4AIiJWha9tWaXv0yWta7NNt3N3GckMRF5bbnc9vkOgGSJ7CPcZiH1ZH4ZNG0+D7cLhwS3Ac8nWSF+MKeJHp3g0bomC7Fr8p/NvAD4E3LeT/Xrj527gkMPZ72zSMp+LEAcAERGrQrv+tGpEOqfpaH9SZ4BOJv4G5Uu9ju/C+FFH1qYe1wZQLh+tlA2fjA/lfo+f/fxfzB+x2Uhm70d599LHd+j4yb6RMTJkuvhv499EHB1DOv9ulPeiesla66cTv34J5WqS2funqJ4hEQcAERGrQjD9b61kq3dv+frsbYvs9ucX8W9sax7RQDI7D1q/WAwRPzV7oXxRWJTqq7wN+/EGAKU/avwp/qpjs7T/i/kjNh/CtYhcWOr4Dh8//2m8guYomusp4j/Ev4nXjHQO8OOgfwB60Vrrpxv/JxF5JIezTw9XCdMhDgAiIlaGnU0RZ4ahMrHmje0ibUPn2gf4Y09nuyDyoVLucnwXxo+ZUSzTirHPL/g2bWZ7yQClCcAti/XB+raC/4v443mxHVA+Dfrh3sd3nPjp9sjJKijCcuz4b+PftHMjne+j/DrwK2jxzRTWVz+L+CEFfRzJ7JYBa2FS7P9/73vkmSoYlEzKCyuCquaTT3kFFbr8DXIrl6uhOLLm/OWgszTJalI8nCH7mi9Z6pbiqUfnkHayH5i/ZiJ185qsHr3DW+rzgHW/Hrqz/HrPf3jyx5kGoRhpiZ0yBkwnKWhDwMbyh0giNhKqnyyPfafj69lVix91drbxmLZTubi706vAFtKVrU9WF9r2tf0h/oitwOEMjuZvB/2Gfsd3lPi5oo/rq2Hs+G/j36BzJJ1fhOofAN8xbfuwNP9vAi/blpd9Q9gH/jsi+W1gMUXNpLJzn200dL79NVlzm2LkZOpbTOfHy+lcHOv6to55vQyr60fgd2MTmuMGCdgXqNlLvQMc+f8jcIcn1+FRDnZ9TrfIYsu6gg1iBsQRWwHhS8BZRE7n2wwXP/WM/HIO1dOd/F0GjUF5my9L+l/Td7GN2FgI7we5QOPJhMnjZ7zH4mrZ9vGti03f+tmQc+To+FLgzxF5bKWcun3ozH8vyssQfpNk+z+jsgfZvH/1HwtlHJmaTM0GydOKkR19MK9A2kJPLfciTzx+4DLXPK/swZZuLP7K0pGr8VAgXd0zFdfHurzb/Oto3HR98ras6RyRQ84DtwwXA0tjvAFADMmIfrgF+OK6nQDOkB6PuDxuRImj4/vlj0M+dt2udMA9wNNOSucf8gFANndZ/Kf530pft/Gh2FO/OIXGXb7t0A/nb/Wr37KpOJsddSlt3FK5UFOKupdD8ldlU6+shkHzsjZt1LERkzbyD9Q56obawe7YQVOfTUDWvjYRG49kBmj2lcgux9dFLX6U8lP0royrp24j8r+sWpR29PFtCf8Xpo3YGmSdqk/0O76jxM8pkBHfjcmzmyT+22zWjHT+EISPofqQ9bUPHW1UbwUeRzJLT0rnH4pbbabesscJoJxuVZDa1Gve3VXJ9EW6Im2+L+Op0mUcUnFobu1yd7Kp/Mi43bzzTmTDxidLQxbEYz8cv63DupwVrfaSurbbY+y1g/2u8E87/ZgPS8rjbhtXe3IVNpo5rm5aaSYv1Yv4pyxvxCBQ7gQ6Ht+2+KF++EOhUORjbVTHm+lUJy9XJqDv4/+itHFgvG34b0D349vbplP87KMj3hnzYaz4b7VZ47lxdPwNoB8C7rvW9qGLjcq/IvL1JLNPBlJvLfbVjprMnwaE+rWIPnKANDjz1cVGl/Bjw+QAvP2AhcZLJNkF/qlgz43aS+oFzAlU2JSzDUVaNR0zS+rk4+OP/f8thJxtHMdV4scx66YfMXC85ViUhn7+R5w03LTScR4sfvTMCl4sRu/zNKAfKt8pkc6/A9U/QLmod9qp60fk/QjfRTK7awD2jcN+7cEL77WguOg4M021FX8KvZqLE2YGSEznxtRwSF/IhV5b9I0LmOND5VxN7KYfmd9FsdasPR5q9LVkTv1j0oYu6rvGPxWKOClW0yqzrvXmqfmOz0bqdSFUnFYO8kdsFYRz5Sx+p+PbFj+Oacjc6hsJhobJ3G3e7W51kkA9Tav/Hp2naY7YFujN3pXRpo4fZdwBQO28d/WOT6vGfxv/lEiPAX4M+BWQ+ove62wfQvzoG0FftO0r/bRhDyHc4QKyGpLyT6WWukkhuCsBlStVGIIh9T5/Q2/XCz31Y/ObTTH7RPz6Go3L46mTXeafsnVzw0E6yF3s+/DHQcD2Yqj4cfcVaL3oj3ie2IuzK4dc6Ot/F/6ILYLcWt/M/04dP7LE7HQfiHFs7PgP8U95nqTzPZDrULkOu8rTJrQPzfb0AsIrEHnhSe78A+xn9aLYGX7NZzQlV1f1o/lkp+Q2IEhjPf+MRijXY7G3ghfM+hf8Vq9oPsnr8NhZ01pg21nkaqd98bQREWVBLedI/LZSnUltZ9NLVcilmFeJW4Rd558MRZ5d8l3UmHVN6/MhYruwzGNcbQPDZeWxUFumtIc/21TGiGGheg8iZxHzDP46YkYZeRWglnN/sjJOdNE4Or4IeAvwjDLvTWgT/PJZVL+fw4M/Ywewn3X+wb65WnRnkawbb7XFvqr/bWRXD+GOiXv7JZfFY1PTmbxKI7ehb2SslTp0v0ccvfjkAfld0yIrWw9CkK5m0+7WTvJP++6fO6LxwDdy6TtYabWPvZ2tg/uM/LLxU/51GsyybS3aeKlsaMlrKNhzMOinmRBZxn9dxB+xVRDOA2dRTnc7vqPFz7h3AKyTo8Z/C/8US0enx5eCvAvVbxjc/+Hr5zZEnsbhwVRfEF079t13gDPYC5On91vrdKmTxnSGCkELHnXSurL0tLf+uUfayr5A72LvygPyq7HRKg/RYsgVuuJD0z/LE/nBDlyngGlErGsFGiGglI8xFbauTY2nA3/E9qG8EzpA/PiaoUVN29iwd1BDPrjlqKVnsf9dm++I7YDKeUTPLezEwbjxo+p8jGxg2P7LqPHfwj/2LFk6vx/wl6APGcX/IesHPgdcQzLbhO9QTIa9sjJqf7UuS/HDyFZHeD84cpW52Dx9+Vob18f8J8WakFLY2qAuOAobDduXZXU5R+Jv1F22XXz0TKjs8XEWd14sv0T+in/CK79tpIqyNGzyv0Wj4+oL2RfvdOCfdMATMSyGiJ+y5+Jc2M0VT4xcZjZm3Hjy8vpQyMv435U/YitwOAPkXP/jO0b8jI0p49/DP+Y1Mp1/BXBDtsb/SP7X9Cvx/x1wNYcHO9X5h2y923zAW1Su2VtUdKAdlfCuup2a9wFsFmXezvVPzWFVy5NvapZ7wVpwWJ/sh8nU5GPzrpVBbX75DLLxY0h+xXrvR1XOOo86cj1BJe48v4TTjoPiAFeb9RlQrQYK3oatjVqbg4MGf8TWotPxbYsfMM9hGrmD/eixo3Xfaj4EbPr478oufzw3thB6b+fjW2wPHT9TTCBNEf+t/CPhaP5Y0D8HuXRc/wepn7eCPp/k4FyfIp4U7Bcv3Gb1KCzqi7hYZK5FJ12l7JSVLw5LzlC8UFwMFKSyl8KeelqRYsvNz8gqZnLWdLTMS7y1VRZr5RJv+YbgF/MCdcXVrc0R568XkZ/JHwFyI8hdDauGPieZPSfb+GNPZ+vQeEl21fgRj9wWa/3b+36wg9sFfjRs+qRrsZugHxcxNNrioa/9ivEzKlwfx/K/b30uiWyZz+8A/oDyHYqx/V+a/wLwGuDnSA4utJCcaOxnf9wL0fxUQRYAACAASURBVHAQw207dCIeWVrsA2mr/fW/mZ3HD2dH6GmMUfl9/vfo3C42jPzTNuiS9908I0nHrPk9DbOz1HmCZhH/lI88RQwD91sqy8ZP6NCXMw4BvW/foJD2vEL+LdrfVj+uXTwtthPeNi5gM0b8TLGKxBTx34V/MMiPAr9C0a+cyv/+/OeAHwTeRjILGO8G8gFAcavZvV3rke0b2eXFy07P2lY3v8XsW77Tpw8tFRqS3fy8/ht949m3DmnH4C/rMFzNXhdcG7cT2ZVzF/invgNgVyBYdH749OpUiGsjtPPHGwDbia7Hd2H84D+f3G2f3Vhwb3/a81Son7Or+N/GH7F9CF0vJo2fkYPH+l74Mkb8t9XPUEiP91F+AeXHg9fnMfxfhh+9A5Gnkcw+slRZTxj2gfz5f6g6qzb4m3L2LL6Y5/kluy6R6zF6yPeZhzI0oHfycvmLjr99j6CRXnOt7Y8juWwulk7ahs3Y/O7J75Hd9yUaNu6J3IFzV/h9d4lGh5g49T3C4V5YlpFD/NOuexoxDPY6H19ojx8X7U14JY8ZN119GCJtSI6nxfbB6Y50ln0cy8pjt6duJ9bFUPHfhX8VpPNToG8B+e5RfB62fuYg15DMvhBg3TnkLwFnV53iQ1bZXyhqzX7gSlFUik54lq58Qj/XU+rztKaDUmmp6VHDY+TCRr1pQ4M/xS4dWXlZ2RZ663/tmXPDOTy/1jtttoyOvqzPonNQOpN7Yxsryd+PMJy7yt/2AvHgKINFTWfNI1sb925Ra1qyDBbxR2wbTvc6vqH48S3W0DX8hfG+dFleC/rYe+RVEM+L7cOyne8x4mcsFOdyl0mvoTA0fzq/FPRdwDfUOmND8btYhV/ko6g+jcOD24d0aduxXy25o2VnqmoztexbFTVedoCl3tG1eqxeXZt6R7qURc21UA2VzZeADzRsQJ0Vn0y5an3PellKLmMzNH+mUmOa2zQumGpGIdp0xl2aKD92kd8OtiZAbQa+Q4veWMbMyuKxt9tTXjEiRoXIxVUnYIX4qc9O9JTl/12lCK2oPe65jG8DyPG82D6sFM9DySNfP4qwXGsZV8DR/L6o/iXCVaVu3WUJyvIO0OdyeHC2XyFPPvadXhPgxEdLoNiJKbfyy85w/rfxwqzk54DVOx1E97WBciPQpjfiOtR7t+UMlc+jH4o/eBff1lmX61Yg/8g/MWrvhhQB30EO2tPTXjerPiK64rJ6Z2PI+KGbrIy8/J1zgSiX5/XJS/hfyiH+kTtyEeOg3mFg+viZoEG1nazR4n8B/zJI518B+l7gfmv3v12+APwiwqt2eaWfNmQvATsNZdf48HbOuhB0jMO+/DaO6CC32k/B31YBfeqzC8eO8euUz8THPkZEX6TzPeCK4QiXDEJholkxcf62yWPwR2wPfMdtHfEzImoD/yHyHbt+yJb5VB4N/DnIZf78l8Xg/p8HXgj83q6v9NOG/CVgqH19y9t3cj681ScXm8C+D5A/8920qeS6TZW2aZf9Le76iph3Gsr3D4DiWwPl9Lwze6omm5H4vcUNvsiZWwbqJ9u07200D+Mu8k/7ErANDhrla6IIsg606rHvfQJGbCBOA/dZ7vj2jZ9Wm7u6OLs0VvFxiDiPY4DtRNfjPlb8jB03Xc71oeJ/uGvFt4P8EcpFnfjH9j+87y7g6RzOPrBi7ice+1BdS7JOLZQdKqfTn20XKF4Yrk9wQ/UCcfM1WHPMnAFf9RKteyuoSlQ73pK/EizOuSo2D6nZUtqbUkjt1dwybdnhH4Pfe1cgE7JjoXUOrcpa1oPUX8wuHNUa5w7zb8qqOGVA5du14Hf1HntwN/z8EduGBwF7mdjh+LbFT+j4N/S1Fq74e2cPn/tBfUHtBHdb7HbyfwF/xBaix/Hd9vgZ2/82/q7FTOegvBi4DnR/0vrvz38zwjUks8+0pIzIsW9nVbMVe8qN4h/bTSu3s/GB1vrpxb7sEGqjs5/144qvDmf/WJvaHQat8i3DQSt7sbPuNMKmkj1jCQL7fDZj8tfS5fWhruyzN3VT+WXTRv5J7wC4wWFPFFdX6O22Hayo0ZUDTE9+rj6udrJteFgpdTm+bfFTbNhVg7IGtR5HZeNai6vxVsVw/fcNZgofYVn/2/kjthfrjJ9JJpBy38aM/7b66VLGdL6H6i8A/6XekevAP7b/DX75BOi3khzcurhgEQD7pgtO1gUvxWoQUB60vGtfiJ4l6YqZV8tr+mXNgFdrk6UpZC1PkMKPStZa9OT8eZZZPrmgblTZBK4fRdn89sPz2yu9eww0r88GaaNOmv3HyD9NA164ZI5/qPPh6muduEaPDm88tfHH3s52QfWJ/hUCiv0L9I2QMeeUa1xbapS87SqHziNeLE2D6bartbsDq/i/gD+eFluMNcZPoPkdDLYjPIb/Xepn0aRRenwKeAvw3Ws7fzvzy7sR/X6Sg3vaCxVhsV+/jmi1YRtOtYrKpv78e/1Z+No67Easf7zJ2nSRvY6VeVr3q3wKn+p3MGrXBbOEo5tuNP4uZTRyt3rz5bmb/Ov5EFjbzrzhcmctPAMif0Mn41+UIqbB0fElwDdUii7HtyV+an+NXDZI7oC4uMhyHtHblihBRxQXepNnecHPfWpbPnex/4Y3wB/vjG0hehzfMeNnVDg+jhX/XerHh3R+Ccq7gCfUG6aJz99u/L8GvILkYLxvmpxQ7GfXlOWD3aaty01Ln10n2L5QLW1bLs297Sn77xuDv41puCbp5PNP+g5ALT49zoijMO+ONHRtclf+iE3HsxC5GFju+Lrx0+XQu/lkm18ad3k86VaOTlRe/z26JfkjNgtDH9++8TP29aPxcuECTBn/6fy+QH2N/1X5x/H/PPBS4PVxpZ/lsK+QP0+fP1pRvJxpZ1SpXvgFra/MQ3HcnLsBZZr6TGY5M5vPzpRpWmTjRu3OguSPgBRxY+UsC+s3tUV5sgGmyS8rOrXpe4dzSP7i/C8fZyvq2+pLnqaNnSUWy1kMjnecf9I7ANIQOspLZzQgZ8SkODq+BJFX+HeOHT8N3DQkWUREREdsapOdzq8E3gvcf82eLMLdwDNJZu9ZtyPbjP2q71K80Fv1dKXshZF3vLTsuInRF0a2c5+J9mu5dkRhO/H1zpy902N9K3rVBVVh3Jgs1Sq11MpVkYpmdlJmrllZi8SBQehg/KZKmpf2LE0xqCrloo6NXInVwKvQR/6J7wCUgvSTa4/8QN136ccTsdlI53ugr0M1X/+/x/FtjZ8lY13kc8sl7IEp78T5EE+L7cO6Y2YqbFo50+NHo3o9cOm6XWmH3IJwSDL71Lo92Xbso/pCFTld9uMxL9jmdwO06GwX069l583XWbF66fRvhrq+mt1vT2VvpbmPxmZLcNb9K5aMLNwtlunMxhSF0pRhDP6CCzyyDiTvOL/IdC8D2VUOwJwKpoNfG5PUItjhWsAT1G/YxSSijvQY0GtBvrs++IVOx7dr/PTDvwxBEkaMyYgtxS5NqKRzUP02lD8i+z7J5kLkX4FrSGa3rNuVk4D9//DNH/+zdTsREbH90Oqv7fcUszx2tqc2a+ve8jLbqh59iH9pxyPGRjq/GNXfQvi+5Y9vh/hZBPfGmPLJ7ok3AMvc2IvnRUSBPvEz+uz8Evxj3NjOOv8/gvDrwP6o58uq/gvvIXvs5+6BPNp57K/bgYiIrUd5a8jcItIWGUwnTsxjUJ5Hetr0LmfEZiGdn0L1GcBrgPuvdHwXxU9XVLa3AV/sV6AlMPRM6g5NzO4sxpx970o9epva87w1yQbEHqq/hMiPU3yUcOzza1l+5Y3Ai0hmcaWfAREHABERq2LZVX0GleMgYCNwdHwKeCjCt4J+DyL3AcaPgf74aLyYRkSsCZuxRO2DEHnQup1YgHuBVyD8WlzpZ3jEAUBExMqwD2mLo5tajhgN6RyyNnMP1TOIXAHcB7g/8J9RvQrhoSD5S3T1523Wf9yNverf9ki4HLxLHa4Sq13SxnPhZOOkxM8yeYzt/0by34zyNg5j538MxAFARMTg8M3Ghxq/ZRpU72z/U0mPZ+VAxH1x1H1h3z5/XroQStvF5sTxnya7LX4RwimQM6BnQE4DlyBcVFW9ejjsviGO7xDxU9pdQPirnk71h/h8W6Vz1SVt7PxvP9pieqL4GX123jZOXTF2/G8k/wzhBtL5NSSzuGzxwIgDgIiIIVDrs/k6gkNe0LyP/DwI5EHOLK9f9tloQN/X5qTxo1Rfs23D2Md3QH7h4yATrKIhzWJMjTge2D50Ot+2HLIB58b24IHADaTH15AcfGLdzpwk7K3bgYiInUbbtW6I62Dk3wH+tp5EcXfC2Kj+8bTP03r8Kz6WEtrvpq19bMWmXcQfe1nbia7HN7DfTbtU/IwInSr+Twz/5ah8kHT+LS2ZRfREHABERKwM25NTf8euraMWtPch8kf+QDrvL99X3v3QuxH50xaigWEv4uanC/aH/Xe4F/DvwmzyiUWH4ztW/Ix966ikHzn+2/lvBT49Iv/Q/p9BuZ50/gP5+1gRKyIOACIihoA4f8GddTXPlarnAlDotbK3jWDkj/wh/nIVKjc9TYi8jWR2p2fPOBAy/0T8vhX7S9lj0+Cj4lvEX6v/iK1An+M7VvyMjSIsx47/Nn64C5HHIXx4FP5R/Nd9VN8EvCb7snrEKogVGBGxMmqteS7msm3gChuRpn2pl0qWFvvIH/l99iW3I2e/88B1TAqpy65v/fwHt04X8a9/qcWIpdHh+I4VP2N/B0BG9r9L/YiQTQbIkxF5x+D84/m/B/wM6JtI56d61XtEDXEAEBExFLr0NWQgOfJH/t59W/19VMf/+FeV33RZRUQMibEHjpvw8cbChWR2Dvhe0F9bpzv9IT8A/Dnp/My6PdlW7P/mjU9+GLrEakBCs30vzpniLjeKhK5S0tHOg668QX0XmxCG4BdQrcrgLU8XX1p83Hl+4RMvfvj7Jv7QUX5wO8uRP/JPxn8nyGvietoRER0wxR2AdcO6kMzuJZ2/DPifwC+xPStEfgvwQdLjQ5KD29btzLZhX1X/ErgcQBDU6VUVOrtPENR3gmg9XabypDUvediOnWvj+mO3XT99PgT1XWxCGILfDAKgLotkdSv5R3RcfSc58gP8R+COwJEYFupudO3ELdPhi/yR3+Xv0HCJvIpkNv0Fct0znZvQ0Yroh3XHzBTQ8p81wjk3khmk818DvRXlLWC/dbLReBjw9/FbAf2xl3eWvJ3/Ij4EQc0LaYUsSC2GxDS2wQ56jb69Q+/O/LqDgW2WgwMGLf6of5DloGazgHMX+SeBuJ2wPrI6MgF95I/8If4FED4AvHGxYUREBDD+wHEjxqWetiOZQXLwDoQnA9MtFrA6HojqDaTzh6/bkW3CPlQdd+9jNWYQUNsd0EvgxOnUKe5g35dzk+UQ7B2Qmt7UbZd63mX+SSdXFMoXx0TybTNja1dw6SRjLkAensgf+V05jNtAn00yu7DIcHgU1wZTlgLdfK/b1mjsxor8EZsFcYU1xM/YF5BaG7DIdqT4byticvBh0vnjgPeC3nejz9+K/3Lgb0mPvwvkPdN+62Q7kb0E7AuE0MRTm01oUis0wdU2OebjzHX2EaLOvrb5DtWjJ4s4h+IvbALllmL96q51F6rHXeWf8tovgb/u/mXktnwif+Qv4W2kzoF+J8nBBF/99aHlZGxc3Fsa2cK29jGhBRUaO/9bDKH/8R04fkbu/zczGTv+PfyLTpFk9mngkSifXorftR3afz//GZDrgR+K3wpYjL3aozd9OuNtnWJ3cGf1XfIIcRZx6+v8+eS2n2NXziYv4hyS3y3fIt2y6XaQf9rHg7SR/yLTaB/th7VvXFDvRfXZJAcf6cA6EnwXgUW2rhyy6VtxEduFvsd34PiZ5BGgZWcIYJD66ZIsmX0JkceBfrg3f6vNqMd3H3gDcC3pcVzpsgV7tccohOaxsLNS7sAcqs5+2/nSNqBfZsbMw1cOZFw/XR7fPp/vY/O3QPP/OqVbop3aBf7QI0bjQMyfBY1Zl3as1T7yR/5F/Hov8MMcHryjgwcjossMwKqcQ/NHbC5OUPzosvkN6X9H++zDgU8BHeAL4mPXfzn7ugf8NMibODqO3woIYA9ARctOlYr5WV3xXz6z2tinjp0vrd0u8lBHdtO49i6XVB3zQrYdxMKulPMAKbgaNoZzNH7Hxi1zMYiwZa1xho6Z4dl1/uLPJNiUl5EjdhwKcBaV7wJ+f83OmHOwmFkK3RbuI7uci/gjtg/FsexyfMeKn5FjqHwcZuz4b5H7zJElB2dBnonqb9R3rNH/bvw/AFxPehy/FeDB/jJx3mvlli6TQI5O1KxIFLAPrSDURa5T9Us7GH+gDmtlrxMtTmvrZMf5+3xXYnWI09npg7aOS6hhi/yR38MvcgvwdA5nN/YkGQ9a/mP+2vpYdNu37QLj2nj447sA2wcNdQgnjB/xnZsDQ2H0+G/l71nG7FsBLwX+HeVXQPfW639Xfr4Z5IOk88O1LIW8wdgLdVwh65AVHSmRSl4FXTjafPLZrLL6ztir+/RdASiUtou+S73tCn9frpWw0sXCbdT6PkMS+SM/ACnw1SQb1PkXaF7U28psOwL2nGqrsz78EduHdcXP2HHktgXWl7Hi3+VfoozZyjq/hvC9IOfa+QuM5X8PfuVhKDeQHj+wJYOdw36XZ6XLZRcnHASswrktsoVSzVoPtZxo5J8IRVuaf5ws00U5ypPItwMvB30bycEalvpcALv8n/U92+kae/SO3ODqwx+xFVj6+A4ZPyNPIHn732PHv49/CWSDgD/h6Ph2kHchXLI+//vwMwO5Ib8TsDkTJWtEfEN6QzB2hzXyTwB7JyDYRoVstKdN5N9x/rOI/gaqX0Yy+8ON7PwXjg/U7whyDckfsRkY6/h2jZ8JbyD3wibF/+HBBxAeg2r3ZYbH9n8xf/atgKN5EpcJbfsOgIOiA9ZpecVNOHnKOz/9Hieyacfmb32HwNoofruATeQH13wS1MqgATlgE+TskDby7w4/nAPeiOqDSQ5eyuHBhn+tU3P/Pb+QvouNdrWJ2Ep0Pr5jxc/IvWlhse+DxP+i34pIZp8GuRr4zFr8X47/DKLvAn6I9Hj1Othi7AVjQM1fY1Nbzx6PjavvYxPS9Ulb7MpnyspvBoR4XRuTdiz+AqJSDqhExVtGm1ZV699ACNhEfqadDSk/RGIyDc7gBmyC3B3SRv4Tzi8ANwOvAvlPJLPnc3jwxQ7sGwDJ/c9/auSQvosNHWziC8BbjK7Hd6T4mSR0poj/Fv5Av6Q3Dmc3A48BPjKp/6vxn0J5A8i1pPOdfRJm3z5bXQ58Fw0K7PaiGAp0ivsMAkofewwCao+MtNn7OpWhtAPxB3kWoIutaxP5J0B5HhQHWdwdNE+uNptV0kb+k8PPnaApyNuBD5PMzrNVaJlBcSEBuYt9xAmD9j++g8fPFAFW63T0y3qI+hmyiMnsTtLjJwNvQfQ7evnTBWPUj5B9K0C5gvT4hSQHW9a+ro7sJWD3ulOOB7IXf8vHKiTrZBVrsduXgwt7W/FFWlGpZsydI2M799bGPspR8hh9jbOQc1vLawc4ZVrLQ9M+K8Z4/MUsdcmZVaapOKqlLO04Qzy+5TYlv0T+6QcCtjMXal1H1/8hcAb4tm6tfdRvoP48Kp9D+DuQ9wIf3f6LkrRurkK1tE3EhqPlIE4VP5M8PtazMJse/8nBWY6On4nIbcCLG/vH9n9ZfuEHgPtwNP9ODmf3rODB1mEfnBn2ovOvece+6PuLlB/qKjvBmnf4laC+gCClvuxk56sKlXnRtC8HILlvJU9hYwYEZZ4m75LXDCRsR77wvUhj/RiL3/ecelkmkdpjMFZfm1Azg7bS3hyLneefEr5HDbQM2Pr4IBvp1s8PwTWq83TjvxX4KVSeCvxXhPsOzD+2/7vGfx64Ffg06D+j8gmQTyLcka+ycQJQntB5HTqyRcPGQxeyaeWPI4KtRNGHgPXEz2SPj5lr3Sjx35J2jOvl4cG9HM1fAvw7or+EXWhmaP9drMb/zYh8kKPjQw4PduZbAftZ3zSvKVNh7tKfZQdfKSvX7SyX+kCjazvvRT61tB57X6ex1uk2edlBi32sqfEIkaN3Hy+y9mPwl3WxxBnYVrfu9i7zd3pZfUiUDUvpiF8mYINjUzRgjUYswK8KhwcXgHeTzv8OuBaR55EP8lfmH9v/k8l/N3A7cAvZM/z/A7gJZA7MSWZ3hTw4EVAIVpR9V6d2qjoHpeysmCt68L2rAH/EFqK6vjZ0MH78TIGiTRk7/kM2YxX3cAbp/FeBW1F5M8JFo/hfpB+ufh6GyA2kx08hObgpXMCTg/3ysQn72EWO8tGcvPNvZ95rHV88nWC3/+Wxr3ZVHeVOenUeB0Jq+Xv1Qm2m2X4t1vfojk8/NP8yqL2z0UG/q/xdvm8xHDRvyMsRsGcGopC16kgWodCwd2yKjmgrvylvMruL9PhFIG9HeR3CVavzj+1/B364C+Hm6va8ePipLqqW3x6jGr967Ev+cyj35vznQC+gcg/COVTOAvcgeg/wf6HcBdyJ6B2I3AF6G8hZVM9zeMBuQ81FOZeL4+XqfXJ1gLvZW/44AthG7HU+vmPGz+iYIP4X2o8E91sByCXj+D94/ezUtwL23eeo7bb7fL/7/LvtAPuehy9nv/PtAm4n2Hb8utiHUD5f75SnoVdq7xUYgvojOmPx20defIj6lfWrDrR6wfYz+rarQ9m7dzySA4CPk86/DtUfA14FnJ7MnzHsRU+D3IjIq0hmd/RkipgcvsEVzjH16BuDNxYMGlv4p2wHIgaCZu1Ul+M7WvxMEDe2HGPFf6dzZEQcHnyAo/njEP4S5b6D+z9K/Wj2rYD0+JkkB2nXom4j9mrrqJu/dgYbNR3zvKOhqqVeVWv6cobe6AWpLwFpzq8yLZU9SmnfuLPg+gv15R893DW9GD1NvS33GPyW0y5jWctXHZ2j72K/y/yhpVfHwZR5hVwI+JDMznN48IuIfCXKB6Z1amjIKeB5qH6edP4Cjuan1u1RRAtqMVlrNM2m+m0Gs4/YKqTz/fw8Z5x46GgPE31Yb+z472A/Ng5n/wpcjRTfCljgz6TtQ7BOzgDv4mj+Qxyd3A+G7WX9/3oHvkCtk1+rwErndnTtQMF9ft4H2+F3O/ZFnjWf0JpNka4cyIQGCh3l8j2FEfltWRZ97Mr7YStbP40kdb6d5Z+0/59nbmeOppYXvfOQzOYI34TyvQh3rM3PYeTLQF+H6D+Szh/bXvCItaH4AE95LuaykJ0zvpm4TvYLZGu/4LSI2DAop0DP9IsHho+f7IN702Gs+G/jn/I9uWR2M8rjUPnIYP6PXT9wCtE3gL6Go+MT+a2APcg6pUXH1P71veRr9eL+5+jddEDFYfnwp2vYeOxr/g0gW4zF31rekCwBuS/PjvBP+xJwFduBVsVvM6R9l3cektkFDmdvA/kylLcCF0bzZxJ7uQrVD3J0/HaOju9PxIbBF5M+nXuudojlXnlGbA1Ez9D6qOJk8TPh8rtjx3+Af+pT5fDgDtAng/xZ2Ggd7UMr/x7CzwC/S3ry7jjviYgZFZlfgcY115HdND79iL/Sf6gPWEy5Sr1Pdm18aQfm74wuSca+Vm4r/6SNm7mTYf/6ftamq71r57Pvg2R2ByLPRvWbgJs68Y/t//L8e4g8A+TfSOc/zdHxRV2qIGICSP5P7ZgV50qhN4O9hg2VTfD4L+CP44Ftw317Hd+x4kcnuAMwRfy38U/6mGyOw4OzwHeB/PZaj29ffngO6PUcHZ8ZukrWiewRoPxZ/WKdf/tMflERhVw+11/onWf/i0p03y2w+4t8Grb5PtfGTWttS70Yv6V02u8jjg/WhkC+Q/MvkqWHvXTk3CH+0F2dcVANEqtsJSDbZLleK7PmQNqZrQnxFxxdkcyyF7REvhL055H8grcu/1fnvxjVa0E+S3r8VNKTect2q1DGpFCtre4cxGKQ4NpY2/I4e/Yt4o8jgC2DPKDX8R0rfkTG/yCUjOh/qW/hX9epkczuBV6EyCuAC2ttH/rwq3wzyIdI51eMWDuTYq/sMBWP7zijQreDVdP73hvI/xP1vCNQJ67LNluB4pGfbDPsU+mXw+fzLeRDw0abZR2UHw+/J61X7+PxJt9x/r4d4sFRBq8jm7+LVoOyNov4l23Mk9k5koOfAr4O+HiQ3/o5hv9D8QsPQOV6VN5LOr+yJWXE6DDndj5pEzJr2Li27vWiLW3ENuPK3sd3jPhRxh8AuL6OFf9d+KdGMoNk9svAs4Fza20f+vF/DcoNpPMHBti2CnvFIEfzToSK+QuNAVM1WJLatruv4LGcbXLBXyyfqaKteVh/rF2Nc4Wf9zGgIfkRr1wrV0DfxWbX+e33LEZHrcHRsFy+8O7qO6TtIy+DZPZpRK4GXgjc5fdzZP+H4hcAfRKq/8LR8XWk80sb5Y2YCOr/qUcnHW2lhddNM+m7QBErQ/Wrex3fceLnXoSzExR2LP+71c8mnBvJ7A9Br0G4ay3tw3L8M1Rv4Gj+iJFrZ3Ts2Rcqs7JJVVaqbfelVrtCUFUvkteXNvXU+Qq9+ziRojWezK3KpuRxv6Dn+Gt1XlibkN1Y/L59Hrks94o2O8s/FewApNgQqD3+UtxetDbFzjK9J63NoI1/CCSzCySz16P6YODdiFyYzP9x+E8h8mOgn+Xo+FkczT1fRY4YDeVxkur4ujIB2dXV9LRzeu0jNh7p8R7Iw7ONjsd3nPg5D3r36OUN+Tpk/LfybwgODz4APB7hlsnbh+X5L0f4a46OE9LtXSa0fE5WkOoxIMnkcqWVQk9d59q3yl3T+mxo4WmTxbH3pRUn7RT8pry5ulEPJfeCul1ks8v8k8HOpEhDaKJsQ8TIPgPKNqgX/6o4PLgFkacB34rypcb+ziUowQAAG9ZJREFUsf0fnv8KRN6CcAPp/OEneV3njUJxWniPz8RyxBZArkK4PBOtenL5HpKDNS0DOqG8SYOAZPYplKsRPlfqNqHdaJfPIPIu0Oexpdgne/Y3zoytCYL/JAzpI39n/jsHcaALvK5oaEcHmyXSDt2YZ59yT0nnHwauBV5Ao50Y0P9eNkunfTjoDYi8jXT+UySzWxeQRKyCTepgRGwDnrZuB3Lcvm4HdhKHBzeTHj8G5XpEHrVudzriFMjrSOf/G+irSQ4m+oDcMNh/8cPfd/O6nYiI2G5I4JEjt5NOfVbUpmnss2k7dITHeuchmd1NOn8Jqm9H5A0oVzX8dbeX8d/LMQr/PvAshKeSzq8F/W2SgwnX/N4lmEc3JT+AKub45Xork+8TyM4rNcd+UdoAf8TmI52fQvnupY7v8PFz25hFLaE6TfyH+Kd8TLYrkoM7SOffBPpHKN+21vrpzr8H8tMI9yGdP59ktjXXk7hUXkTEyigajBxihK79j0bHV8I8y/CvgmzJ0BuBryNbuq25QsbY/g/Pfwmq16HyL6TzJ5HOY1s4OITyACjU1twu9quxK9/hEcq1vQvZ8oRkH3/EtuCpwP17H98x4gduGa5YbZgg/tv4N/X8SGZnQb4TMd8KWEf99OEHUHkOcD3p8cWrVsFUiBe9iIiVkTcWbntqZ+WLjqttdwVqgwe3E1va62L+KWZzktn5fOm2rwLeP6j/Y9dPmP9K4L2oXk86n7WUPqIvlOoYFKunFcezmJGT/OeV8egxx08X82/kNGdEDen8FKqvXur4jhE/vveeRsEE8d/Kv8HnRvatgJcAP4nohfXUzxL8qt+M8rfb8q2AOACIiFgZxclP9RfMLIJnX6lzeq12f2kvi/mnxOFsDjwF5Jng3C5f1v+x66edfw9IUP03jo5fSzo/UV97XB+0PutWHgutH5eajc/e6tvSBvgjNhdHx6D64wjZNzuWOb5Dx4/w3wcpWxdMEf9B/g29A1AgmV1A+EWQZ4Ocm75+luSHh6F8jHT+oOUKPh3iACAiYijYmeXGbHSLvduptTp31jvIP3Fjni0Z+icIDwZ+H6FaMhSW8N+Tx6D104Ff5DQir0T1s6TzZ2zz8m4bAXE2yuNjZPcAiitLQN+SVhw5YnMhPArk1bWTt8/xHSN+YMITf+T4b+PfhtFx9sGwP0T0ELh70vpZjf8BKH9POn94n+JOjTgAiIhYGWYWoKHWejtRQqtZAzG2RTpRd1ahnX9dbXlycAfKc0Eej+oXSr/6+t/AwPXTj/9+oG/PG/CHessdsRgqVLfIwZk6q46jGNnqC9vao1yOvIh/Ez52FOFHOr8K5HpET5W6vsd3+Pi5AHrTMAXsgLHjv41/m8bGycHfIPI4VG+drH5W5tfLgQ+SHj91+YKPizgAiIhYFWobAQfuDKQ7kyDenf79bfzrfJ7zcAbJ7MOIfDXws8D53v43bAaun+X4Hw38A0fzN3A0v8zDHtEGyUdX5TEo5K4/jH1IXsAf7wBsHo6O4Wj+WOBvgctWOr7Dx8+tIHcNXeQGlA5lWcr/BZyePLYFyexTiDwS5QvT1M8Q/JwGeSfp/HkcHQ9WFUMhDgAiIoaArvJT568rd/htQmOezM6SzF4N8lUoH1mtTvDUxQr1szS/ngKeB3yedP4Cjo6r2cqIdqjk9ahOHY/18/BHbBbS+WlEXgv6t6hetvLxHTp+4DP5C6jjQsYoS1/O0Us5PJLZzYhcDXx0/PoZjP8Uqm9A5Nrsa9ebg41yJiJiK7Fy39vMKoij20Yks88hPB7hhxnkg2xj108n/stQfR3IP3A0fzTp5s3mbByKOwCNmfi+s5R2tjIwixfkj9gIpPPTpMc/hPJZlFeC7A9zfAeOH9VPjVD6JnSZcnTwnz68W4pkdgfoNyHyFxsXP238yk+DvJl0vjGTSHEAEBGxKjS04crarq/NWqppo9s4C3HDpnOS2b0ks99BeDDCn4LmX0hcU/0Mx/9Q0A+hvJ10fj8iwtDin6Jebf13+Imrw+HSxfybdl7sEtL5JaTH38LR/HdR/XeUN4Hef9DjO3j8yD+OVBt1SIdyjF0/W3kLIEdycBb06aCv36z4WcCv+ixUj0jnG/GtgP11OxARsfUQ34Y7w1Jsq7PPpzeyuFyL+DcMycGtpPPvRORbQH8L5P7ZjnXVzyD8e8AzgG/haP4LCL+RfbwmooHGM/hu/S9K3zetx+ZovodQXZ+jvJosugeyR3YeXIRyKegViNwP5f4IXw48BHgQyKnmOWQwxPFtQz/+e4Ebu5OvAFXPueHB2PWzzUgO7iWdvwj4n8C1oHtrjp+u/E9C+SBHx9dweDDNV6cD2P9/fvarX4ByGlG0OMM9Zcj2lC2A2fL9K3mb0Wg58sDH0ePZR00vImi5P8shPH5tcgmUk0Eiha94ymt9Go+/XvKqNPWSVVZCVf5Wm1LedX5++8zP/PM5JoHvhF+1IV6U3t2/KGbXiGQG8B6Ojj+C8BrgR0D3p62fUfjPILwW9Nmk85cDf5GXNQICHRw3ZvtcULsczwb/wxH997o/TufLHd/ZhryLPT3tt50fOZWfvxcBFxXX5IbtNMd3SP4vkMxu7+DE6uj8cvrY9bPlSGYXgJ8nnd8KvAlY8HjN5O1PyOxrgI+Rzp9CMvtCB+JRsA+8WtHLq46poOJ0thQQaRSlKl6zg5ZZZ52yskNcdOTz1GVXuLARx8botZa2ygmTv/Wl6oSbYYlUOVsvROo8BTsj8tvBlC1TvdPrVLQYfSO2LE/kF3grMNEAYAz0bbi3oKE/PLibdP5S4I9R3pA3gkti7PL24p8B1wPvJ52/DPhcHAh0wdgdGgE4BXKfbvnm/I3O2aI8u9qfEP5OnMvYLHV8B+TXv+mR+Wroegdg9Po5MXgrKrchvBPo+HjNuutfHgDcQDo/JJl9vAfxYMjeARB3kC+IPdGdjpq1s9psS+tcItV+K1PJiF+WkN7xRRu+VFa1fJo5e8tUdS7H4680WqaSWt0ZWWy+RX1Uu9x6j/wTQ+tDl35ykHQgng1D9mGXTwKPBF4G3JPtGLt+JuF/Eug/A9eRzi/pkMnJRjnSd3/QrDsNyKH9vu3IH/lX4Zf3MhVEFvjHgv1D1s8JQDKDw9n7QR8PeusWxedloH/N0Xwt3wrYA83+N8tCqWq2Xfjo0WueRtFcT6kvk5X2WtrnmeV2+Xx48U/5El7dXktirUwa+apZicn62dSr0eOVNaAfjr+8s6JZCbUoW3k8MlkwNjZtTV/JxbGM/BOiaMsVsqUP+8ihX0+eqcu8Kg4PzpPMfg14MPCe0etnOv6LUH4M5fMcHT+LdL6771mJmnpx61yoGs62Y1NwWB6ffeSP/CvwI7eBfrRTXA8CDfg8Zf1MPlU2PpKDT6JyNSpf2KL4PAO8i6PjF0z99fk9LYIgX9oo66haGUdPzSYLorpeq5Oq2jY8WtoXdpmsXvuKS03AaplvPa9VZB2IpxO/me+u12NdXyun/QXsI3/xK4N3RyCLTTYRyexmkEOE70JY6wtRA+MK4C2o3sDR/GHrdmYtMNeP6m9xbrrnp3jk4m9h77OJ/JF/EP6/IDk4z2Sw1zKvP4xfPycUh7MvIvoYIH+sZivicx/kt0BfSzqfbHXOvdonj9HcJ6X6zHH2E/PZYxGPPTj2FY+4emnhd+wJ6Os2Pn82XC4DRD2/XK++fc5PO/DsJP+UjVyHvDq5o4tNgklXSLtuJLMLJLN3gH458HuIBj7Es0IZx67/IL88HOEfODp+C+n8PiGrkwl7MbTtvVtZgXNYLI+E7SJ/5F+Zn7cwKcp8wz6NXT9l/icQycHtCE9E9C+2KD73UF6JMtm3AvaqzM2INHvzlsa+Wrz4rni5XfGybs5jZ2m15Kpsyw8r5LdXtJGvSSsFv00L9Rdq+sp22+Ecg9/Uk1d268UeG3d/zT8Px47yr+UxoDa51i5owF4C+pC9kTuvKrHBSA7uBPlBkCcifK7UD1E/Y9d/G3/2rtWzgP/G0fzHNulDMJNCbWXlEEwbQP00VivkaWybEfkj/yD88kngE/5Mx4L1eU31Q4DnpCCZnQX5TuCNINsRn9n2s1A94mj8bwXsFf7V/rq6wn+R6sVcybeNvsFh0pc/lx9TJ9LM18sZ+lkfesnSLa+h+EP1EDoOQpPH51fkL+W1QbrI0sGmp/1JweEMktmHga9G5NWIVuvrT1mfY9jDpQjXofovHM2fNPXznpPDd9JSyMWGVrY2HUI5o+a76DZP/sgf+Zflv24tq3aJsN76Ga4oG4tkdh7k+Yi+Csk/Rrmp8SlkOgGEJyH6IY6Or1i1CtqwB1TvKphf4Xf10m1dLrbbZPNeMYaycfNpaRtjtE2ytz7VHIeAvo/NrvM3F62dAI2TfA3ySUEyO0cy+1mQrwU+Utu3CfW8mnwlwnuB6zk63oH1Qk3hxZXF2NhfrmvYezgjf+Rfnv8LwLtZG9ZZPzuCwxkgPwfyXESq9zw2LT4bNvJQRD5GevygjiXtjb3Cz4Z7YlwqZLc+CkHxDmYFqseiCr06IahUryH40hbblqfkq5RSEJd6n1wlliJzVxarH4ffDYkyvT0OTj0Xx8Q34ETqXJEfJn8EaCE0ILs2S/q9ze8AtCGZfQ70cYg8F/TOpetn7Prvz78HPBXh3zg6vpZ0fmbJjDcXxag8/uJvY3+8KpslXgfWXXYdv4ibgmz56beiegh69/rrvfOv+FbAI8aolvwOgGKnVWvLgAqV7E5f49iIowcUBcn5lFwuymZsa7chtKKweRZpQ4Fb+F/ka7wo/6qry2wrdctJMRh/vu2Oakw5a5zFiMed+iYsR/4JZzk6db5DsweuzY7NznRBcnCBZPb7IF8O8ifAhf4kY9f/0vynEflp4LMcHT9jyhUgxkeX86JAl/pbBZE/8jfwUXSds/8WG1k/Jw+HB+8HeTyIs+LcptV/zT7/VsDx4N8K2Ms6WoKKmCVxcx3VtkJmQz5AMPurr9s6esNDyZ9N0apo/s6vVEurBn+Sv19RpK3460usmvn4wo+ibNZ/DG9ui8MxNj9QLn2qhVzWrx0PGZtS1rqs4vVxl/n7dT5WhNggWfa3IscuIJndBvpM4BpUv7h6ndvfEMdwJf77AW8HPkg6v2rYilsXFjbs5qcBOfSjB3fkj/wN/nMgL+RwtsRkwkBYe/2sreTrRfYhyqtRuWmD4xPnunEG5F0cHT9vyHfHspeAsV9btX9pbot94dfYS/WF29pLnV6+QicBG79MQ+e8PGp9LMukRnZ8tja19L5yD8lvXxQO8Fsb64MYvwpZnDqP/GW8TAN1A7T+o4us/exd/l1BcgDJwV8h8pUIvwqc71Q/Y9f/UPzwWOCfSOevIz2+rEONbDCc88LqGmWXgEy9DmmxifyRvzv/a0hmn2bdWGv9lIl2D8lsjujVCB/fmPi0h8MeHyn/2Ufkdehw3wrIHgHCzLoWv1xhn25Q56/FUIPJEI/Vl1/bBdTUYj1t4wh4+CSXpUxf14/DX+XTlN0y4tvnzau+HfnX0LiFXhIKvUi01EtFC2x2BcnsHpLZy0G+nmIJv02o/2H494EXgHyedP687f2asHg2V4lVaU8e+SN/F37lA2STB+tF76KMXT87huTgdtBvQkm7JVhD/TcvG3uIvBJ4M+nxystJZy8BFxM1amey8zzt9QmwXWLb7RJt6+J1R6j6avVQu8NgfLD5ep81r3wTY+OW3dqMwe8dIAbKiG8fdfi2d51/PXc3ffHhyJ2GRR3kIP+O4XD2KeCRqL4U9O5Sv7b6H5T/MuANoP9EOn/01i0b6j1xl5V1IJ7Iv+P8XwR9Jsks8LHBKWHO93XVz64jObgH4WkIbyx164rPYtt3fJq6ZwFHpKt9K2AvK5i9tQHYl4Dz7SpYS6NKVm0WxMq+F4c1/6fsR3suqAqNi6KxK18sLjrhVpY6VZXe9bM+x6yT8Ifmt6M8lDxtG+fJrW+Du6r9Lt4FKJDM7uXw4DdAvhJ4DzB9/Y9pD1cBHwLeztH8vh1Sby4WDlyd64d9qd9nHvkjf3f+O1Cu4fDg9g45TQBfQzBl/UQA2fUDfT7oq6ktMDFxfLq7FyQFeRLKBzmaL/2tgPI7ADVINsNqt+sd/3y7XJUlRJ/PxdZmgvIN0TwjrdtYvsKmyLe2diRmmdXw1bV+F148vor5I8078qPxN46mB50iroN+l/mnxgK/NaBv5enBv8tIZjcD14A+HeWWtdT/ePx7wDMQ/TxHx68kPT7dIZP1olrurVDkDaY25dDESM3eZxP5I38Xfu5AeCKHs+oL42uHKd9a6qfYjiA5AORngR9E9fxa4h8CeRTcvvT6NQgfI50v9a2APdRMZdf4M6ezJUGpCpHvK5/BznX2iRg16as60hqv1ani3dfkKey1lrbwseammmIZfrvdsFfX/3H4bT6uXouEpsgFUZWv8Q1/2l3nX8t3ABTqI/nQyLj/FPBC/jUUdyORzCA5+DNEvhLkjXiXDB2h/qfiV84g8lqQf+PoOOHouENe60JohrOYWdF204Z9F0T+yN+wvxV4IsnsXztmMj3WVj8RJbKvQf8+8K0g92TKNcR/2SnyyV6Opb8VsFct4Vnnb+Rl+mbu4wahdJazTQ7Zd9E33TEW9taG2C5hXfbbjMfvO46F3oaNvedSu7NkOexxUSJ/uX/CFm9RoGsHfZdfG7/9al4EJLM7SWbPBx4DfGb0+p+efwYcAX9NenzlUnU0NqQ4oYX6ZBD5tphtobm8ni+tmLQhm8gf+Uv5Uyhfv5Gd/7XXTxwVNJDM4PDgr0Afh3Lb9PEPYPZj7DFcuNx6Gcrfkh5/W5/i7nlDwKes9YLNC7Pmhdy6Ph/XSDO5ZWp7dLl6BMcvFyqFZr5k9WKSlbJ9iTh73KmwMf9OyS8Vh5r9Zb6Go/Zz9UX9RP5pJzx6Z6Ymjdb1XrkbZYQHyeyjqHwtoq8CzmbKEeq/hin5+UZU/pmj4+tWfSFscGh5BucK9yx260Md2ba+Fi5n5I/8Df4LiPwOwtUczr7ERmLd9R8vGkEkB59E5GqEm6aPf/fYhI6d0WWPEp1GeSdH887fCtgrO6hin0/P1lmnWG+96JiVsulxZTscWSob81fKnloh+/KSPEnVjatkqemLnp7Y3qKRQ3qbtsZF5XIXnuH4i2qSZhIbG7W04uiLuor8deUEUK3KUIZqIB7ElN2OXLBpxJE9nC5/RBiHs3MkBz+H8FXA341S/2Mf33b+i0B+DPg/SOfP2pivCbvnu1v2Ui8BmZY6ceXIH/kLmS8h8q0ksx8mmZ3tFKtrwbrrX6Yv8jYhmc2BqxFunCb+bfoeP/LjmG3vI7wB1V/och3Yg+JzVZREzXGhtMrZyjbi7KPG5RvTZHkv0oc4Bet78dXYwq/qkZDFevv6Q9hmOP6ifPUySG1/Xe+zY0HayD85as8hBWZXtBntje2QTRt/bMsXI5ndhMgTgWej3DFo/Xv1U/GXreUVwFtAb+Do+GFrXza08eKTT+eZzbK/xstZHpvIH/mz/eeAX0XkwSSzjmu7rxtrrP9CFRFGMrsd9InAe8aPf5r7Qm2o1YurB4SfAH0z6bz1WwF7Nd+o81ld7a/1ExCkuc/hKr81QLVd05ttcp348nX0dgXTkl+ptpzyiNFb/0XrHdNR+U2ZVam/+G3SWpsyR/XbNI7hrvNPCd9MSmjM3E7UI8/lku08ktkFktlbEb4c5G3UXhIeu/7H4hcnBuURiPwD2cdill4ibmVI/o87S1W0pg3Zte9rE/l3lP8cyO+hfBnJ7OUks+p7IBuPNdZ/oYpoR3JwD/A04HcyxVjxn+9Xs8/u9+Xh6m0+yLOAv2x7NHQvS1usoJL1qpSqU2W/uKpU6+Qr1UorNVldPfXBUf5Xc0F9+gU2BdTkXPhWyDi+qfFtkQ2WcxR+jA3VuziK2efYNPZrzaasFsdml/knR5cGNWQjPW2WyjyiRDK7Hfhe4MnAfPX675F2cH71/fZAnwN8nqPjH+Vo9a9G9kZxUoZmxVpnyxbYNGZGI//O8cPtwC8D/5nD2Q9yOLuZbYKMXD9d6j+iG5LZeZDnA68GvTBa/NsZT3emXz1pvHcJavpvBP0Q/397Zw9iORXF8d8Ztlq2sLByKyXPwka0sVCxELQQ8gasttBuy2WxEFkQBC20s1AsbRRZUNAJq6KtjdisgqywEwaLwWL8YHkMwzIMcyxebnKS3DtJXjLv7bzJH4Z33sk5/3tyv5N379xk+xHfbWVrhCRbiiRFncgHmsoegCyJ+t4AMTZGrj74UH9galyiFvSdpyUe2UTfwoagzWnw13SmQGyTdJZ2SVnua3hKvtbmHPOfO4SWjIwII44gjn4EngL5ADhcdUiLofI2SO13HkLkQ0Ruk6QvLX9ZkO8tluvkPbFX4y/ZGDn0Fm3kX3f++8B3IFeAR4mjt4gf1E2+TQjk2zLzf0R7TKNj4F2Qq4gcDl//PeXqK2c74RGMjUPFBp4G+cl3VsAGzt/EkfvaaxSKQhWoQDWfgEmN3McloVTq3EbOJ+CevKnbSNDmVPl97dqZG9cSSvxFOqUkRn4aas3A0NJH7eVKW712tLf6Nm1phB9xtE8c3UB5Bvi5dzmG9H3Kt0lvL4gnLXgC1e+Br0nSiGXA1clSzOaL/dd2zfEX9jWekX/N+fdAbwKvoXoZ5BXi6OaDvcG3A1aZ/yO6Yf7S6FPmS4LmZwUMVf8xuvxP/eNHLktFdmmqqS8C6s4K2H7OJuU/CdgXTB+E/NvwLhqbyaza3g2fvAr+pmsn2mi48oz8LHcJkJQ/xeo66KtPQF15RvTDNPoVeB6Ra8Bs4XIM6fuWb1u9Uk9rLm8Am8BvJOl7JNuXWAZKIUhd3zr+Bp6Rfx34j4G7CF8A14AnES4TT64QR58znfyXHdh09uGGqJXm/4iFEEe3gBeBvUHrv1bVEiirpgKspDf//jAqP7CVbrpLF5qoFPq/XAz5t+E9yabNNc+4e6K8TP7qNVcxqg00VAF8viN/plpBDyc2sIDcxqaX74heiKMj4GOS9BvgI0Q3O+X/aZdvyEbVdNRVGyg3HL2I8jYir5Okb6L6FdOJ58TknsiT02IQzOPU8uDSLX6P78h/hviPQPZRdkH/BLkL/AHcQfkdYUY8Yf2xcPsdpnzHZaP9EEe/sLX9LMK3wOP92xdFf2l1zkak3Kc62NUoGNeqzdz3IqpfkqTXgU8ugB6o+ymD+sSpmPz7Zl/dZEUNfzcbqy/kauM4K3LgnrLMVvHda4Pcxvdc8TP8hCaMGcpOMdkRvDIt9G1sfPzov0u83/VHHO2ylb6KsAn6DiqXVlq+J/pmsON5qcvJ+h1/V/Q+Ii+TpDeyjdHDQXSGyk4Rg0kXIT8p2AW1SPwlm5F/6fzCMcIByBFwH5ED5vOJfYR7wAz4G5F/gD1U/0LYA+4xjc7onptBcATsoGysrHyF3cHu5rxiOklJ0heAz1Ae69W+XP9uJ/pk14UySg8Dhstx+3isL7wBevg/0TQWjLpPAMIAAAAASUVORK5CYII=;fontSize=9;" parent="1" vertex="1">
          <mxGeometry x="-6220" y="290.36" width="101.72" height="20" as="geometry" />
        </mxCell>
        <mxCell id="9MWK7dJc7GmQ7OKOMlYW-18" value="" style="shape=image;aspect=fixed;image=data:image/png,iVBORw0KGgoAAAANSUhEUgAAAT4AAAElCAYAAAB9KY5oAAAAGXRFWHRTb2Z0d2FyZQBBZG9iZSBJbWFnZVJlYWR5ccllPAAAJttJREFUeNrsnW2sZVV5x9dBAkOUzBgUA+HlMo0mJthA1Q8NJh5imlQjdrBfqpj2zhcwaYwMRvxg07m3aT9gFcY0TRi+zG2jTj/ZCb4lbc1cE7AflDJVEhMNeHgJVirlDgNBsfR2//fs57DOuuucs/c+e708e///yeHOXOblzDn7/PZ6nvV//ssYikqg3d3d9eIx5itBUdQQgDcuHo/uvq7TxWONrwxFUX0E3lrxOCG0e/HFF3cd3Vc8DvCVoiiqD8A7UDw2iscLQrhvfOMbu+PxePeWW27ZPX36tA0//Jo7+apRoTXiS0AFhN6h4st9xaMsZR955BHzpS99yfz0pz+d+XXvfve7zcbGhrniiivkW2eKx5HRaLTNV5Ei+CgtwLuhAt4YP//FL35hHnjgAVOs9Bb+vo997GPm9ttvN5deeql861QFwAlfVYrgo7Ita4svR4tHWa6eO3fOnDx5snzgx3UE6AF+gKClzeJxrADgDl9liuCjcoLenRX0yg2K7e1tc++995pnn3221Z/3jne8w3zmM58py+BKWPVtFvDb4qtNEXxUauChnD1hqj4e+nfo46Gf14XG43EJQKv/t10BcJuvPkXwUbGBB9Chj3dIylr08VDWhpCUv1b/b6sC4ITvBkXwUaGBh1JWytpSgB2gV7eP11aAHlZ/H/7wh+Vb6Pl9uYDfBt8ZiuCjQkFvvQJeWdainN3c3Gzdx2sr9P2wAnT6f9j9PcV3iSL4qK6At8eegj4eNjBS6pZbbikB6PT/AMAzfNcogo9apawF8LDSm9pTUNbmIpS/6P15+n9HaH+hCD6qKfQ2ii+fNpU95Zvf/GYJvNhlbV1deeWV5q677ip3gSsBetj8OMZ3kyL4qGXAAzmC2VNCC30/bIDAB1hpUjwO0/5CEXyUD3hrFfDGUtbCgLxszCxXof+HFaBV/m5XAJzw3aYIPgJvjz1F/Hih7SmhxfE3iuCjfNBbN+c3L8o+Xip7Smih/3f06FHb/gLoHeH4G8FHDQt44wp4sKmU9hTEQmnp47UV468ogm+YwFurSlqs9LK0p8QQ468ogm840Nswjj0Fu7Xa+3htNW/8zbD/R/BRvQDenhRkrPD6XtbWFeOvCD6qf2Xt1J5SNwV5qGL8FcFH6QbeTAoy1Bd7SgzNib/i+BvBR2UMvU5TkIcq2F8AQMZfEXxU3sBDOTs4e0poMf6K4KPyBN6aiZiCPFRx/I3go/IAnoyZTe0psVKQhyqJv8IK0BKSXzbZ/yP4qPDQq3VINxVGjL8i+Ki4wMsyBXmoYvwVwUeFL2v3pCDTnpKHOP5G8FHdQ4/2FAVi/BXBR3UDPJSzalOQhyrGXxF8VDvgrRnHnqI5BXmoYvwVwUfVA16yQ7qpcJoz/rbJ/h/BR+gNJAV5qGL8FcFHzQJvXK3w8JX2lJ5rTvwVx98IvkGVtVkf0k2FE8bfUAI78VcA4Bm+OgRfX6G3YRQd0k2FK3/R+2P8FcE3hLJ2ak9hCjIFMf6K4Osr8NZMjw7ppsKI428EX1+AxxRkqrEYf0XwaYbeuqE9hWopxl8RfNqANzZMQaY6EuOvCL7cYQf9mbHsKUxBproSx98IvhzBd0KABw39kG4qnBh/1a0u4EvQbqVXPH5uQw+wQ1lL6FEhhAriIx/5iF1JIMji5/CGVptpFFd8wYC3Zqz0FJ8YIUWF1pzxt03GXxF8XQNvT3rKc889V369/PLLy40M+fEb3vCGadnLqQwqpLDxAQA642+b7P8RfF1Ab91Y9pSXXnrJTCYT8+qrr5YXHB4AHx6A3lVXXWUuu+yyafnLOVwqtBh/RfB1CbyxsdJTALpnnnnG7Oy8bqVywSfCBYjvv+lNbyp/zuQVKrTmxV9x/I3ga1LWTtNTXnvttbKstcG2DHwirPywApTyl0dBUqGFvh9WgIy/IviaQA93x2l6yvPPP18CDas9n5aBDwL00Puz+jBMV6aCi/FXBF/dsnaanvLKK6+UZe0yMNUBn+iiiy4ya2tr0/KXRmcqRvnL8TeCzwe8NWOlp6CsBfCw0qujJuCzL8Zrr722BCHE0TYqtDj+RvAJ8Lz2FEAI8KurNuCzf69tf2GYARVajL8aMPgW2VOaahXwQa79BWJ8FRVajL8aEPh89pQnn3xyJcCsCj67/LXtLwwspUIL15z4/yxtmoGc/tZ78DWxp6QCn8i1v3D8jQot9P+OHj1q218AvSN9H3/rNfh89hRsXjTp48UEn5S/rv0FxmesANn/o0JpaPFXvQSfa09BHw9g6rpvFgJ8Ip/9Bb0/9v+okBpK/FWvwLeqPSUn8Il89hdsgLD/R4XSvPE306P+Xy/A57OnABDo5XVV1qYCn/13ufYXjr9RIdXn+Cv14OvSnpIz+CCf/YWpz1RozYm/Uj3+phZ8IewpuYPPLkVc+wvjr6jQ1xz6f574qyMay1914AtpT9ECPpFrf2H8FRVasL9g80N7/JUq8IW2p2gDn5S/rv2F429UaGmPv1IBvlj2FI3gE7n2F4jxV1RoaR1/yxp8se0pmsEnOnDgQFn+iv2F8VdUaGmMv8oSfKnsKX0An/3cbPsLx9+o0NIUf5Ud+FLaU/oEPil/8fxs+wvH36jQ0hB/lQ34crCn9A18dimC8veSSy6Zfo/xV1Ro5Tz+lhx8OdlT+go+kWt/YfwVFeOmm2P8VVLw5WZPqSuAQ3poIs3PHX0/rADZ/6NCKbf4qyTgy9WeUkfimZNVEw4mkhIS0JNNmNzls79g/A0AZP+PCqU542+bsft/UcGXuz1l2ZLd7pPZPchF/y93+ewvjL+iQkvKX2f8bTNW/y8K+Ko+HjYu7pTv5WhPmbcyAhgAiGWrOreHtrOzU4I9xx1pV679heNvVIzFRKr4q+Dg02RPsSWjYDYM6pzE5uuhaYK8a39h/BUVWnPir4KOvwUDX9XHA/Bu0F7+AdZPP/102c9rAhG7h4Z/PwCosayHGH9FhRbG31ACx4i/6hx8VR8PZe26lIZa7Cn4oF999dUzsEKpipI1JURTyWd/4fgbFfqmGyP+qlPwaban2AGfAusuy1O3h6bZ/oKbGA6mof2FCqXQ8VedgK8A3qGqrF2TVY1We0rIDQm3h6ZpNeyzvzD+igqtUONvK4FPuz3FPsQHpSeeewxY98n+AjH+igqtruOvWoGvb/aUVLB2e2hadrx9pTvH36gYC4au4q8ag0+7PcVOKq5jT4nxvPpkf2H8FRVaXYy/1QafZnsKPpj4gNo7q7nB2u2haZ5qKesQxl9RgQXwYZPNWsycqQC4vTL4fPYULfOo7mlkXdhTYjxnu/eoaaPILd0hxl9RodUm/mq0BHobpkf2FA27p6K+2V8AQPb/qJALhibxV6M5wNtjT9FiuvUBAx88DRsGfQL4PPsL46+okJoz/rbp9v9GnrJ2ak/RNmaltURsU7Jrtr9w/I0KrWXxVyOrpL3WVH08KU+07Cxq3RRoKq32F1/gg8RfYQVIUaE0J/7qyKgqa7HKU2dP0WoD6QIiudly6t6kbA+lvGeMv6JCV0zHjx+3pz92RpUZ+VFT9fNCzKly5cOVLuT2X20x/ooKIc+Rl8YudU+jLAY4pBeTo/VD86hXyNck1ehd2+cISAN+gBxWerYTn+NvVFfXnDvlIWnpe8D3s5/9bOrGzylGyTfcr8VLmGo1lcNu9rxVKZ7T29/+9nKVd8cdd+y5KzP+ilpFnly/6Yba6dOn/eDDRedrRqfykWn1s6VQLvYXXx/S7r/irmuDT+QmcTD+imoij5VlTwvlhz/84XzwLVppxfogaQ7wTK0Qgap1Vaf/Og989h3bTuJg/BW1rKx1zu6Yu2lWC3z2Hxyrt+b70GrxEuammDPKTbyGy8Anv8Z14nP8jXLljqstOyWwEfia3M1XKY+GaE9JUXZ2aX9pUxXUAZ/ITeJg/BUlbREnoKBWMEYr8IX6IMVMQR6qQuQQtu2/NgHfvAud8VfDlCeSqtG10Bp8iz5ITXda3RI6RytGH/shq9pffP3XJuOBbcAncp342K1DCcz+X/+vW589penu/8rgW+WD1AU0qdXkrrLr2F+6OjJzFfDJ77eb2cv6OpRueWLnW/s9OwNfk3K17SHdVBjVPV2u6/7rquATufYFxl/1S3hfscJz7Smr7PB3Dr5lHxCs7nIzRlPntcj+EqL/2hX4RG4SB8ff9Je1de0pWYBvXklkS0MK8lDl2l9ktEzet64sTF2Dz+4Buf0/xl/pktvD7TrFR8B3QYgnjw/J448/vmc1JzuJhF6eQq8O75uUrwI9vI8/+clPsgaINLpvu+22EngQVgwPPvigeyoXlaGwakeLwvbk4X3E+xkiuizIis9XHuEf04dU5L7K138F8GTHvcsNqBArvmX9IcZf5alV7SlZlLqLdnj7cA5GX7VoPDCE5SgG+EQcf8tTvsmcGOb0TsHXJBtO48lnfVWTmd4uNzligk/+PtcDxvirdPLZU2KNI3YCvlWmOHxzpNzljVfW1rGx+H6fvWvfNrQ2NvjssorxV+nkpu+kWIGvDL4u5nZzir8airpYua2a/pIKfPYHkONv8eRLQU4VOdYafCFO/OIkR5yeStdJzW2jw1KDT+Qme9QZcqeatxhC2lOCgy/G5gSj5btXiHCCVVftuYBPngvjr7qX53jHLHyVjcAXOwWZhwl1B6RYp7E1WbXnBD67HGP81eqqk4KcUrXAt2oKh6YPbp8UM4C0zao9R/DNW6ngOWIFyP5f85VzjrPTC8GX09GFQzowvIuLLxer0KJNlJzBJ2L8VX25vdKc2wVe8D3xxBPlhybHFGQNxyimLGtzNIfPC63Ae3fw4MGswSfXHOOv5qttCnJ24LN/Qa4pyExrnlWOx0rWWbXj+eYOvnl9q6GPv+VkT2kNvgJ6ePYnisfavJ5MjiucoZ/P4a6AY/Zf28rtGUOaJijc81qHFn/VVQpyTuA7Lf9DUwk5xBPZNPc8XVjbHx4tO6hDjb/yHdKtcezPLXV38fU3v/mNufjii9WVkCl3n7nKbQ5rXGff/e53y38LNjn2799ffl/TBMVQxt9yt6d0Ar5jx46ZD3zgA+Zd73qXyhJSQ7+rjbT6Gn2WpIcfftj84Ac/KOEnes973mPe9773TW+6miYo3PlTLb2uOivbUCnI2YHvnnvuKb95zTXXmJtuuqn8qq2E7FP8leZJFhfWTz31lPn2t79tzp496/31gB7gBwiKNE1Q9Cn+al4Kch92sxeCT4SVHwAopYimElJz/JXvkG4ts8surAE6AA/gqyOsEFF1yE1X0wFC2uOvNNpTgoBP7sTvfe97yzuxlCKaSkht8VexxwNDwRqlLC6yhx56qNWfh94fACg3XU0TFNrG32KnIKsAnwgXIC5EXJDaSkgN8Vdtk05yhPWPf/zjcvPC7uO1lZS/ctPVNEGRe/zVPHtKn2eUG4NPhBIEAJTdRW0lZG7xV5otOS6sUc4CeF2/noCevemWOtqoqXKMv+rykO5BgE+EixAXo9yJNa1Qctg00GxPcWGNPh52a7HSCyl3003TLmMu8Vc5pCCrBp/cidH/w8Uo0pSgnMomonXszgdrnz0ltNxNN02+Mt/4W4zNG/TxAN6+2VOSgE+EC/BDH/rQ9E6saRfS92EOFX8V4sSyWHJhjSQflLXz7Cmh5dt00zRBETP+KvQh3YMFn12KAIByJ9bkOws5CqY5Wt+FNZ4zgFfXnhJa7qabtgkKX/xVV/DONQW5d+ATuU58TQnKXcZfaQ5TdWGNUhbWFLlwcpO76aZpgsItQ1ddkfnsKQxUjQA+KUVcJ76mBOVV+3Baj8/0wVr8eDH7eG3lbrppatwDVABg2/irVId0E3xzAGI78TWlibQ5f3bVoxdTyoV1KHtKaPk23foef6UpBXkQ4BO5Tvy+xV9pnhH22VMAPGxgaJa76aYx/mrZ+NvQ7SnZg0/kOvH7EH8FcNhlsZaRPhfWq46Z5Sp3060P8Vff+9731KYgDxJ8Uor0Kf5KpGkV6xszgycvlT0lhvoUf2Wrr1mAvQOffSfWGn9l73pqTkHOzZ4S46bbp/irodtTVIJPpDX+So5JxPPNfWpgXgpy6DGzXKU5/ur48ePlClDLYU05gu/CHJ4MPnwAhzjx8eEEUDSNv+WquinIQxNWuljlyaYbXh943+Clo9+t/7owlyciBllAUJz4aLqjlNSaoJxaTVOQhyjsXOMh5S9WUlhRsYQk+KIKH8qvf/3rM058CbjU4ofLoQRfJQV5iJKbLlouaL1g5ff+979/sDOtfdcFuT4xfEhPnDhRfmCxGkSP6uDBg+WulnygqVnhNcLGBVbLeI3wuqGsvf/++wm9mjddXG+AHV4vmYRA38+2jVBc8QWX3f/D3Rj9v3e+852qxt9iKGQK8tAE6OEhm254bb/4xS8O7gBxgi+x7P6fOPHxIUf5qyXlJJRipSAPUe5NF/2/r33ta4NIKh5UqSt2kpxLETnmDj+WyYPrr79+ZkZxCEIpi7If5T+gZ5dphF73N120C2SED6NkDz744EwYAJW/bEbMgO/w4cPl7paGUgQXopRy+OCjrwUQyMqnrxLYo9wXTx76eOiHDtWTF+umi003ubHIgdvo/9nxT1SeQo8Wq/VKOzMGZvtN1jKknnL8LbaBObcU5CErZfwVDcz15Ub9Vzo20+P773s/Zd58291m/9uuNh/96EdV9Iuw4kOJB0e2OPGl0a9ljKwOYHNOQR6ipP9n+/9Q/jIKKp/PDIAn4a7/9/JZ87+/fNpcdPD6cm03U+qe+9d/Ms/8+c3mha/+bfkLARGUv9hQkDtbrhInPsoR6f/B2oGSUGv/Tyw8tj0FwENZS+jlcdPF+2HbhWB/AQAxU0ulkfRgBXov//t3Sq7hq2jPri6A98JXvlBA8KS57I6/MW/8/Q+Wy3osGXOOHhe5TnwAA+DQFH+lPQV5aJJNNzv+CuNv+ABqib/qg9wD3F994jHz/PG/MK/86OE9v3aunQXLwl/+1Z+aS373pgKAf20uLpaIKCUBEw1TAK4TH7YPrPyWJSinVl9SkIco2XST+CssFtCP0xR/pVFuZiEWbwAeKth5WurjAy2xTLz0D/6kBCDuZriTaZj7FIvHY489No2/kvG33OKv+pqCPERhdS4z57jp4gOJ1YhYsdj/60a+lOqzp44XFev5Vt0i1TYwg54vf/87Zv+td5g33/bZEiKf/OQnVZRgrhMf8Eb/TwCY8kIcSgry0OTbdMMHFL0/LfFXOcs9l+TXxQLtuXs/VVaqddRocsPu/11+19+ZfUUZjGU9gKIh2803/pYy/mqIKchDE+OvupV7Eh1A9/zxz89sXHQOPhH+smc/d6js/721AODFb7u6bOoCgrnbLHKIvxp6CvIQxfir1T8zrj3l7KkHyoVYG600q4v+31Prv2f2HyrK3098tly9oObWYKxNEX/FFGSK8VfNJWcFiy0NbbcXvvqF2mVt5+CbQuTU8fLJYPMDmyBYRQEo6G/knvQr8Ve2Ex/euS4PAGcKMuXedN1NN+n/NTlAfAhlrW1PQR8PHmOfPSUJ+GTpickPQPAtBQDR/8ObigABfMi19P+kFOkq/oopyNSimy7jr/YK9hT0QaWPV8eekgx8IpgG0f+D8RkG6P1V/08AmHv/D6UnVqqrxl8xBZlqetNtGn/Vt40Rnz0FK7yz/3x8qT0lOfhE2GXB482fuNvsP3R7CRE8NARk+pz4gBgg+OSTTy5sRKOPJ71CgSntKVSdm6676QYIyO5v38/MdY/NbGpPyQZ8U2JX9heEH6D/J+NvGmDgOvHR/5M0lslksufXMwWZ6uKm6266YTfz4x//eNnv6tsqzz0oHaBDy6yLPt4izcRSPfHBtwb9y2B/gfkZ/T95kzXHX2HnFzYYmf/lmBnVtXzxV1gVARRYCWrdCUYfDyVtV/aUOkL1Cf4U2owaPQ+K44GVXx/irwA9G3gAuYaNHEqPfPFX2uWzp2Dzous+3iIlOWXNjr+CJP7KvrPlKjf+ygYjPXlUqJsuri3tfT7MLGNUD+AD9H5d5QCgtI0JPSjZYUO++CsZf9MSf4WVKnbi8LwBbKxe2dejQrRZZMdXo9wUZPTxYEDu0p6iBnwizfFX9k6cOPE1bd5Q+cvt8eHzsG/fvnLTI3fJucT2oUyh7CnqwCeS+CsZf5P4Ky3jb64TX8zbjJai2kiuIXyVa0yuJQ2nu4kfT/p4sLYhTCCUPUUt+KYQqcbfSvgVEIR9BA8NI16++CstmzdUPmWt7R7Q5gNNZU9RDz5IRlQAQYm/Akgk/UVb/JVs3jA+nlok2bmVslZTv9iXgoxAUHyGc9SFOb+YfYu/0rR5Q8Uta2VCSCqH3Mc7RTJmZttT6qYgE3xLJPFXMv4m8Vcagjt9TnxNZ5dQ4QTQyUy43Cw1WaJ8Kci/Kio1zOvnrgs1XSiwv2BHSOKv7B1UbfFXms4uoboVSlkpa0WaYsp89pQ2KcgEXwP1Lf5Kzi5hPt8w5LOnaLnxzUtBzsGe0nvwiRbFX2kYf3PjrzRt3lDNZbc6pAWiqdXh2lO6SEEm+FYQltev/Oj75elvEn+FHVSt8VdaNm+oesJ7KuZ2uelp2txqckg3wZeg/O1T/JWms0sov2TMrE/2lK5TkAm+jiRmyZf+7Z+m42/S/9NQVrgHUWs6u4R6XXKUpG1P0WJgX+WQboIvsWT8DSs/AFDTDqov/krT5s2QJVYle8xM03sWOwWZ4AskLMtf/v53yv4fAghlB1XDBIV7ELX0/zScXTLEsta2p8iYmZZVeleHdBN8GakP8Vf2QdSazi4ZguxjCeT90tKX7fqQboIvQ9nxVzL+Jr00DTuojL/KS649BSt0TTvxOaQgE3wRJeNvEn+laQeV8VfphZaDzF5LWavJnoJdWqzyQhzSTfApUF/ir6T/x/irsPKlIGtK24lxSDfBp0SMv6LqyM5XlBuPJntKrinIBF9iSfyVjL9dbI2/5b6DyvircPLZUzS1FIZkTyH4VhC27/GQ+Ct7B5XxV8Mqa5mCTPANTovirzSMvyH+SmwWms4uyUGuPUXDTU/kO6Q75xRkgi9DSfwVxt9gfrbjrzSUOzL+Jv4/TZs3KeSmIGuyp/hSkIdmTyH4OhbKAzyw8kMAAuKvtOygMv5qubSnIPvsKVpSkFNqhP/sFsLXJz74Vr4iC3TBG/dP46/wYymFtExQaF7VdC3N9hSs7PBenjt3brrCy+GQ7tyF3j2qt0KbBF+bZXKx6pPxN1klaNpB9Z3mpaWP1YU0pyC7z11zCjLBp1QYf8MGyEUHry9/rilVd97OZZ/7f75DurW8X+6IHJTbId0E38Ak8VdS/mpaQWiPUqojXwqyFnuK+9xlpxY9vN/+8ilCj+BLK+n/VS9sKU07qJrDM5uW9Rp6sr4EZ+7UEnzZCv0/GX+T1YWWXULtcenLQK4lx9B97typJfjUSOKvAEJI0w6q9tLQtqdoKt3dtgN3agk+tZL4K+n/aZqg8G0G5Gre1nxIt/vcuVNL8PVCgJ6Mv9krKC39v9ztH+7z03RzcUfkuFNL8PVOsL28pQCg9P80lWE5Gn41H9Ltmsn7cl6tGvAVzDtQ/OAF/AyzqewnhJfEX0n/T1PjPYcEYs0pyO5zZ5BAHDme2+mK79Hiyw2888S/A2kef4u92tK86+xbMffxvNrc5LaZCu0Uj1tH8rMCfhvFl08XD6wAy5UfdpTYawgrrPoQfuD2/7Rkv8U6ZUyzz9BNcKY9Jc3CotBW8TgyGo12RvYvrMre+4rHuizDubsUbyku8VeygtKS9htyR1VzCrLPntL382pz+SzZVrJC22V5OxptyzdGvt9YAPCGCoBjvmFxpXn8rcuIJ82HdLtz0EM6rzZ19WQPD1RlLVZ4W+6vHS36gwoAYuV3tHiscYkety/hjr9pOkBo1fgrzYd0uyNybBnF+bzIaYmWNovHMZS1vt8zWvaHVuXvncbp/3FmMM4dbEjxV5rzAmlPyaNCqsrawwXwJot+36juX1AAcK1a/a1z+R6/Z9Hn+Cvt9hS7vB/6ebWpPhOFJhXwtuv8/lHTv7AA4Nic7/+V9hee4BTxQ6Z4/G1e/JXMBWsr6X32FJ5XG6cKsl0Q5nwfDxsXx5r8OaO2T6Dq/90n5S/P7EzXz9AcfyXSnILMaz/Ode8e+2Ase0rTP2+0ypOx+n9H5Xs0Zca782mOv5L+H573t771LRX2FDe0gdVOHLmTTuZ8Hw/AO9P2zxx18cSq/h9Wf4ekz8ExnHi9Do3xV4AHDs3B8zx58mTeLQZPCjL72+Hlzrab8328TZ89JQn4LACOiy8nTGV/4c5WPPnG33I+QEgL+Hz2FDoawpe1TjsHpeyXzQJ7SlLwWQCU8rfs/zFqJ94FoyX+Knfw+VKQsXnBm3jg1bWzgVfoVFXWTrr8e0ah/gFV/w/wu1O+x12vNCVCjmNeuYLPtacwBTmOPPaUMxXwtkP8faPQ/yDf+BsvpDjCyg9b/3b8VS6D/bmBzzdvzBt1eLkmfdPSnpId+CwAHqoAuMbSIW7569oAcohyygl8TEFOd13aY5mFjlXQ2wn9949i/4MZf5XuzppT/FUO4HMzBWlPSVOJmA7sKdmDr4KfN/6K9oD4vZRU428pwccU5DSaY08B8E7Ffi6jlC9EZX/BBshY7riMv4p3100Zf5UCfDykO11Z60lB/nIBvI1Uz2mUwwvD+Kt8+iyxZmVjg4+HdKeRx56yZc738SYpn9colxeI8VfplCL+Khb4mIKcrqXipCAHtaeoBZ8FQKz6OP6WwcUacvwtNPjmpSDTnhL+Jlo3BZng8wNwbBh/lUV5EiL+KiT4aE/Jo21iItpTegM+C4DrhvFXSS7kkPFXIcDHFOQ0apuCTPAthx/H3xLJN/4GAK4af9Ul+Hz2FKYgx2mN2CcDmoYpyARffQCumfPpL2Ne4HHlZqIBWABg2/5fF+DjId1pNCcFOak9pdfgswA4Noy/SqKu4q9WBZ/vkG62QOK//2aFFGSCrz0AGX+VQPPir5qMv7UFny8FmfaU+Ct+4zmkm+CLCz/v+Bv7f+Hl9niaxF81BR8P6U5X1jr2lInpKAWZ4OsGgIy/SqQ28VdNwMdDutOs6pse0k3wpQUg468SfVCaxF/VAZ9rT+F7Ge9G5thTgqQgE3xhALhhOP6WpDSqM/62CHw8pDtd62KVQ7oJvnzgh1UfNj/W5QPEvlCaD5Ebf+UDH1OQ87hZmUgpyARfeACODeOvsiibJP4KqzobfDykO4/2hFFqTyH4FgMQKz+OvyX4gLmNcuz8YtICK0GUw0xBjqsQh3QTfHnDT+Kvjsr36PaPV1I51oip2IaIo5xSkAm+NABcM4y/SiI3/oobT0lW3Z0f0k3w6QLg2DD+Kgn8rrjnVNluePZzh/iCBFSsQ7pV3QiGflFgq7543IgLAXdBrELwgXzbX/6j3f+gKJU3l2u2/sPeXEL/7ubier91yNAj+GYBiK3768z58MSy+YuLBkPZ1p2SorIXbti4ceMGXt28JQX5xj568gi+1eG3UzyOVAAsLxDMol7zD4/YETwUleeHuezj3V3esC1PXnlD77Mnj+DrDoCT4nEzyoLiMcEFhWb8VX9/uiwfKCo34caM69OKft+ugHdkiJsXBN9qAET/D6s/DGfvwAqA8sE5PYqikgk34itnr8lJ8UAP7+ah9/EIvtUBuFGVv1szd1f2/6iEZS1ghxtx5cmTMbPrhubJI/jCwg/9v8PFD7EDvF32U4qyAgC0+ikUFVxlH2+274wb8o2aot8JPn0APFP1/wDBieygodywUi0oKkhZWzoNbpt68rbNeXvKYZa1BF8sAG5Vq7+y/4dyA6s/lB8sf6kuhZsrbqyOPeVw1cfb5itE8KUofzcqAAKEZfmBMgTlCEWt9OG07CnWbC1utNdpj34n+PoBwEnV/0MJfEb6f7hgaX+h2mh6A91rT9mgPYXgyw2AMv4GCE7H3658vUShqIW6ZG/LZGLO9/FoTyH4sgcgyhDx/5VlijMzSVEzwo1R7CnVJpltT9nmK0TwaYHfjuX/K31VSMng+BvlCn08rPIce8p1tKcQfJoBiP7frYbjb5SjaRDGrD3lxsqewj4ewdcLAMr4Wxl/JeNvjL8aZll75ex7PzGv21PO8BUi+PoIQMZfDfXDVry/6PN67Ck30p5C8A0BfhJ/daOx4q+cPg/VI0l/14p+R9+X9hSCb5AAlPE39AAnsrOHMoj9v35I7CnWjj7KWqYgE3wU0jTs+Kt91XkUjL/SKzsF2bKnHKE9heCj9gJww8yJv6KUfKCqMTMntYcpyAQftQR+O9b427Y9/sb4q7xlpyA79hSmIBN8VE0AbjP+SofwfixIQaY9heCjWgAQZa/EX5l9e5vlVMKyVszodgpytcpjCjLBR3VQ/m4Yz/ibZY+gIsozfrhVAY/2FIKP6hiA9vjbGdsQS/tLHC04pJspyAQfFRiAjL+KrDmHdB/mId0EHxUfgFvGGn+T+CuOv3X4AVl8SPcWXyGCj0oDPxl/AwDLlUdpf2H81cpakIJMewrBR2UCwEllf2H81YqyD+m2xsx4SDfBR2UMQMZfrVDW8pBugo/SDUCJv9rCz9GfkvE39v/2as4h3UxBJvgohfCT8bcy/krG3xh/NVvWLjikm308go9SDMC58VdDHX/jId0EHzUcAJ4yr4+/7ezbe5Rh/y/4+SnItKcQfFTPy9+NCoDlB31q2+h5/JX8O60xv23DFGSCjxoUACdDib/iId0UwUe5ALTjr3bs+Cvt9pc5h3QzBZki+KgpAFH2Svz9dPxNY/yVnYLssacwBZki+KgZ+KmPv5r6FXlIN0XwUQ0BqC7+SlKQeUg3RfBRqwJQ4q/K8TeJv8pp/E2gPCcFeYvvIkXwUW0BKONvx6SczCH+as4h3UxBpgg+qjP4ZRN/5TmkW1KQeUg3RfBRQQA4scffJNEE/bXQ/b8Fh3QzBZki+KgoADxVxV9Nx9+umD1isbuLdHEKMu0pFMFHRQfghrHir6aHanfU/7MP6a6ElR0P6aYIPio5/ObGX7Udf+Mh3RTBR2kB4Blr/G1ij7/Vjb+ad0g3U5Apispeu7u7B4rHRvF4YbfSi/9ycvfnf/w7u4//4Vt2n737j8rvvfKfD5U/x+NX939+97WXdnYtnSgea3w1KYrSBsC1CmClALb/+coXZsCHH//2v56ygfdo8Rjz1aMoSjsAxxXQpgD0CKvDdb5aFEX1DYDrdvlr6T6Ux3yFqBj6fwEGAHt3v5rAnKizAAAAAElFTkSuQmCC;fontSize=9;" parent="1" vertex="1">
          <mxGeometry x="-6322" y="296.43" width="30.24" height="27.86" as="geometry" />
        </mxCell>
        <mxCell id="9MWK7dJc7GmQ7OKOMlYW-19" value="" style="shape=image;aspect=fixed;image=data:image/png,iVBORw0KGgoAAAANSUhEUgAAAT4AAAElCAYAAAB9KY5oAAAAGXRFWHRTb2Z0d2FyZQBBZG9iZSBJbWFnZVJlYWR5ccllPAAAJttJREFUeNrsnW2sZVV5x9dBAkOUzBgUA+HlMo0mJthA1Q8NJh5imlQjdrBfqpj2zhcwaYwMRvxg07m3aT9gFcY0TRi+zG2jTj/ZCb4lbc1cE7AflDJVEhMNeHgJVirlDgNBsfR2//fs57DOuuucs/c+e708e///yeHOXOblzDn7/PZ6nvV//ssYikqg3d3d9eIx5itBUdQQgDcuHo/uvq7TxWONrwxFUX0E3lrxOCG0e/HFF3cd3Vc8DvCVoiiqD8A7UDw2iscLQrhvfOMbu+PxePeWW27ZPX36tA0//Jo7+apRoTXiS0AFhN6h4st9xaMsZR955BHzpS99yfz0pz+d+XXvfve7zcbGhrniiivkW2eKx5HRaLTNV5Ei+CgtwLuhAt4YP//FL35hHnjgAVOs9Bb+vo997GPm9ttvN5deeql861QFwAlfVYrgo7Ita4svR4tHWa6eO3fOnDx5snzgx3UE6AF+gKClzeJxrADgDl9liuCjcoLenRX0yg2K7e1tc++995pnn3221Z/3jne8w3zmM58py+BKWPVtFvDb4qtNEXxUauChnD1hqj4e+nfo46Gf14XG43EJQKv/t10BcJuvPkXwUbGBB9Chj3dIylr08VDWhpCUv1b/b6sC4ITvBkXwUaGBh1JWytpSgB2gV7eP11aAHlZ/H/7wh+Vb6Pl9uYDfBt8ZiuCjQkFvvQJeWdainN3c3Gzdx2sr9P2wAnT6f9j9PcV3iSL4qK6At8eegj4eNjBS6pZbbikB6PT/AMAzfNcogo9apawF8LDSm9pTUNbmIpS/6P15+n9HaH+hCD6qKfQ2ii+fNpU95Zvf/GYJvNhlbV1deeWV5q677ip3gSsBetj8OMZ3kyL4qGXAAzmC2VNCC30/bIDAB1hpUjwO0/5CEXyUD3hrFfDGUtbCgLxszCxXof+HFaBV/m5XAJzw3aYIPgJvjz1F/Hih7SmhxfE3iuCjfNBbN+c3L8o+Xip7Smih/3f06FHb/gLoHeH4G8FHDQt44wp4sKmU9hTEQmnp47UV468ogm+YwFurSlqs9LK0p8QQ468ogm840Nswjj0Fu7Xa+3htNW/8zbD/R/BRvQDenhRkrPD6XtbWFeOvCD6qf2Xt1J5SNwV5qGL8FcFH6QbeTAoy1Bd7SgzNib/i+BvBR2UMvU5TkIcq2F8AQMZfEXxU3sBDOTs4e0poMf6K4KPyBN6aiZiCPFRx/I3go/IAnoyZTe0psVKQhyqJv8IK0BKSXzbZ/yP4qPDQq3VINxVGjL8i+Ki4wMsyBXmoYvwVwUeFL2v3pCDTnpKHOP5G8FHdQ4/2FAVi/BXBR3UDPJSzalOQhyrGXxF8VDvgrRnHnqI5BXmoYvwVwUfVA16yQ7qpcJoz/rbJ/h/BR+gNJAV5qGL8FcFHzQJvXK3w8JX2lJ5rTvwVx98IvkGVtVkf0k2FE8bfUAI78VcA4Bm+OgRfX6G3YRQd0k2FK3/R+2P8FcE3hLJ2ak9hCjIFMf6K4Osr8NZMjw7ppsKI428EX1+AxxRkqrEYf0XwaYbeuqE9hWopxl8RfNqANzZMQaY6EuOvCL7cYQf9mbHsKUxBproSx98IvhzBd0KABw39kG4qnBh/1a0u4EvQbqVXPH5uQw+wQ1lL6FEhhAriIx/5iF1JIMji5/CGVptpFFd8wYC3Zqz0FJ8YIUWF1pzxt03GXxF8XQNvT3rKc889V369/PLLy40M+fEb3vCGadnLqQwqpLDxAQA642+b7P8RfF1Ab91Y9pSXXnrJTCYT8+qrr5YXHB4AHx6A3lVXXWUuu+yyafnLOVwqtBh/RfB1CbyxsdJTALpnnnnG7Oy8bqVywSfCBYjvv+lNbyp/zuQVKrTmxV9x/I3ga1LWTtNTXnvttbKstcG2DHwirPywApTyl0dBUqGFvh9WgIy/IviaQA93x2l6yvPPP18CDas9n5aBDwL00Puz+jBMV6aCi/FXBF/dsnaanvLKK6+UZe0yMNUBn+iiiy4ya2tr0/KXRmcqRvnL8TeCzwe8NWOlp6CsBfCw0qujJuCzL8Zrr722BCHE0TYqtDj+RvAJ8Lz2FEAI8KurNuCzf69tf2GYARVajL8aMPgW2VOaahXwQa79BWJ8FRVajL8aEPh89pQnn3xyJcCsCj67/LXtLwwspUIL15z4/yxtmoGc/tZ78DWxp6QCn8i1v3D8jQot9P+OHj1q218AvSN9H3/rNfh89hRsXjTp48UEn5S/rv0FxmesANn/o0JpaPFXvQSfa09BHw9g6rpvFgJ8Ip/9Bb0/9v+okBpK/FWvwLeqPSUn8Il89hdsgLD/R4XSvPE306P+Xy/A57OnABDo5XVV1qYCn/13ufYXjr9RIdXn+Cv14OvSnpIz+CCf/YWpz1RozYm/Uj3+phZ8IewpuYPPLkVc+wvjr6jQ1xz6f574qyMay1914AtpT9ECPpFrf2H8FRVasL9g80N7/JUq8IW2p2gDn5S/rv2F429UaGmPv1IBvlj2FI3gE7n2F4jxV1RoaR1/yxp8se0pmsEnOnDgQFn+iv2F8VdUaGmMv8oSfKnsKX0An/3cbPsLx9+o0NIUf5Ud+FLaU/oEPil/8fxs+wvH36jQ0hB/lQ34crCn9A18dimC8veSSy6Zfo/xV1Ro5Tz+lhx8OdlT+go+kWt/YfwVFeOmm2P8VVLw5WZPqSuAQ3poIs3PHX0/rADZ/6NCKbf4qyTgy9WeUkfimZNVEw4mkhIS0JNNmNzls79g/A0AZP+PCqU542+bsft/UcGXuz1l2ZLd7pPZPchF/y93+ewvjL+iQkvKX2f8bTNW/y8K+Ko+HjYu7pTv5WhPmbcyAhgAiGWrOreHtrOzU4I9xx1pV679heNvVIzFRKr4q+Dg02RPsSWjYDYM6pzE5uuhaYK8a39h/BUVWnPir4KOvwUDX9XHA/Bu0F7+AdZPP/102c9rAhG7h4Z/PwCosayHGH9FhRbG31ACx4i/6hx8VR8PZe26lIZa7Cn4oF999dUzsEKpipI1JURTyWd/4fgbFfqmGyP+qlPwaban2AGfAusuy1O3h6bZ/oKbGA6mof2FCqXQ8VedgK8A3qGqrF2TVY1We0rIDQm3h6ZpNeyzvzD+igqtUONvK4FPuz3FPsQHpSeeewxY98n+AjH+igqtruOvWoGvb/aUVLB2e2hadrx9pTvH36gYC4au4q8ag0+7PcVOKq5jT4nxvPpkf2H8FRVaXYy/1QafZnsKPpj4gNo7q7nB2u2haZ5qKesQxl9RgQXwYZPNWsycqQC4vTL4fPYULfOo7mlkXdhTYjxnu/eoaaPILd0hxl9RodUm/mq0BHobpkf2FA27p6K+2V8AQPb/qJALhibxV6M5wNtjT9FiuvUBAx88DRsGfQL4PPsL46+okJoz/rbp9v9GnrJ2ak/RNmaltURsU7Jrtr9w/I0KrWXxVyOrpL3WVH08KU+07Cxq3RRoKq32F1/gg8RfYQVIUaE0J/7qyKgqa7HKU2dP0WoD6QIiudly6t6kbA+lvGeMv6JCV0zHjx+3pz92RpUZ+VFT9fNCzKly5cOVLuT2X20x/ooKIc+Rl8YudU+jLAY4pBeTo/VD86hXyNck1ehd2+cISAN+gBxWerYTn+NvVFfXnDvlIWnpe8D3s5/9bOrGzylGyTfcr8VLmGo1lcNu9rxVKZ7T29/+9nKVd8cdd+y5KzP+ilpFnly/6Yba6dOn/eDDRedrRqfykWn1s6VQLvYXXx/S7r/irmuDT+QmcTD+imoij5VlTwvlhz/84XzwLVppxfogaQ7wTK0Qgap1Vaf/Og989h3bTuJg/BW1rKx1zu6Yu2lWC3z2Hxyrt+b70GrxEuammDPKTbyGy8Anv8Z14nP8jXLljqstOyWwEfia3M1XKY+GaE9JUXZ2aX9pUxXUAZ/ITeJg/BUlbREnoKBWMEYr8IX6IMVMQR6qQuQQtu2/NgHfvAud8VfDlCeSqtG10Bp8iz5ITXda3RI6RytGH/shq9pffP3XJuOBbcAncp342K1DCcz+X/+vW589penu/8rgW+WD1AU0qdXkrrLr2F+6OjJzFfDJ77eb2cv6OpRueWLnW/s9OwNfk3K17SHdVBjVPV2u6/7rquATufYFxl/1S3hfscJz7Smr7PB3Dr5lHxCs7nIzRlPntcj+EqL/2hX4RG4SB8ff9Je1de0pWYBvXklkS0MK8lDl2l9ktEzet64sTF2Dz+4Buf0/xl/pktvD7TrFR8B3QYgnjw/J448/vmc1JzuJhF6eQq8O75uUrwI9vI8/+clPsgaINLpvu+22EngQVgwPPvigeyoXlaGwakeLwvbk4X3E+xkiuizIis9XHuEf04dU5L7K138F8GTHvcsNqBArvmX9IcZf5alV7SlZlLqLdnj7cA5GX7VoPDCE5SgG+EQcf8tTvsmcGOb0TsHXJBtO48lnfVWTmd4uNzligk/+PtcDxvirdPLZU2KNI3YCvlWmOHxzpNzljVfW1rGx+H6fvWvfNrQ2NvjssorxV+nkpu+kWIGvDL4u5nZzir8airpYua2a/pIKfPYHkONv8eRLQU4VOdYafCFO/OIkR5yeStdJzW2jw1KDT+Qme9QZcqeatxhC2lOCgy/G5gSj5btXiHCCVVftuYBPngvjr7qX53jHLHyVjcAXOwWZhwl1B6RYp7E1WbXnBD67HGP81eqqk4KcUrXAt2oKh6YPbp8UM4C0zao9R/DNW6ngOWIFyP5f85VzjrPTC8GX09GFQzowvIuLLxer0KJNlJzBJ2L8VX25vdKc2wVe8D3xxBPlhybHFGQNxyimLGtzNIfPC63Ae3fw4MGswSfXHOOv5qttCnJ24LN/Qa4pyExrnlWOx0rWWbXj+eYOvnl9q6GPv+VkT2kNvgJ6ePYnisfavJ5MjiucoZ/P4a6AY/Zf28rtGUOaJijc81qHFn/VVQpyTuA7Lf9DUwk5xBPZNPc8XVjbHx4tO6hDjb/yHdKtcezPLXV38fU3v/mNufjii9WVkCl3n7nKbQ5rXGff/e53y38LNjn2799ffl/TBMVQxt9yt6d0Ar5jx46ZD3zgA+Zd73qXyhJSQ7+rjbT6Gn2WpIcfftj84Ac/KOEnes973mPe9773TW+6miYo3PlTLb2uOivbUCnI2YHvnnvuKb95zTXXmJtuuqn8qq2E7FP8leZJFhfWTz31lPn2t79tzp496/31gB7gBwiKNE1Q9Cn+al4Kch92sxeCT4SVHwAopYimElJz/JXvkG4ts8surAE6AA/gqyOsEFF1yE1X0wFC2uOvNNpTgoBP7sTvfe97yzuxlCKaSkht8VexxwNDwRqlLC6yhx56qNWfh94fACg3XU0TFNrG32KnIKsAnwgXIC5EXJDaSkgN8Vdtk05yhPWPf/zjcvPC7uO1lZS/ctPVNEGRe/zVPHtKn2eUG4NPhBIEAJTdRW0lZG7xV5otOS6sUc4CeF2/noCevemWOtqoqXKMv+rykO5BgE+EixAXo9yJNa1Qctg00GxPcWGNPh52a7HSCyl3003TLmMu8Vc5pCCrBp/cidH/w8Uo0pSgnMomonXszgdrnz0ltNxNN02+Mt/4W4zNG/TxAN6+2VOSgE+EC/BDH/rQ9E6saRfS92EOFX8V4sSyWHJhjSQflLXz7Cmh5dt00zRBETP+KvQh3YMFn12KAIByJ9bkOws5CqY5Wt+FNZ4zgFfXnhJa7qabtgkKX/xVV/DONQW5d+ATuU58TQnKXcZfaQ5TdWGNUhbWFLlwcpO76aZpgsItQ1ddkfnsKQxUjQA+KUVcJ76mBOVV+3Baj8/0wVr8eDH7eG3lbrppatwDVABg2/irVId0E3xzAGI78TWlibQ5f3bVoxdTyoV1KHtKaPk23foef6UpBXkQ4BO5Tvy+xV9pnhH22VMAPGxgaJa76aYx/mrZ+NvQ7SnZg0/kOvH7EH8FcNhlsZaRPhfWq46Z5Sp3060P8Vff+9731KYgDxJ8Uor0Kf5KpGkV6xszgycvlT0lhvoUf2Wrr1mAvQOffSfWGn9l73pqTkHOzZ4S46bbp/irodtTVIJPpDX+So5JxPPNfWpgXgpy6DGzXKU5/ur48ePlClDLYU05gu/CHJ4MPnwAhzjx8eEEUDSNv+WquinIQxNWuljlyaYbXh943+Clo9+t/7owlyciBllAUJz4aLqjlNSaoJxaTVOQhyjsXOMh5S9WUlhRsYQk+KIKH8qvf/3rM058CbjU4ofLoQRfJQV5iJKbLlouaL1g5ff+979/sDOtfdcFuT4xfEhPnDhRfmCxGkSP6uDBg+WulnygqVnhNcLGBVbLeI3wuqGsvf/++wm9mjddXG+AHV4vmYRA38+2jVBc8QWX3f/D3Rj9v3e+852qxt9iKGQK8tAE6OEhm254bb/4xS8O7gBxgi+x7P6fOPHxIUf5qyXlJJRipSAPUe5NF/2/r33ta4NIKh5UqSt2kpxLETnmDj+WyYPrr79+ZkZxCEIpi7If5T+gZ5dphF73N120C2SED6NkDz744EwYAJW/bEbMgO/w4cPl7paGUgQXopRy+OCjrwUQyMqnrxLYo9wXTx76eOiHDtWTF+umi003ubHIgdvo/9nxT1SeQo8Wq/VKOzMGZvtN1jKknnL8LbaBObcU5CErZfwVDcz15Ub9Vzo20+P773s/Zd58291m/9uuNh/96EdV9Iuw4kOJB0e2OPGl0a9ljKwOYHNOQR6ipP9n+/9Q/jIKKp/PDIAn4a7/9/JZ87+/fNpcdPD6cm03U+qe+9d/Ms/8+c3mha/+bfkLARGUv9hQkDtbrhInPsoR6f/B2oGSUGv/Tyw8tj0FwENZS+jlcdPF+2HbhWB/AQAxU0ulkfRgBXov//t3Sq7hq2jPri6A98JXvlBA8KS57I6/MW/8/Q+Wy3osGXOOHhe5TnwAA+DQFH+lPQV5aJJNNzv+CuNv+ABqib/qg9wD3F994jHz/PG/MK/86OE9v3aunQXLwl/+1Z+aS373pgKAf20uLpaIKCUBEw1TAK4TH7YPrPyWJSinVl9SkIco2XST+CssFtCP0xR/pVFuZiEWbwAeKth5WurjAy2xTLz0D/6kBCDuZriTaZj7FIvHY489No2/kvG33OKv+pqCPERhdS4z57jp4gOJ1YhYsdj/60a+lOqzp44XFev5Vt0i1TYwg54vf/87Zv+td5g33/bZEiKf/OQnVZRgrhMf8Eb/TwCY8kIcSgry0OTbdMMHFL0/LfFXOcs9l+TXxQLtuXs/VVaqddRocsPu/11+19+ZfUUZjGU9gKIh2803/pYy/mqIKchDE+OvupV7Eh1A9/zxz89sXHQOPhH+smc/d6js/721AODFb7u6bOoCgrnbLHKIvxp6CvIQxfir1T8zrj3l7KkHyoVYG600q4v+31Prv2f2HyrK3098tly9oObWYKxNEX/FFGSK8VfNJWcFiy0NbbcXvvqF2mVt5+CbQuTU8fLJYPMDmyBYRQEo6G/knvQr8Ve2Ex/euS4PAGcKMuXedN1NN+n/NTlAfAhlrW1PQR8PHmOfPSUJ+GTpickPQPAtBQDR/8ObigABfMi19P+kFOkq/oopyNSimy7jr/YK9hT0QaWPV8eekgx8IpgG0f+D8RkG6P1V/08AmHv/D6UnVqqrxl8xBZlqetNtGn/Vt40Rnz0FK7yz/3x8qT0lOfhE2GXB482fuNvsP3R7CRE8NARk+pz4gBgg+OSTTy5sRKOPJ71CgSntKVSdm6676QYIyO5v38/MdY/NbGpPyQZ8U2JX9heEH6D/J+NvGmDgOvHR/5M0lslksufXMwWZ6uKm6266YTfz4x//eNnv6tsqzz0oHaBDy6yLPt4izcRSPfHBtwb9y2B/gfkZ/T95kzXHX2HnFzYYmf/lmBnVtXzxV1gVARRYCWrdCUYfDyVtV/aUOkL1Cf4U2owaPQ+K44GVXx/irwA9G3gAuYaNHEqPfPFX2uWzp2Dzous+3iIlOWXNjr+CJP7KvrPlKjf+ygYjPXlUqJsuri3tfT7MLGNUD+AD9H5d5QCgtI0JPSjZYUO++CsZf9MSf4WVKnbi8LwBbKxe2dejQrRZZMdXo9wUZPTxYEDu0p6iBnwizfFX9k6cOPE1bd5Q+cvt8eHzsG/fvnLTI3fJucT2oUyh7CnqwCeS+CsZf5P4Ky3jb64TX8zbjJai2kiuIXyVa0yuJQ2nu4kfT/p4sLYhTCCUPUUt+KYQqcbfSvgVEIR9BA8NI16++CstmzdUPmWt7R7Q5gNNZU9RDz5IRlQAQYm/Akgk/UVb/JVs3jA+nlok2bmVslZTv9iXgoxAUHyGc9SFOb+YfYu/0rR5Q8Uta2VCSCqH3Mc7RTJmZttT6qYgE3xLJPFXMv4m8Vcagjt9TnxNZ5dQ4QTQyUy43Cw1WaJ8Kci/Kio1zOvnrgs1XSiwv2BHSOKv7B1UbfFXms4uoboVSlkpa0WaYsp89pQ2KcgEXwP1Lf5Kzi5hPt8w5LOnaLnxzUtBzsGe0nvwiRbFX2kYf3PjrzRt3lDNZbc6pAWiqdXh2lO6SEEm+FYQltev/Oj75elvEn+FHVSt8VdaNm+oesJ7KuZ2uelp2txqckg3wZeg/O1T/JWms0sov2TMrE/2lK5TkAm+jiRmyZf+7Z+m42/S/9NQVrgHUWs6u4R6XXKUpG1P0WJgX+WQboIvsWT8DSs/AFDTDqov/krT5s2QJVYle8xM03sWOwWZ4AskLMtf/v53yv4fAghlB1XDBIV7ELX0/zScXTLEsta2p8iYmZZVeleHdBN8GakP8Vf2QdSazi4ZguxjCeT90tKX7fqQboIvQ9nxVzL+Jr00DTuojL/KS649BSt0TTvxOaQgE3wRJeNvEn+laQeV8VfphZaDzF5LWavJnoJdWqzyQhzSTfApUF/ir6T/x/irsPKlIGtK24lxSDfBp0SMv6LqyM5XlBuPJntKrinIBF9iSfyVjL9dbI2/5b6DyvircPLZUzS1FIZkTyH4VhC27/GQ+Ct7B5XxV8Mqa5mCTPANTovirzSMvyH+SmwWms4uyUGuPUXDTU/kO6Q75xRkgi9DSfwVxt9gfrbjrzSUOzL+Jv4/TZs3KeSmIGuyp/hSkIdmTyH4OhbKAzyw8kMAAuKvtOygMv5qubSnIPvsKVpSkFNqhP/sFsLXJz74Vr4iC3TBG/dP46/wYymFtExQaF7VdC3N9hSs7PBenjt3brrCy+GQ7tyF3j2qt0KbBF+bZXKx6pPxN1klaNpB9Z3mpaWP1YU0pyC7z11zCjLBp1QYf8MGyEUHry9/rilVd97OZZ/7f75DurW8X+6IHJTbId0E38Ak8VdS/mpaQWiPUqojXwqyFnuK+9xlpxY9vN/+8ilCj+BLK+n/VS9sKU07qJrDM5uW9Rp6sr4EZ+7UEnzZCv0/GX+T1YWWXULtcenLQK4lx9B97typJfjUSOKvAEJI0w6q9tLQtqdoKt3dtgN3agk+tZL4K+n/aZqg8G0G5Gre1nxIt/vcuVNL8PVCgJ6Mv9krKC39v9ztH+7z03RzcUfkuFNL8PVOsL28pQCg9P80lWE5Gn41H9Ltmsn7cl6tGvAVzDtQ/OAF/AyzqewnhJfEX0n/T1PjPYcEYs0pyO5zZ5BAHDme2+mK79Hiyw2888S/A2kef4u92tK86+xbMffxvNrc5LaZCu0Uj1tH8rMCfhvFl08XD6wAy5UfdpTYawgrrPoQfuD2/7Rkv8U6ZUyzz9BNcKY9Jc3CotBW8TgyGo12RvYvrMre+4rHuizDubsUbyku8VeygtKS9htyR1VzCrLPntL382pz+SzZVrJC22V5OxptyzdGvt9YAPCGCoBjvmFxpXn8rcuIJ82HdLtz0EM6rzZ19WQPD1RlLVZ4W+6vHS36gwoAYuV3tHiscYkety/hjr9pOkBo1fgrzYd0uyNybBnF+bzIaYmWNovHMZS1vt8zWvaHVuXvncbp/3FmMM4dbEjxV5rzAmlPyaNCqsrawwXwJot+36juX1AAcK1a/a1z+R6/Z9Hn+Cvt9hS7vB/6ebWpPhOFJhXwtuv8/lHTv7AA4Nic7/+V9hee4BTxQ6Z4/G1e/JXMBWsr6X32FJ5XG6cKsl0Q5nwfDxsXx5r8OaO2T6Dq/90n5S/P7EzXz9AcfyXSnILMaz/Ode8e+2Ase0rTP2+0ypOx+n9H5Xs0Zca782mOv5L+H573t771LRX2FDe0gdVOHLmTTuZ8Hw/AO9P2zxx18cSq/h9Wf4ekz8ExnHi9Do3xV4AHDs3B8zx58mTeLQZPCjL72+Hlzrab8328TZ89JQn4LACOiy8nTGV/4c5WPPnG33I+QEgL+Hz2FDoawpe1TjsHpeyXzQJ7SlLwWQCU8rfs/zFqJ94FoyX+Knfw+VKQsXnBm3jg1bWzgVfoVFXWTrr8e0ah/gFV/w/wu1O+x12vNCVCjmNeuYLPtacwBTmOPPaUMxXwtkP8faPQ/yDf+BsvpDjCyg9b/3b8VS6D/bmBzzdvzBt1eLkmfdPSnpId+CwAHqoAuMbSIW7569oAcohyygl8TEFOd13aY5mFjlXQ2wn9949i/4MZf5XuzppT/FUO4HMzBWlPSVOJmA7sKdmDr4KfN/6K9oD4vZRU428pwccU5DSaY08B8E7Ffi6jlC9EZX/BBshY7riMv4p3100Zf5UCfDykO11Z60lB/nIBvI1Uz2mUwwvD+Kt8+iyxZmVjg4+HdKeRx56yZc738SYpn9colxeI8VfplCL+Khb4mIKcrqXipCAHtaeoBZ8FQKz6OP6WwcUacvwtNPjmpSDTnhL+Jlo3BZng8wNwbBh/lUV5EiL+KiT4aE/Jo21iItpTegM+C4DrhvFXSS7kkPFXIcDHFOQ0apuCTPAthx/H3xLJN/4GAK4af9Ul+Hz2FKYgx2mN2CcDmoYpyARffQCumfPpL2Ne4HHlZqIBWABg2/5fF+DjId1pNCcFOak9pdfgswA4Noy/SqKu4q9WBZ/vkG62QOK//2aFFGSCrz0AGX+VQPPir5qMv7UFny8FmfaU+Ct+4zmkm+CLCz/v+Bv7f+Hl9niaxF81BR8P6U5X1jr2lInpKAWZ4OsGgIy/SqQ28VdNwMdDutOs6pse0k3wpQUg468SfVCaxF/VAZ9rT+F7Ge9G5thTgqQgE3xhALhhOP6WpDSqM/62CHw8pDtd62KVQ7oJvnzgh1UfNj/W5QPEvlCaD5Ebf+UDH1OQ87hZmUgpyARfeACODeOvsiibJP4KqzobfDykO4/2hFFqTyH4FgMQKz+OvyX4gLmNcuz8YtICK0GUw0xBjqsQh3QTfHnDT+Kvjsr36PaPV1I51oip2IaIo5xSkAm+NABcM4y/SiI3/oobT0lW3Z0f0k3w6QLg2DD+Kgn8rrjnVNluePZzh/iCBFSsQ7pV3QiGflFgq7543IgLAXdBrELwgXzbX/6j3f+gKJU3l2u2/sPeXEL/7ubier91yNAj+GYBiK3768z58MSy+YuLBkPZ1p2SorIXbti4ceMGXt28JQX5xj568gi+1eG3UzyOVAAsLxDMol7zD4/YETwUleeHuezj3V3esC1PXnlD77Mnj+DrDoCT4nEzyoLiMcEFhWb8VX9/uiwfKCo34caM69OKft+ugHdkiJsXBN9qAET/D6s/DGfvwAqA8sE5PYqikgk34itnr8lJ8UAP7+ah9/EIvtUBuFGVv1szd1f2/6iEZS1ghxtx5cmTMbPrhubJI/jCwg/9v8PFD7EDvF32U4qyAgC0+ikUFVxlH2+274wb8o2aot8JPn0APFP1/wDBieygodywUi0oKkhZWzoNbpt68rbNeXvKYZa1BF8sAG5Vq7+y/4dyA6s/lB8sf6kuhZsrbqyOPeVw1cfb5itE8KUofzcqAAKEZfmBMgTlCEWt9OG07CnWbC1utNdpj34n+PoBwEnV/0MJfEb6f7hgaX+h2mh6A91rT9mgPYXgyw2AMv4GCE7H3658vUShqIW6ZG/LZGLO9/FoTyH4sgcgyhDx/5VlijMzSVEzwo1R7CnVJpltT9nmK0TwaYHfjuX/K31VSMng+BvlCn08rPIce8p1tKcQfJoBiP7frYbjb5SjaRDGrD3lxsqewj4ewdcLAMr4Wxl/JeNvjL8aZll75ex7PzGv21PO8BUi+PoIQMZfDfXDVry/6PN67Ck30p5C8A0BfhJ/daOx4q+cPg/VI0l/14p+R9+X9hSCb5AAlPE39AAnsrOHMoj9v35I7CnWjj7KWqYgE3wU0jTs+Kt91XkUjL/SKzsF2bKnHKE9heCj9gJww8yJv6KUfKCqMTMntYcpyAQftQR+O9b427Y9/sb4q7xlpyA79hSmIBN8VE0AbjP+SofwfixIQaY9heCjWgAQZa/EX5l9e5vlVMKyVszodgpytcpjCjLBR3VQ/m4Yz/ibZY+gIsozfrhVAY/2FIKP6hiA9vjbGdsQS/tLHC04pJspyAQfFRiAjL+KrDmHdB/mId0EHxUfgFvGGn+T+CuOv3X4AVl8SPcWXyGCj0oDPxl/AwDLlUdpf2H81cpakIJMewrBR2UCwEllf2H81YqyD+m2xsx4SDfBR2UMQMZfrVDW8pBugo/SDUCJv9rCz9GfkvE39v/2as4h3UxBJvgohfCT8bcy/krG3xh/NVvWLjikm308go9SDMC58VdDHX/jId0EHzUcAJ4yr4+/7ezbe5Rh/y/4+SnItKcQfFTPy9+NCoDlB31q2+h5/JX8O60xv23DFGSCjxoUACdDib/iId0UwUe5ALTjr3bs+Cvt9pc5h3QzBZki+KgpAFH2Svz9dPxNY/yVnYLssacwBZki+KgZ+KmPv5r6FXlIN0XwUQ0BqC7+SlKQeUg3RfBRqwJQ4q/K8TeJv8pp/E2gPCcFeYvvIkXwUW0BKONvx6SczCH+as4h3UxBpgg+qjP4ZRN/5TmkW1KQeUg3RfBRQQA4scffJNEE/bXQ/b8Fh3QzBZki+KgoADxVxV9Nx9+umD1isbuLdHEKMu0pFMFHRQfghrHir6aHanfU/7MP6a6ElR0P6aYIPio5/ObGX7Udf+Mh3RTBR2kB4Blr/G1ij7/Vjb+ad0g3U5Apispeu7u7B4rHRvF4YbfSi/9ycvfnf/w7u4//4Vt2n737j8rvvfKfD5U/x+NX939+97WXdnYtnSgea3w1KYrSBsC1CmClALb/+coXZsCHH//2v56ygfdo8Rjz1aMoSjsAxxXQpgD0CKvDdb5aFEX1DYDrdvlr6T6Ux3yFqBj6fwEGAHt3v5rAnKizAAAAAElFTkSuQmCC;fontSize=9;" parent="1" vertex="1">
          <mxGeometry x="-5814.17" y="127.15" width="32.56" height="30" as="geometry" />
        </mxCell>
        <mxCell id="9MWK7dJc7GmQ7OKOMlYW-20" value="" style="shape=image;aspect=fixed;image=data:image/png,iVBORw0KGgoAAAANSUhEUgAAAT4AAAElCAYAAAB9KY5oAAAAGXRFWHRTb2Z0d2FyZQBBZG9iZSBJbWFnZVJlYWR5ccllPAAAJttJREFUeNrsnW2sZVV5x9dBAkOUzBgUA+HlMo0mJthA1Q8NJh5imlQjdrBfqpj2zhcwaYwMRvxg07m3aT9gFcY0TRi+zG2jTj/ZCb4lbc1cE7AflDJVEhMNeHgJVirlDgNBsfR2//fs57DOuuucs/c+e708e///yeHOXOblzDn7/PZ6nvV//ssYikqg3d3d9eIx5itBUdQQgDcuHo/uvq7TxWONrwxFUX0E3lrxOCG0e/HFF3cd3Vc8DvCVoiiqD8A7UDw2iscLQrhvfOMbu+PxePeWW27ZPX36tA0//Jo7+apRoTXiS0AFhN6h4st9xaMsZR955BHzpS99yfz0pz+d+XXvfve7zcbGhrniiivkW2eKx5HRaLTNV5Ei+CgtwLuhAt4YP//FL35hHnjgAVOs9Bb+vo997GPm9ttvN5deeql861QFwAlfVYrgo7Ita4svR4tHWa6eO3fOnDx5snzgx3UE6AF+gKClzeJxrADgDl9liuCjcoLenRX0yg2K7e1tc++995pnn3221Z/3jne8w3zmM58py+BKWPVtFvDb4qtNEXxUauChnD1hqj4e+nfo46Gf14XG43EJQKv/t10BcJuvPkXwUbGBB9Chj3dIylr08VDWhpCUv1b/b6sC4ITvBkXwUaGBh1JWytpSgB2gV7eP11aAHlZ/H/7wh+Vb6Pl9uYDfBt8ZiuCjQkFvvQJeWdainN3c3Gzdx2sr9P2wAnT6f9j9PcV3iSL4qK6At8eegj4eNjBS6pZbbikB6PT/AMAzfNcogo9apawF8LDSm9pTUNbmIpS/6P15+n9HaH+hCD6qKfQ2ii+fNpU95Zvf/GYJvNhlbV1deeWV5q677ip3gSsBetj8OMZ3kyL4qGXAAzmC2VNCC30/bIDAB1hpUjwO0/5CEXyUD3hrFfDGUtbCgLxszCxXof+HFaBV/m5XAJzw3aYIPgJvjz1F/Hih7SmhxfE3iuCjfNBbN+c3L8o+Xip7Smih/3f06FHb/gLoHeH4G8FHDQt44wp4sKmU9hTEQmnp47UV468ogm+YwFurSlqs9LK0p8QQ468ogm840Nswjj0Fu7Xa+3htNW/8zbD/R/BRvQDenhRkrPD6XtbWFeOvCD6qf2Xt1J5SNwV5qGL8FcFH6QbeTAoy1Bd7SgzNib/i+BvBR2UMvU5TkIcq2F8AQMZfEXxU3sBDOTs4e0poMf6K4KPyBN6aiZiCPFRx/I3go/IAnoyZTe0psVKQhyqJv8IK0BKSXzbZ/yP4qPDQq3VINxVGjL8i+Ki4wMsyBXmoYvwVwUeFL2v3pCDTnpKHOP5G8FHdQ4/2FAVi/BXBR3UDPJSzalOQhyrGXxF8VDvgrRnHnqI5BXmoYvwVwUfVA16yQ7qpcJoz/rbJ/h/BR+gNJAV5qGL8FcFHzQJvXK3w8JX2lJ5rTvwVx98IvkGVtVkf0k2FE8bfUAI78VcA4Bm+OgRfX6G3YRQd0k2FK3/R+2P8FcE3hLJ2ak9hCjIFMf6K4Osr8NZMjw7ppsKI428EX1+AxxRkqrEYf0XwaYbeuqE9hWopxl8RfNqANzZMQaY6EuOvCL7cYQf9mbHsKUxBproSx98IvhzBd0KABw39kG4qnBh/1a0u4EvQbqVXPH5uQw+wQ1lL6FEhhAriIx/5iF1JIMji5/CGVptpFFd8wYC3Zqz0FJ8YIUWF1pzxt03GXxF8XQNvT3rKc889V369/PLLy40M+fEb3vCGadnLqQwqpLDxAQA642+b7P8RfF1Ab91Y9pSXXnrJTCYT8+qrr5YXHB4AHx6A3lVXXWUuu+yyafnLOVwqtBh/RfB1CbyxsdJTALpnnnnG7Oy8bqVywSfCBYjvv+lNbyp/zuQVKrTmxV9x/I3ga1LWTtNTXnvttbKstcG2DHwirPywApTyl0dBUqGFvh9WgIy/IviaQA93x2l6yvPPP18CDas9n5aBDwL00Puz+jBMV6aCi/FXBF/dsnaanvLKK6+UZe0yMNUBn+iiiy4ya2tr0/KXRmcqRvnL8TeCzwe8NWOlp6CsBfCw0qujJuCzL8Zrr722BCHE0TYqtDj+RvAJ8Lz2FEAI8KurNuCzf69tf2GYARVajL8aMPgW2VOaahXwQa79BWJ8FRVajL8aEPh89pQnn3xyJcCsCj67/LXtLwwspUIL15z4/yxtmoGc/tZ78DWxp6QCn8i1v3D8jQot9P+OHj1q218AvSN9H3/rNfh89hRsXjTp48UEn5S/rv0FxmesANn/o0JpaPFXvQSfa09BHw9g6rpvFgJ8Ip/9Bb0/9v+okBpK/FWvwLeqPSUn8Il89hdsgLD/R4XSvPE306P+Xy/A57OnABDo5XVV1qYCn/13ufYXjr9RIdXn+Cv14OvSnpIz+CCf/YWpz1RozYm/Uj3+phZ8IewpuYPPLkVc+wvjr6jQ1xz6f574qyMay1914AtpT9ECPpFrf2H8FRVasL9g80N7/JUq8IW2p2gDn5S/rv2F429UaGmPv1IBvlj2FI3gE7n2F4jxV1RoaR1/yxp8se0pmsEnOnDgQFn+iv2F8VdUaGmMv8oSfKnsKX0An/3cbPsLx9+o0NIUf5Ud+FLaU/oEPil/8fxs+wvH36jQ0hB/lQ34crCn9A18dimC8veSSy6Zfo/xV1Ro5Tz+lhx8OdlT+go+kWt/YfwVFeOmm2P8VVLw5WZPqSuAQ3poIs3PHX0/rADZ/6NCKbf4qyTgy9WeUkfimZNVEw4mkhIS0JNNmNzls79g/A0AZP+PCqU542+bsft/UcGXuz1l2ZLd7pPZPchF/y93+ewvjL+iQkvKX2f8bTNW/y8K+Ko+HjYu7pTv5WhPmbcyAhgAiGWrOreHtrOzU4I9xx1pV679heNvVIzFRKr4q+Dg02RPsSWjYDYM6pzE5uuhaYK8a39h/BUVWnPir4KOvwUDX9XHA/Bu0F7+AdZPP/102c9rAhG7h4Z/PwCosayHGH9FhRbG31ACx4i/6hx8VR8PZe26lIZa7Cn4oF999dUzsEKpipI1JURTyWd/4fgbFfqmGyP+qlPwaban2AGfAusuy1O3h6bZ/oKbGA6mof2FCqXQ8VedgK8A3qGqrF2TVY1We0rIDQm3h6ZpNeyzvzD+igqtUONvK4FPuz3FPsQHpSeeewxY98n+AjH+igqtruOvWoGvb/aUVLB2e2hadrx9pTvH36gYC4au4q8ag0+7PcVOKq5jT4nxvPpkf2H8FRVaXYy/1QafZnsKPpj4gNo7q7nB2u2haZ5qKesQxl9RgQXwYZPNWsycqQC4vTL4fPYULfOo7mlkXdhTYjxnu/eoaaPILd0hxl9RodUm/mq0BHobpkf2FA27p6K+2V8AQPb/qJALhibxV6M5wNtjT9FiuvUBAx88DRsGfQL4PPsL46+okJoz/rbp9v9GnrJ2ak/RNmaltURsU7Jrtr9w/I0KrWXxVyOrpL3WVH08KU+07Cxq3RRoKq32F1/gg8RfYQVIUaE0J/7qyKgqa7HKU2dP0WoD6QIiudly6t6kbA+lvGeMv6JCV0zHjx+3pz92RpUZ+VFT9fNCzKly5cOVLuT2X20x/ooKIc+Rl8YudU+jLAY4pBeTo/VD86hXyNck1ehd2+cISAN+gBxWerYTn+NvVFfXnDvlIWnpe8D3s5/9bOrGzylGyTfcr8VLmGo1lcNu9rxVKZ7T29/+9nKVd8cdd+y5KzP+ilpFnly/6Yba6dOn/eDDRedrRqfykWn1s6VQLvYXXx/S7r/irmuDT+QmcTD+imoij5VlTwvlhz/84XzwLVppxfogaQ7wTK0Qgap1Vaf/Og989h3bTuJg/BW1rKx1zu6Yu2lWC3z2Hxyrt+b70GrxEuammDPKTbyGy8Anv8Z14nP8jXLljqstOyWwEfia3M1XKY+GaE9JUXZ2aX9pUxXUAZ/ITeJg/BUlbREnoKBWMEYr8IX6IMVMQR6qQuQQtu2/NgHfvAud8VfDlCeSqtG10Bp8iz5ITXda3RI6RytGH/shq9pffP3XJuOBbcAncp342K1DCcz+X/+vW589penu/8rgW+WD1AU0qdXkrrLr2F+6OjJzFfDJ77eb2cv6OpRueWLnW/s9OwNfk3K17SHdVBjVPV2u6/7rquATufYFxl/1S3hfscJz7Smr7PB3Dr5lHxCs7nIzRlPntcj+EqL/2hX4RG4SB8ff9Je1de0pWYBvXklkS0MK8lDl2l9ktEzet64sTF2Dz+4Buf0/xl/pktvD7TrFR8B3QYgnjw/J448/vmc1JzuJhF6eQq8O75uUrwI9vI8/+clPsgaINLpvu+22EngQVgwPPvigeyoXlaGwakeLwvbk4X3E+xkiuizIis9XHuEf04dU5L7K138F8GTHvcsNqBArvmX9IcZf5alV7SlZlLqLdnj7cA5GX7VoPDCE5SgG+EQcf8tTvsmcGOb0TsHXJBtO48lnfVWTmd4uNzligk/+PtcDxvirdPLZU2KNI3YCvlWmOHxzpNzljVfW1rGx+H6fvWvfNrQ2NvjssorxV+nkpu+kWIGvDL4u5nZzir8airpYua2a/pIKfPYHkONv8eRLQU4VOdYafCFO/OIkR5yeStdJzW2jw1KDT+Qme9QZcqeatxhC2lOCgy/G5gSj5btXiHCCVVftuYBPngvjr7qX53jHLHyVjcAXOwWZhwl1B6RYp7E1WbXnBD67HGP81eqqk4KcUrXAt2oKh6YPbp8UM4C0zao9R/DNW6ngOWIFyP5f85VzjrPTC8GX09GFQzowvIuLLxer0KJNlJzBJ2L8VX25vdKc2wVe8D3xxBPlhybHFGQNxyimLGtzNIfPC63Ae3fw4MGswSfXHOOv5qttCnJ24LN/Qa4pyExrnlWOx0rWWbXj+eYOvnl9q6GPv+VkT2kNvgJ6ePYnisfavJ5MjiucoZ/P4a6AY/Zf28rtGUOaJijc81qHFn/VVQpyTuA7Lf9DUwk5xBPZNPc8XVjbHx4tO6hDjb/yHdKtcezPLXV38fU3v/mNufjii9WVkCl3n7nKbQ5rXGff/e53y38LNjn2799ffl/TBMVQxt9yt6d0Ar5jx46ZD3zgA+Zd73qXyhJSQ7+rjbT6Gn2WpIcfftj84Ac/KOEnes973mPe9773TW+6miYo3PlTLb2uOivbUCnI2YHvnnvuKb95zTXXmJtuuqn8qq2E7FP8leZJFhfWTz31lPn2t79tzp496/31gB7gBwiKNE1Q9Cn+al4Kch92sxeCT4SVHwAopYimElJz/JXvkG4ts8surAE6AA/gqyOsEFF1yE1X0wFC2uOvNNpTgoBP7sTvfe97yzuxlCKaSkht8VexxwNDwRqlLC6yhx56qNWfh94fACg3XU0TFNrG32KnIKsAnwgXIC5EXJDaSkgN8Vdtk05yhPWPf/zjcvPC7uO1lZS/ctPVNEGRe/zVPHtKn2eUG4NPhBIEAJTdRW0lZG7xV5otOS6sUc4CeF2/noCevemWOtqoqXKMv+rykO5BgE+EixAXo9yJNa1Qctg00GxPcWGNPh52a7HSCyl3003TLmMu8Vc5pCCrBp/cidH/w8Uo0pSgnMomonXszgdrnz0ltNxNN02+Mt/4W4zNG/TxAN6+2VOSgE+EC/BDH/rQ9E6saRfS92EOFX8V4sSyWHJhjSQflLXz7Cmh5dt00zRBETP+KvQh3YMFn12KAIByJ9bkOws5CqY5Wt+FNZ4zgFfXnhJa7qabtgkKX/xVV/DONQW5d+ATuU58TQnKXcZfaQ5TdWGNUhbWFLlwcpO76aZpgsItQ1ddkfnsKQxUjQA+KUVcJ76mBOVV+3Baj8/0wVr8eDH7eG3lbrppatwDVABg2/irVId0E3xzAGI78TWlibQ5f3bVoxdTyoV1KHtKaPk23foef6UpBXkQ4BO5Tvy+xV9pnhH22VMAPGxgaJa76aYx/mrZ+NvQ7SnZg0/kOvH7EH8FcNhlsZaRPhfWq46Z5Sp3060P8Vff+9731KYgDxJ8Uor0Kf5KpGkV6xszgycvlT0lhvoUf2Wrr1mAvQOffSfWGn9l73pqTkHOzZ4S46bbp/irodtTVIJPpDX+So5JxPPNfWpgXgpy6DGzXKU5/ur48ePlClDLYU05gu/CHJ4MPnwAhzjx8eEEUDSNv+WquinIQxNWuljlyaYbXh943+Clo9+t/7owlyciBllAUJz4aLqjlNSaoJxaTVOQhyjsXOMh5S9WUlhRsYQk+KIKH8qvf/3rM058CbjU4ofLoQRfJQV5iJKbLlouaL1g5ff+979/sDOtfdcFuT4xfEhPnDhRfmCxGkSP6uDBg+WulnygqVnhNcLGBVbLeI3wuqGsvf/++wm9mjddXG+AHV4vmYRA38+2jVBc8QWX3f/D3Rj9v3e+852qxt9iKGQK8tAE6OEhm254bb/4xS8O7gBxgi+x7P6fOPHxIUf5qyXlJJRipSAPUe5NF/2/r33ta4NIKh5UqSt2kpxLETnmDj+WyYPrr79+ZkZxCEIpi7If5T+gZ5dphF73N120C2SED6NkDz744EwYAJW/bEbMgO/w4cPl7paGUgQXopRy+OCjrwUQyMqnrxLYo9wXTx76eOiHDtWTF+umi003ubHIgdvo/9nxT1SeQo8Wq/VKOzMGZvtN1jKknnL8LbaBObcU5CErZfwVDcz15Ub9Vzo20+P773s/Zd58291m/9uuNh/96EdV9Iuw4kOJB0e2OPGl0a9ljKwOYHNOQR6ipP9n+/9Q/jIKKp/PDIAn4a7/9/JZ87+/fNpcdPD6cm03U+qe+9d/Ms/8+c3mha/+bfkLARGUv9hQkDtbrhInPsoR6f/B2oGSUGv/Tyw8tj0FwENZS+jlcdPF+2HbhWB/AQAxU0ulkfRgBXov//t3Sq7hq2jPri6A98JXvlBA8KS57I6/MW/8/Q+Wy3osGXOOHhe5TnwAA+DQFH+lPQV5aJJNNzv+CuNv+ABqib/qg9wD3F994jHz/PG/MK/86OE9v3aunQXLwl/+1Z+aS373pgKAf20uLpaIKCUBEw1TAK4TH7YPrPyWJSinVl9SkIco2XST+CssFtCP0xR/pVFuZiEWbwAeKth5WurjAy2xTLz0D/6kBCDuZriTaZj7FIvHY489No2/kvG33OKv+pqCPERhdS4z57jp4gOJ1YhYsdj/60a+lOqzp44XFev5Vt0i1TYwg54vf/87Zv+td5g33/bZEiKf/OQnVZRgrhMf8Eb/TwCY8kIcSgry0OTbdMMHFL0/LfFXOcs9l+TXxQLtuXs/VVaqddRocsPu/11+19+ZfUUZjGU9gKIh2803/pYy/mqIKchDE+OvupV7Eh1A9/zxz89sXHQOPhH+smc/d6js/721AODFb7u6bOoCgrnbLHKIvxp6CvIQxfir1T8zrj3l7KkHyoVYG600q4v+31Prv2f2HyrK3098tly9oObWYKxNEX/FFGSK8VfNJWcFiy0NbbcXvvqF2mVt5+CbQuTU8fLJYPMDmyBYRQEo6G/knvQr8Ve2Ex/euS4PAGcKMuXedN1NN+n/NTlAfAhlrW1PQR8PHmOfPSUJ+GTpickPQPAtBQDR/8ObigABfMi19P+kFOkq/oopyNSimy7jr/YK9hT0QaWPV8eekgx8IpgG0f+D8RkG6P1V/08AmHv/D6UnVqqrxl8xBZlqetNtGn/Vt40Rnz0FK7yz/3x8qT0lOfhE2GXB482fuNvsP3R7CRE8NARk+pz4gBgg+OSTTy5sRKOPJ71CgSntKVSdm6676QYIyO5v38/MdY/NbGpPyQZ8U2JX9heEH6D/J+NvGmDgOvHR/5M0lslksufXMwWZ6uKm6266YTfz4x//eNnv6tsqzz0oHaBDy6yLPt4izcRSPfHBtwb9y2B/gfkZ/T95kzXHX2HnFzYYmf/lmBnVtXzxV1gVARRYCWrdCUYfDyVtV/aUOkL1Cf4U2owaPQ+K44GVXx/irwA9G3gAuYaNHEqPfPFX2uWzp2Dzous+3iIlOWXNjr+CJP7KvrPlKjf+ygYjPXlUqJsuri3tfT7MLGNUD+AD9H5d5QCgtI0JPSjZYUO++CsZf9MSf4WVKnbi8LwBbKxe2dejQrRZZMdXo9wUZPTxYEDu0p6iBnwizfFX9k6cOPE1bd5Q+cvt8eHzsG/fvnLTI3fJucT2oUyh7CnqwCeS+CsZf5P4Ky3jb64TX8zbjJai2kiuIXyVa0yuJQ2nu4kfT/p4sLYhTCCUPUUt+KYQqcbfSvgVEIR9BA8NI16++CstmzdUPmWt7R7Q5gNNZU9RDz5IRlQAQYm/Akgk/UVb/JVs3jA+nlok2bmVslZTv9iXgoxAUHyGc9SFOb+YfYu/0rR5Q8Uta2VCSCqH3Mc7RTJmZttT6qYgE3xLJPFXMv4m8Vcagjt9TnxNZ5dQ4QTQyUy43Cw1WaJ8Kci/Kio1zOvnrgs1XSiwv2BHSOKv7B1UbfFXms4uoboVSlkpa0WaYsp89pQ2KcgEXwP1Lf5Kzi5hPt8w5LOnaLnxzUtBzsGe0nvwiRbFX2kYf3PjrzRt3lDNZbc6pAWiqdXh2lO6SEEm+FYQltev/Oj75elvEn+FHVSt8VdaNm+oesJ7KuZ2uelp2txqckg3wZeg/O1T/JWms0sov2TMrE/2lK5TkAm+jiRmyZf+7Z+m42/S/9NQVrgHUWs6u4R6XXKUpG1P0WJgX+WQboIvsWT8DSs/AFDTDqov/krT5s2QJVYle8xM03sWOwWZ4AskLMtf/v53yv4fAghlB1XDBIV7ELX0/zScXTLEsta2p8iYmZZVeleHdBN8GakP8Vf2QdSazi4ZguxjCeT90tKX7fqQboIvQ9nxVzL+Jr00DTuojL/KS649BSt0TTvxOaQgE3wRJeNvEn+laQeV8VfphZaDzF5LWavJnoJdWqzyQhzSTfApUF/ir6T/x/irsPKlIGtK24lxSDfBp0SMv6LqyM5XlBuPJntKrinIBF9iSfyVjL9dbI2/5b6DyvircPLZUzS1FIZkTyH4VhC27/GQ+Ct7B5XxV8Mqa5mCTPANTovirzSMvyH+SmwWms4uyUGuPUXDTU/kO6Q75xRkgi9DSfwVxt9gfrbjrzSUOzL+Jv4/TZs3KeSmIGuyp/hSkIdmTyH4OhbKAzyw8kMAAuKvtOygMv5qubSnIPvsKVpSkFNqhP/sFsLXJz74Vr4iC3TBG/dP46/wYymFtExQaF7VdC3N9hSs7PBenjt3brrCy+GQ7tyF3j2qt0KbBF+bZXKx6pPxN1klaNpB9Z3mpaWP1YU0pyC7z11zCjLBp1QYf8MGyEUHry9/rilVd97OZZ/7f75DurW8X+6IHJTbId0E38Ak8VdS/mpaQWiPUqojXwqyFnuK+9xlpxY9vN/+8ilCj+BLK+n/VS9sKU07qJrDM5uW9Rp6sr4EZ+7UEnzZCv0/GX+T1YWWXULtcenLQK4lx9B97typJfjUSOKvAEJI0w6q9tLQtqdoKt3dtgN3agk+tZL4K+n/aZqg8G0G5Gre1nxIt/vcuVNL8PVCgJ6Mv9krKC39v9ztH+7z03RzcUfkuFNL8PVOsL28pQCg9P80lWE5Gn41H9Ltmsn7cl6tGvAVzDtQ/OAF/AyzqewnhJfEX0n/T1PjPYcEYs0pyO5zZ5BAHDme2+mK79Hiyw2888S/A2kef4u92tK86+xbMffxvNrc5LaZCu0Uj1tH8rMCfhvFl08XD6wAy5UfdpTYawgrrPoQfuD2/7Rkv8U6ZUyzz9BNcKY9Jc3CotBW8TgyGo12RvYvrMre+4rHuizDubsUbyku8VeygtKS9htyR1VzCrLPntL382pz+SzZVrJC22V5OxptyzdGvt9YAPCGCoBjvmFxpXn8rcuIJ82HdLtz0EM6rzZ19WQPD1RlLVZ4W+6vHS36gwoAYuV3tHiscYkety/hjr9pOkBo1fgrzYd0uyNybBnF+bzIaYmWNovHMZS1vt8zWvaHVuXvncbp/3FmMM4dbEjxV5rzAmlPyaNCqsrawwXwJot+36juX1AAcK1a/a1z+R6/Z9Hn+Cvt9hS7vB/6ebWpPhOFJhXwtuv8/lHTv7AA4Nic7/+V9hee4BTxQ6Z4/G1e/JXMBWsr6X32FJ5XG6cKsl0Q5nwfDxsXx5r8OaO2T6Dq/90n5S/P7EzXz9AcfyXSnILMaz/Ode8e+2Ase0rTP2+0ypOx+n9H5Xs0Zca782mOv5L+H573t771LRX2FDe0gdVOHLmTTuZ8Hw/AO9P2zxx18cSq/h9Wf4ekz8ExnHi9Do3xV4AHDs3B8zx58mTeLQZPCjL72+Hlzrab8328TZ89JQn4LACOiy8nTGV/4c5WPPnG33I+QEgL+Hz2FDoawpe1TjsHpeyXzQJ7SlLwWQCU8rfs/zFqJ94FoyX+Knfw+VKQsXnBm3jg1bWzgVfoVFXWTrr8e0ah/gFV/w/wu1O+x12vNCVCjmNeuYLPtacwBTmOPPaUMxXwtkP8faPQ/yDf+BsvpDjCyg9b/3b8VS6D/bmBzzdvzBt1eLkmfdPSnpId+CwAHqoAuMbSIW7569oAcohyygl8TEFOd13aY5mFjlXQ2wn9949i/4MZf5XuzppT/FUO4HMzBWlPSVOJmA7sKdmDr4KfN/6K9oD4vZRU428pwccU5DSaY08B8E7Ffi6jlC9EZX/BBshY7riMv4p3100Zf5UCfDykO11Z60lB/nIBvI1Uz2mUwwvD+Kt8+iyxZmVjg4+HdKeRx56yZc738SYpn9colxeI8VfplCL+Khb4mIKcrqXipCAHtaeoBZ8FQKz6OP6WwcUacvwtNPjmpSDTnhL+Jlo3BZng8wNwbBh/lUV5EiL+KiT4aE/Jo21iItpTegM+C4DrhvFXSS7kkPFXIcDHFOQ0apuCTPAthx/H3xLJN/4GAK4af9Ul+Hz2FKYgx2mN2CcDmoYpyARffQCumfPpL2Ne4HHlZqIBWABg2/5fF+DjId1pNCcFOak9pdfgswA4Noy/SqKu4q9WBZ/vkG62QOK//2aFFGSCrz0AGX+VQPPir5qMv7UFny8FmfaU+Ct+4zmkm+CLCz/v+Bv7f+Hl9niaxF81BR8P6U5X1jr2lInpKAWZ4OsGgIy/SqQ28VdNwMdDutOs6pse0k3wpQUg468SfVCaxF/VAZ9rT+F7Ge9G5thTgqQgE3xhALhhOP6WpDSqM/62CHw8pDtd62KVQ7oJvnzgh1UfNj/W5QPEvlCaD5Ebf+UDH1OQ87hZmUgpyARfeACODeOvsiibJP4KqzobfDykO4/2hFFqTyH4FgMQKz+OvyX4gLmNcuz8YtICK0GUw0xBjqsQh3QTfHnDT+Kvjsr36PaPV1I51oip2IaIo5xSkAm+NABcM4y/SiI3/oobT0lW3Z0f0k3w6QLg2DD+Kgn8rrjnVNluePZzh/iCBFSsQ7pV3QiGflFgq7543IgLAXdBrELwgXzbX/6j3f+gKJU3l2u2/sPeXEL/7ubier91yNAj+GYBiK3768z58MSy+YuLBkPZ1p2SorIXbti4ceMGXt28JQX5xj568gi+1eG3UzyOVAAsLxDMol7zD4/YETwUleeHuezj3V3esC1PXnlD77Mnj+DrDoCT4nEzyoLiMcEFhWb8VX9/uiwfKCo34caM69OKft+ugHdkiJsXBN9qAET/D6s/DGfvwAqA8sE5PYqikgk34itnr8lJ8UAP7+ah9/EIvtUBuFGVv1szd1f2/6iEZS1ghxtx5cmTMbPrhubJI/jCwg/9v8PFD7EDvF32U4qyAgC0+ikUFVxlH2+274wb8o2aot8JPn0APFP1/wDBieygodywUi0oKkhZWzoNbpt68rbNeXvKYZa1BF8sAG5Vq7+y/4dyA6s/lB8sf6kuhZsrbqyOPeVw1cfb5itE8KUofzcqAAKEZfmBMgTlCEWt9OG07CnWbC1utNdpj34n+PoBwEnV/0MJfEb6f7hgaX+h2mh6A91rT9mgPYXgyw2AMv4GCE7H3658vUShqIW6ZG/LZGLO9/FoTyH4sgcgyhDx/5VlijMzSVEzwo1R7CnVJpltT9nmK0TwaYHfjuX/K31VSMng+BvlCn08rPIce8p1tKcQfJoBiP7frYbjb5SjaRDGrD3lxsqewj4ewdcLAMr4Wxl/JeNvjL8aZll75ex7PzGv21PO8BUi+PoIQMZfDfXDVry/6PN67Ck30p5C8A0BfhJ/daOx4q+cPg/VI0l/14p+R9+X9hSCb5AAlPE39AAnsrOHMoj9v35I7CnWjj7KWqYgE3wU0jTs+Kt91XkUjL/SKzsF2bKnHKE9heCj9gJww8yJv6KUfKCqMTMntYcpyAQftQR+O9b427Y9/sb4q7xlpyA79hSmIBN8VE0AbjP+SofwfixIQaY9heCjWgAQZa/EX5l9e5vlVMKyVszodgpytcpjCjLBR3VQ/m4Yz/ibZY+gIsozfrhVAY/2FIKP6hiA9vjbGdsQS/tLHC04pJspyAQfFRiAjL+KrDmHdB/mId0EHxUfgFvGGn+T+CuOv3X4AVl8SPcWXyGCj0oDPxl/AwDLlUdpf2H81cpakIJMewrBR2UCwEllf2H81YqyD+m2xsx4SDfBR2UMQMZfrVDW8pBugo/SDUCJv9rCz9GfkvE39v/2as4h3UxBJvgohfCT8bcy/krG3xh/NVvWLjikm308go9SDMC58VdDHX/jId0EHzUcAJ4yr4+/7ezbe5Rh/y/4+SnItKcQfFTPy9+NCoDlB31q2+h5/JX8O60xv23DFGSCjxoUACdDib/iId0UwUe5ALTjr3bs+Cvt9pc5h3QzBZki+KgpAFH2Svz9dPxNY/yVnYLssacwBZki+KgZ+KmPv5r6FXlIN0XwUQ0BqC7+SlKQeUg3RfBRqwJQ4q/K8TeJv8pp/E2gPCcFeYvvIkXwUW0BKONvx6SczCH+as4h3UxBpgg+qjP4ZRN/5TmkW1KQeUg3RfBRQQA4scffJNEE/bXQ/b8Fh3QzBZki+KgoADxVxV9Nx9+umD1isbuLdHEKMu0pFMFHRQfghrHir6aHanfU/7MP6a6ElR0P6aYIPio5/ObGX7Udf+Mh3RTBR2kB4Blr/G1ij7/Vjb+ad0g3U5Apispeu7u7B4rHRvF4YbfSi/9ycvfnf/w7u4//4Vt2n737j8rvvfKfD5U/x+NX939+97WXdnYtnSgea3w1KYrSBsC1CmClALb/+coXZsCHH//2v56ygfdo8Rjz1aMoSjsAxxXQpgD0CKvDdb5aFEX1DYDrdvlr6T6Ux3yFqBj6fwEGAHt3v5rAnKizAAAAAElFTkSuQmCC;fontSize=9;" parent="1" vertex="1">
          <mxGeometry x="-5986.29" y="310.71000000000004" width="32.57" height="30" as="geometry" />
        </mxCell>
        <mxCell id="dOINUOUIbk_yKjrMn4hX-1" value="" style="rounded=1;whiteSpace=wrap;html=1;strokeWidth=3;fontSize=9;fillColor=#eeeeee;strokeColor=#36393d;" parent="1" vertex="1">
          <mxGeometry x="-5810" y="260.71" width="110" height="89.29" as="geometry" />
        </mxCell>
        <mxCell id="dOINUOUIbk_yKjrMn4hX-2" value="&lt;font style=&quot;font-size: 12px;&quot;&gt;eth0&lt;br style=&quot;font-size: 12px;&quot;&gt;&lt;/font&gt;" style="rounded=1;whiteSpace=wrap;html=1;fontSize=12;fontStyle=1;strokeWidth=2;fillColor=#eeeeee;strokeColor=#36393d;" parent="1" vertex="1">
          <mxGeometry x="-5810" y="300" width="30" height="30" as="geometry" />
        </mxCell>
        <mxCell id="dOINUOUIbk_yKjrMn4hX-3" value="" style="shape=image;aspect=fixed;image=data:image/png,iVBORw0KGgoAAAANSUhEUgAAAT4AAAElCAYAAAB9KY5oAAAAGXRFWHRTb2Z0d2FyZQBBZG9iZSBJbWFnZVJlYWR5ccllPAAAJttJREFUeNrsnW2sZVV5x9dBAkOUzBgUA+HlMo0mJthA1Q8NJh5imlQjdrBfqpj2zhcwaYwMRvxg07m3aT9gFcY0TRi+zG2jTj/ZCb4lbc1cE7AflDJVEhMNeHgJVirlDgNBsfR2//fs57DOuuucs/c+e708e///yeHOXOblzDn7/PZ6nvV//ssYikqg3d3d9eIx5itBUdQQgDcuHo/uvq7TxWONrwxFUX0E3lrxOCG0e/HFF3cd3Vc8DvCVoiiqD8A7UDw2iscLQrhvfOMbu+PxePeWW27ZPX36tA0//Jo7+apRoTXiS0AFhN6h4st9xaMsZR955BHzpS99yfz0pz+d+XXvfve7zcbGhrniiivkW2eKx5HRaLTNV5Ei+CgtwLuhAt4YP//FL35hHnjgAVOs9Bb+vo997GPm9ttvN5deeql861QFwAlfVYrgo7Ita4svR4tHWa6eO3fOnDx5snzgx3UE6AF+gKClzeJxrADgDl9liuCjcoLenRX0yg2K7e1tc++995pnn3221Z/3jne8w3zmM58py+BKWPVtFvDb4qtNEXxUauChnD1hqj4e+nfo46Gf14XG43EJQKv/t10BcJuvPkXwUbGBB9Chj3dIylr08VDWhpCUv1b/b6sC4ITvBkXwUaGBh1JWytpSgB2gV7eP11aAHlZ/H/7wh+Vb6Pl9uYDfBt8ZiuCjQkFvvQJeWdainN3c3Gzdx2sr9P2wAnT6f9j9PcV3iSL4qK6At8eegj4eNjBS6pZbbikB6PT/AMAzfNcogo9apawF8LDSm9pTUNbmIpS/6P15+n9HaH+hCD6qKfQ2ii+fNpU95Zvf/GYJvNhlbV1deeWV5q677ip3gSsBetj8OMZ3kyL4qGXAAzmC2VNCC30/bIDAB1hpUjwO0/5CEXyUD3hrFfDGUtbCgLxszCxXof+HFaBV/m5XAJzw3aYIPgJvjz1F/Hih7SmhxfE3iuCjfNBbN+c3L8o+Xip7Smih/3f06FHb/gLoHeH4G8FHDQt44wp4sKmU9hTEQmnp47UV468ogm+YwFurSlqs9LK0p8QQ468ogm840Nswjj0Fu7Xa+3htNW/8zbD/R/BRvQDenhRkrPD6XtbWFeOvCD6qf2Xt1J5SNwV5qGL8FcFH6QbeTAoy1Bd7SgzNib/i+BvBR2UMvU5TkIcq2F8AQMZfEXxU3sBDOTs4e0poMf6K4KPyBN6aiZiCPFRx/I3go/IAnoyZTe0psVKQhyqJv8IK0BKSXzbZ/yP4qPDQq3VINxVGjL8i+Ki4wMsyBXmoYvwVwUeFL2v3pCDTnpKHOP5G8FHdQ4/2FAVi/BXBR3UDPJSzalOQhyrGXxF8VDvgrRnHnqI5BXmoYvwVwUfVA16yQ7qpcJoz/rbJ/h/BR+gNJAV5qGL8FcFHzQJvXK3w8JX2lJ5rTvwVx98IvkGVtVkf0k2FE8bfUAI78VcA4Bm+OgRfX6G3YRQd0k2FK3/R+2P8FcE3hLJ2ak9hCjIFMf6K4Osr8NZMjw7ppsKI428EX1+AxxRkqrEYf0XwaYbeuqE9hWopxl8RfNqANzZMQaY6EuOvCL7cYQf9mbHsKUxBproSx98IvhzBd0KABw39kG4qnBh/1a0u4EvQbqVXPH5uQw+wQ1lL6FEhhAriIx/5iF1JIMji5/CGVptpFFd8wYC3Zqz0FJ8YIUWF1pzxt03GXxF8XQNvT3rKc889V369/PLLy40M+fEb3vCGadnLqQwqpLDxAQA642+b7P8RfF1Ab91Y9pSXXnrJTCYT8+qrr5YXHB4AHx6A3lVXXWUuu+yyafnLOVwqtBh/RfB1CbyxsdJTALpnnnnG7Oy8bqVywSfCBYjvv+lNbyp/zuQVKrTmxV9x/I3ga1LWTtNTXnvttbKstcG2DHwirPywApTyl0dBUqGFvh9WgIy/IviaQA93x2l6yvPPP18CDas9n5aBDwL00Puz+jBMV6aCi/FXBF/dsnaanvLKK6+UZe0yMNUBn+iiiy4ya2tr0/KXRmcqRvnL8TeCzwe8NWOlp6CsBfCw0qujJuCzL8Zrr722BCHE0TYqtDj+RvAJ8Lz2FEAI8KurNuCzf69tf2GYARVajL8aMPgW2VOaahXwQa79BWJ8FRVajL8aEPh89pQnn3xyJcCsCj67/LXtLwwspUIL15z4/yxtmoGc/tZ78DWxp6QCn8i1v3D8jQot9P+OHj1q218AvSN9H3/rNfh89hRsXjTp48UEn5S/rv0FxmesANn/o0JpaPFXvQSfa09BHw9g6rpvFgJ8Ip/9Bb0/9v+okBpK/FWvwLeqPSUn8Il89hdsgLD/R4XSvPE306P+Xy/A57OnABDo5XVV1qYCn/13ufYXjr9RIdXn+Cv14OvSnpIz+CCf/YWpz1RozYm/Uj3+phZ8IewpuYPPLkVc+wvjr6jQ1xz6f574qyMay1914AtpT9ECPpFrf2H8FRVasL9g80N7/JUq8IW2p2gDn5S/rv2F429UaGmPv1IBvlj2FI3gE7n2F4jxV1RoaR1/yxp8se0pmsEnOnDgQFn+iv2F8VdUaGmMv8oSfKnsKX0An/3cbPsLx9+o0NIUf5Ud+FLaU/oEPil/8fxs+wvH36jQ0hB/lQ34crCn9A18dimC8veSSy6Zfo/xV1Ro5Tz+lhx8OdlT+go+kWt/YfwVFeOmm2P8VVLw5WZPqSuAQ3poIs3PHX0/rADZ/6NCKbf4qyTgy9WeUkfimZNVEw4mkhIS0JNNmNzls79g/A0AZP+PCqU542+bsft/UcGXuz1l2ZLd7pPZPchF/y93+ewvjL+iQkvKX2f8bTNW/y8K+Ko+HjYu7pTv5WhPmbcyAhgAiGWrOreHtrOzU4I9xx1pV679heNvVIzFRKr4q+Dg02RPsSWjYDYM6pzE5uuhaYK8a39h/BUVWnPir4KOvwUDX9XHA/Bu0F7+AdZPP/102c9rAhG7h4Z/PwCosayHGH9FhRbG31ACx4i/6hx8VR8PZe26lIZa7Cn4oF999dUzsEKpipI1JURTyWd/4fgbFfqmGyP+qlPwaban2AGfAusuy1O3h6bZ/oKbGA6mof2FCqXQ8VedgK8A3qGqrF2TVY1We0rIDQm3h6ZpNeyzvzD+igqtUONvK4FPuz3FPsQHpSeeewxY98n+AjH+igqtruOvWoGvb/aUVLB2e2hadrx9pTvH36gYC4au4q8ag0+7PcVOKq5jT4nxvPpkf2H8FRVaXYy/1QafZnsKPpj4gNo7q7nB2u2haZ5qKesQxl9RgQXwYZPNWsycqQC4vTL4fPYULfOo7mlkXdhTYjxnu/eoaaPILd0hxl9RodUm/mq0BHobpkf2FA27p6K+2V8AQPb/qJALhibxV6M5wNtjT9FiuvUBAx88DRsGfQL4PPsL46+okJoz/rbp9v9GnrJ2ak/RNmaltURsU7Jrtr9w/I0KrWXxVyOrpL3WVH08KU+07Cxq3RRoKq32F1/gg8RfYQVIUaE0J/7qyKgqa7HKU2dP0WoD6QIiudly6t6kbA+lvGeMv6JCV0zHjx+3pz92RpUZ+VFT9fNCzKly5cOVLuT2X20x/ooKIc+Rl8YudU+jLAY4pBeTo/VD86hXyNck1ehd2+cISAN+gBxWerYTn+NvVFfXnDvlIWnpe8D3s5/9bOrGzylGyTfcr8VLmGo1lcNu9rxVKZ7T29/+9nKVd8cdd+y5KzP+ilpFnly/6Yba6dOn/eDDRedrRqfykWn1s6VQLvYXXx/S7r/irmuDT+QmcTD+imoij5VlTwvlhz/84XzwLVppxfogaQ7wTK0Qgap1Vaf/Og989h3bTuJg/BW1rKx1zu6Yu2lWC3z2Hxyrt+b70GrxEuammDPKTbyGy8Anv8Z14nP8jXLljqstOyWwEfia3M1XKY+GaE9JUXZ2aX9pUxXUAZ/ITeJg/BUlbREnoKBWMEYr8IX6IMVMQR6qQuQQtu2/NgHfvAud8VfDlCeSqtG10Bp8iz5ITXda3RI6RytGH/shq9pffP3XJuOBbcAncp342K1DCcz+X/+vW589penu/8rgW+WD1AU0qdXkrrLr2F+6OjJzFfDJ77eb2cv6OpRueWLnW/s9OwNfk3K17SHdVBjVPV2u6/7rquATufYFxl/1S3hfscJz7Smr7PB3Dr5lHxCs7nIzRlPntcj+EqL/2hX4RG4SB8ff9Je1de0pWYBvXklkS0MK8lDl2l9ktEzet64sTF2Dz+4Buf0/xl/pktvD7TrFR8B3QYgnjw/J448/vmc1JzuJhF6eQq8O75uUrwI9vI8/+clPsgaINLpvu+22EngQVgwPPvigeyoXlaGwakeLwvbk4X3E+xkiuizIis9XHuEf04dU5L7K138F8GTHvcsNqBArvmX9IcZf5alV7SlZlLqLdnj7cA5GX7VoPDCE5SgG+EQcf8tTvsmcGOb0TsHXJBtO48lnfVWTmd4uNzligk/+PtcDxvirdPLZU2KNI3YCvlWmOHxzpNzljVfW1rGx+H6fvWvfNrQ2NvjssorxV+nkpu+kWIGvDL4u5nZzir8airpYua2a/pIKfPYHkONv8eRLQU4VOdYafCFO/OIkR5yeStdJzW2jw1KDT+Qme9QZcqeatxhC2lOCgy/G5gSj5btXiHCCVVftuYBPngvjr7qX53jHLHyVjcAXOwWZhwl1B6RYp7E1WbXnBD67HGP81eqqk4KcUrXAt2oKh6YPbp8UM4C0zao9R/DNW6ngOWIFyP5f85VzjrPTC8GX09GFQzowvIuLLxer0KJNlJzBJ2L8VX25vdKc2wVe8D3xxBPlhybHFGQNxyimLGtzNIfPC63Ae3fw4MGswSfXHOOv5qttCnJ24LN/Qa4pyExrnlWOx0rWWbXj+eYOvnl9q6GPv+VkT2kNvgJ6ePYnisfavJ5MjiucoZ/P4a6AY/Zf28rtGUOaJijc81qHFn/VVQpyTuA7Lf9DUwk5xBPZNPc8XVjbHx4tO6hDjb/yHdKtcezPLXV38fU3v/mNufjii9WVkCl3n7nKbQ5rXGff/e53y38LNjn2799ffl/TBMVQxt9yt6d0Ar5jx46ZD3zgA+Zd73qXyhJSQ7+rjbT6Gn2WpIcfftj84Ac/KOEnes973mPe9773TW+6miYo3PlTLb2uOivbUCnI2YHvnnvuKb95zTXXmJtuuqn8qq2E7FP8leZJFhfWTz31lPn2t79tzp496/31gB7gBwiKNE1Q9Cn+al4Kch92sxeCT4SVHwAopYimElJz/JXvkG4ts8surAE6AA/gqyOsEFF1yE1X0wFC2uOvNNpTgoBP7sTvfe97yzuxlCKaSkht8VexxwNDwRqlLC6yhx56qNWfh94fACg3XU0TFNrG32KnIKsAnwgXIC5EXJDaSkgN8Vdtk05yhPWPf/zjcvPC7uO1lZS/ctPVNEGRe/zVPHtKn2eUG4NPhBIEAJTdRW0lZG7xV5otOS6sUc4CeF2/noCevemWOtqoqXKMv+rykO5BgE+EixAXo9yJNa1Qctg00GxPcWGNPh52a7HSCyl3003TLmMu8Vc5pCCrBp/cidH/w8Uo0pSgnMomonXszgdrnz0ltNxNN02+Mt/4W4zNG/TxAN6+2VOSgE+EC/BDH/rQ9E6saRfS92EOFX8V4sSyWHJhjSQflLXz7Cmh5dt00zRBETP+KvQh3YMFn12KAIByJ9bkOws5CqY5Wt+FNZ4zgFfXnhJa7qabtgkKX/xVV/DONQW5d+ATuU58TQnKXcZfaQ5TdWGNUhbWFLlwcpO76aZpgsItQ1ddkfnsKQxUjQA+KUVcJ76mBOVV+3Baj8/0wVr8eDH7eG3lbrppatwDVABg2/irVId0E3xzAGI78TWlibQ5f3bVoxdTyoV1KHtKaPk23foef6UpBXkQ4BO5Tvy+xV9pnhH22VMAPGxgaJa76aYx/mrZ+NvQ7SnZg0/kOvH7EH8FcNhlsZaRPhfWq46Z5Sp3060P8Vff+9731KYgDxJ8Uor0Kf5KpGkV6xszgycvlT0lhvoUf2Wrr1mAvQOffSfWGn9l73pqTkHOzZ4S46bbp/irodtTVIJPpDX+So5JxPPNfWpgXgpy6DGzXKU5/ur48ePlClDLYU05gu/CHJ4MPnwAhzjx8eEEUDSNv+WquinIQxNWuljlyaYbXh943+Clo9+t/7owlyciBllAUJz4aLqjlNSaoJxaTVOQhyjsXOMh5S9WUlhRsYQk+KIKH8qvf/3rM058CbjU4ofLoQRfJQV5iJKbLlouaL1g5ff+979/sDOtfdcFuT4xfEhPnDhRfmCxGkSP6uDBg+WulnygqVnhNcLGBVbLeI3wuqGsvf/++wm9mjddXG+AHV4vmYRA38+2jVBc8QWX3f/D3Rj9v3e+852qxt9iKGQK8tAE6OEhm254bb/4xS8O7gBxgi+x7P6fOPHxIUf5qyXlJJRipSAPUe5NF/2/r33ta4NIKh5UqSt2kpxLETnmDj+WyYPrr79+ZkZxCEIpi7If5T+gZ5dphF73N120C2SED6NkDz744EwYAJW/bEbMgO/w4cPl7paGUgQXopRy+OCjrwUQyMqnrxLYo9wXTx76eOiHDtWTF+umi003ubHIgdvo/9nxT1SeQo8Wq/VKOzMGZvtN1jKknnL8LbaBObcU5CErZfwVDcz15Ub9Vzo20+P773s/Zd58291m/9uuNh/96EdV9Iuw4kOJB0e2OPGl0a9ljKwOYHNOQR6ipP9n+/9Q/jIKKp/PDIAn4a7/9/JZ87+/fNpcdPD6cm03U+qe+9d/Ms/8+c3mha/+bfkLARGUv9hQkDtbrhInPsoR6f/B2oGSUGv/Tyw8tj0FwENZS+jlcdPF+2HbhWB/AQAxU0ulkfRgBXov//t3Sq7hq2jPri6A98JXvlBA8KS57I6/MW/8/Q+Wy3osGXOOHhe5TnwAA+DQFH+lPQV5aJJNNzv+CuNv+ABqib/qg9wD3F994jHz/PG/MK/86OE9v3aunQXLwl/+1Z+aS373pgKAf20uLpaIKCUBEw1TAK4TH7YPrPyWJSinVl9SkIco2XST+CssFtCP0xR/pVFuZiEWbwAeKth5WurjAy2xTLz0D/6kBCDuZriTaZj7FIvHY489No2/kvG33OKv+pqCPERhdS4z57jp4gOJ1YhYsdj/60a+lOqzp44XFev5Vt0i1TYwg54vf/87Zv+td5g33/bZEiKf/OQnVZRgrhMf8Eb/TwCY8kIcSgry0OTbdMMHFL0/LfFXOcs9l+TXxQLtuXs/VVaqddRocsPu/11+19+ZfUUZjGU9gKIh2803/pYy/mqIKchDE+OvupV7Eh1A9/zxz89sXHQOPhH+smc/d6js/721AODFb7u6bOoCgrnbLHKIvxp6CvIQxfir1T8zrj3l7KkHyoVYG600q4v+31Prv2f2HyrK3098tly9oObWYKxNEX/FFGSK8VfNJWcFiy0NbbcXvvqF2mVt5+CbQuTU8fLJYPMDmyBYRQEo6G/knvQr8Ve2Ex/euS4PAGcKMuXedN1NN+n/NTlAfAhlrW1PQR8PHmOfPSUJ+GTpickPQPAtBQDR/8ObigABfMi19P+kFOkq/oopyNSimy7jr/YK9hT0QaWPV8eekgx8IpgG0f+D8RkG6P1V/08AmHv/D6UnVqqrxl8xBZlqetNtGn/Vt40Rnz0FK7yz/3x8qT0lOfhE2GXB482fuNvsP3R7CRE8NARk+pz4gBgg+OSTTy5sRKOPJ71CgSntKVSdm6676QYIyO5v38/MdY/NbGpPyQZ8U2JX9heEH6D/J+NvGmDgOvHR/5M0lslksufXMwWZ6uKm6266YTfz4x//eNnv6tsqzz0oHaBDy6yLPt4izcRSPfHBtwb9y2B/gfkZ/T95kzXHX2HnFzYYmf/lmBnVtXzxV1gVARRYCWrdCUYfDyVtV/aUOkL1Cf4U2owaPQ+K44GVXx/irwA9G3gAuYaNHEqPfPFX2uWzp2Dzous+3iIlOWXNjr+CJP7KvrPlKjf+ygYjPXlUqJsuri3tfT7MLGNUD+AD9H5d5QCgtI0JPSjZYUO++CsZf9MSf4WVKnbi8LwBbKxe2dejQrRZZMdXo9wUZPTxYEDu0p6iBnwizfFX9k6cOPE1bd5Q+cvt8eHzsG/fvnLTI3fJucT2oUyh7CnqwCeS+CsZf5P4Ky3jb64TX8zbjJai2kiuIXyVa0yuJQ2nu4kfT/p4sLYhTCCUPUUt+KYQqcbfSvgVEIR9BA8NI16++CstmzdUPmWt7R7Q5gNNZU9RDz5IRlQAQYm/Akgk/UVb/JVs3jA+nlok2bmVslZTv9iXgoxAUHyGc9SFOb+YfYu/0rR5Q8Uta2VCSCqH3Mc7RTJmZttT6qYgE3xLJPFXMv4m8Vcagjt9TnxNZ5dQ4QTQyUy43Cw1WaJ8Kci/Kio1zOvnrgs1XSiwv2BHSOKv7B1UbfFXms4uoboVSlkpa0WaYsp89pQ2KcgEXwP1Lf5Kzi5hPt8w5LOnaLnxzUtBzsGe0nvwiRbFX2kYf3PjrzRt3lDNZbc6pAWiqdXh2lO6SEEm+FYQltev/Oj75elvEn+FHVSt8VdaNm+oesJ7KuZ2uelp2txqckg3wZeg/O1T/JWms0sov2TMrE/2lK5TkAm+jiRmyZf+7Z+m42/S/9NQVrgHUWs6u4R6XXKUpG1P0WJgX+WQboIvsWT8DSs/AFDTDqov/krT5s2QJVYle8xM03sWOwWZ4AskLMtf/v53yv4fAghlB1XDBIV7ELX0/zScXTLEsta2p8iYmZZVeleHdBN8GakP8Vf2QdSazi4ZguxjCeT90tKX7fqQboIvQ9nxVzL+Jr00DTuojL/KS649BSt0TTvxOaQgE3wRJeNvEn+laQeV8VfphZaDzF5LWavJnoJdWqzyQhzSTfApUF/ir6T/x/irsPKlIGtK24lxSDfBp0SMv6LqyM5XlBuPJntKrinIBF9iSfyVjL9dbI2/5b6DyvircPLZUzS1FIZkTyH4VhC27/GQ+Ct7B5XxV8Mqa5mCTPANTovirzSMvyH+SmwWms4uyUGuPUXDTU/kO6Q75xRkgi9DSfwVxt9gfrbjrzSUOzL+Jv4/TZs3KeSmIGuyp/hSkIdmTyH4OhbKAzyw8kMAAuKvtOygMv5qubSnIPvsKVpSkFNqhP/sFsLXJz74Vr4iC3TBG/dP46/wYymFtExQaF7VdC3N9hSs7PBenjt3brrCy+GQ7tyF3j2qt0KbBF+bZXKx6pPxN1klaNpB9Z3mpaWP1YU0pyC7z11zCjLBp1QYf8MGyEUHry9/rilVd97OZZ/7f75DurW8X+6IHJTbId0E38Ak8VdS/mpaQWiPUqojXwqyFnuK+9xlpxY9vN/+8ilCj+BLK+n/VS9sKU07qJrDM5uW9Rp6sr4EZ+7UEnzZCv0/GX+T1YWWXULtcenLQK4lx9B97typJfjUSOKvAEJI0w6q9tLQtqdoKt3dtgN3agk+tZL4K+n/aZqg8G0G5Gre1nxIt/vcuVNL8PVCgJ6Mv9krKC39v9ztH+7z03RzcUfkuFNL8PVOsL28pQCg9P80lWE5Gn41H9Ltmsn7cl6tGvAVzDtQ/OAF/AyzqewnhJfEX0n/T1PjPYcEYs0pyO5zZ5BAHDme2+mK79Hiyw2888S/A2kef4u92tK86+xbMffxvNrc5LaZCu0Uj1tH8rMCfhvFl08XD6wAy5UfdpTYawgrrPoQfuD2/7Rkv8U6ZUyzz9BNcKY9Jc3CotBW8TgyGo12RvYvrMre+4rHuizDubsUbyku8VeygtKS9htyR1VzCrLPntL382pz+SzZVrJC22V5OxptyzdGvt9YAPCGCoBjvmFxpXn8rcuIJ82HdLtz0EM6rzZ19WQPD1RlLVZ4W+6vHS36gwoAYuV3tHiscYkety/hjr9pOkBo1fgrzYd0uyNybBnF+bzIaYmWNovHMZS1vt8zWvaHVuXvncbp/3FmMM4dbEjxV5rzAmlPyaNCqsrawwXwJot+36juX1AAcK1a/a1z+R6/Z9Hn+Cvt9hS7vB/6ebWpPhOFJhXwtuv8/lHTv7AA4Nic7/+V9hee4BTxQ6Z4/G1e/JXMBWsr6X32FJ5XG6cKsl0Q5nwfDxsXx5r8OaO2T6Dq/90n5S/P7EzXz9AcfyXSnILMaz/Ode8e+2Ase0rTP2+0ypOx+n9H5Xs0Zca782mOv5L+H573t771LRX2FDe0gdVOHLmTTuZ8Hw/AO9P2zxx18cSq/h9Wf4ekz8ExnHi9Do3xV4AHDs3B8zx58mTeLQZPCjL72+Hlzrab8328TZ89JQn4LACOiy8nTGV/4c5WPPnG33I+QEgL+Hz2FDoawpe1TjsHpeyXzQJ7SlLwWQCU8rfs/zFqJ94FoyX+Knfw+VKQsXnBm3jg1bWzgVfoVFXWTrr8e0ah/gFV/w/wu1O+x12vNCVCjmNeuYLPtacwBTmOPPaUMxXwtkP8faPQ/yDf+BsvpDjCyg9b/3b8VS6D/bmBzzdvzBt1eLkmfdPSnpId+CwAHqoAuMbSIW7569oAcohyygl8TEFOd13aY5mFjlXQ2wn9949i/4MZf5XuzppT/FUO4HMzBWlPSVOJmA7sKdmDr4KfN/6K9oD4vZRU428pwccU5DSaY08B8E7Ffi6jlC9EZX/BBshY7riMv4p3100Zf5UCfDykO11Z60lB/nIBvI1Uz2mUwwvD+Kt8+iyxZmVjg4+HdKeRx56yZc738SYpn9colxeI8VfplCL+Khb4mIKcrqXipCAHtaeoBZ8FQKz6OP6WwcUacvwtNPjmpSDTnhL+Jlo3BZng8wNwbBh/lUV5EiL+KiT4aE/Jo21iItpTegM+C4DrhvFXSS7kkPFXIcDHFOQ0apuCTPAthx/H3xLJN/4GAK4af9Ul+Hz2FKYgx2mN2CcDmoYpyARffQCumfPpL2Ne4HHlZqIBWABg2/5fF+DjId1pNCcFOak9pdfgswA4Noy/SqKu4q9WBZ/vkG62QOK//2aFFGSCrz0AGX+VQPPir5qMv7UFny8FmfaU+Ct+4zmkm+CLCz/v+Bv7f+Hl9niaxF81BR8P6U5X1jr2lInpKAWZ4OsGgIy/SqQ28VdNwMdDutOs6pse0k3wpQUg468SfVCaxF/VAZ9rT+F7Ge9G5thTgqQgE3xhALhhOP6WpDSqM/62CHw8pDtd62KVQ7oJvnzgh1UfNj/W5QPEvlCaD5Ebf+UDH1OQ87hZmUgpyARfeACODeOvsiibJP4KqzobfDykO4/2hFFqTyH4FgMQKz+OvyX4gLmNcuz8YtICK0GUw0xBjqsQh3QTfHnDT+Kvjsr36PaPV1I51oip2IaIo5xSkAm+NABcM4y/SiI3/oobT0lW3Z0f0k3w6QLg2DD+Kgn8rrjnVNluePZzh/iCBFSsQ7pV3QiGflFgq7543IgLAXdBrELwgXzbX/6j3f+gKJU3l2u2/sPeXEL/7ubier91yNAj+GYBiK3768z58MSy+YuLBkPZ1p2SorIXbti4ceMGXt28JQX5xj568gi+1eG3UzyOVAAsLxDMol7zD4/YETwUleeHuezj3V3esC1PXnlD77Mnj+DrDoCT4nEzyoLiMcEFhWb8VX9/uiwfKCo34caM69OKft+ugHdkiJsXBN9qAET/D6s/DGfvwAqA8sE5PYqikgk34itnr8lJ8UAP7+ah9/EIvtUBuFGVv1szd1f2/6iEZS1ghxtx5cmTMbPrhubJI/jCwg/9v8PFD7EDvF32U4qyAgC0+ikUFVxlH2+274wb8o2aot8JPn0APFP1/wDBieygodywUi0oKkhZWzoNbpt68rbNeXvKYZa1BF8sAG5Vq7+y/4dyA6s/lB8sf6kuhZsrbqyOPeVw1cfb5itE8KUofzcqAAKEZfmBMgTlCEWt9OG07CnWbC1utNdpj34n+PoBwEnV/0MJfEb6f7hgaX+h2mh6A91rT9mgPYXgyw2AMv4GCE7H3658vUShqIW6ZG/LZGLO9/FoTyH4sgcgyhDx/5VlijMzSVEzwo1R7CnVJpltT9nmK0TwaYHfjuX/K31VSMng+BvlCn08rPIce8p1tKcQfJoBiP7frYbjb5SjaRDGrD3lxsqewj4ewdcLAMr4Wxl/JeNvjL8aZll75ex7PzGv21PO8BUi+PoIQMZfDfXDVry/6PN67Ck30p5C8A0BfhJ/daOx4q+cPg/VI0l/14p+R9+X9hSCb5AAlPE39AAnsrOHMoj9v35I7CnWjj7KWqYgE3wU0jTs+Kt91XkUjL/SKzsF2bKnHKE9heCj9gJww8yJv6KUfKCqMTMntYcpyAQftQR+O9b427Y9/sb4q7xlpyA79hSmIBN8VE0AbjP+SofwfixIQaY9heCjWgAQZa/EX5l9e5vlVMKyVszodgpytcpjCjLBR3VQ/m4Yz/ibZY+gIsozfrhVAY/2FIKP6hiA9vjbGdsQS/tLHC04pJspyAQfFRiAjL+KrDmHdB/mId0EHxUfgFvGGn+T+CuOv3X4AVl8SPcWXyGCj0oDPxl/AwDLlUdpf2H81cpakIJMewrBR2UCwEllf2H81YqyD+m2xsx4SDfBR2UMQMZfrVDW8pBugo/SDUCJv9rCz9GfkvE39v/2as4h3UxBJvgohfCT8bcy/krG3xh/NVvWLjikm308go9SDMC58VdDHX/jId0EHzUcAJ4yr4+/7ezbe5Rh/y/4+SnItKcQfFTPy9+NCoDlB31q2+h5/JX8O60xv23DFGSCjxoUACdDib/iId0UwUe5ALTjr3bs+Cvt9pc5h3QzBZki+KgpAFH2Svz9dPxNY/yVnYLssacwBZki+KgZ+KmPv5r6FXlIN0XwUQ0BqC7+SlKQeUg3RfBRqwJQ4q/K8TeJv8pp/E2gPCcFeYvvIkXwUW0BKONvx6SczCH+as4h3UxBpgg+qjP4ZRN/5TmkW1KQeUg3RfBRQQA4scffJNEE/bXQ/b8Fh3QzBZki+KgoADxVxV9Nx9+umD1isbuLdHEKMu0pFMFHRQfghrHir6aHanfU/7MP6a6ElR0P6aYIPio5/ObGX7Udf+Mh3RTBR2kB4Blr/G1ij7/Vjb+ad0g3U5Apispeu7u7B4rHRvF4YbfSi/9ycvfnf/w7u4//4Vt2n737j8rvvfKfD5U/x+NX939+97WXdnYtnSgea3w1KYrSBsC1CmClALb/+coXZsCHH//2v56ygfdo8Rjz1aMoSjsAxxXQpgD0CKvDdb5aFEX1DYDrdvlr6T6Ux3yFqBj6fwEGAHt3v5rAnKizAAAAAElFTkSuQmCC;fontSize=9;fillColor=#fff2cc;strokeColor=#d6b656;" parent="1" vertex="1">
          <mxGeometry x="-5760" y="309.64000000000004" width="32.96" height="30.36" as="geometry" />
        </mxCell>
        <mxCell id="dOINUOUIbk_yKjrMn4hX-4" value="" style="endArrow=none;html=1;rounded=0;fontSize=9;" parent="1" source="mIAgexFHFYWs2OW3OZyE-1" target="dOINUOUIbk_yKjrMn4hX-2" edge="1">
          <mxGeometry width="50" height="50" relative="1" as="geometry">
            <mxPoint x="-5850" y="315.35" as="sourcePoint" />
            <mxPoint x="-5560" y="260.35" as="targetPoint" />
          </mxGeometry>
        </mxCell>
        <mxCell id="dOINUOUIbk_yKjrMn4hX-5" value="&lt;font style=&quot;font-size: 18px;&quot;&gt;&lt;b&gt;DNS&lt;/b&gt;&lt;/font&gt;" style="text;html=1;align=center;verticalAlign=middle;resizable=0;points=[];autosize=1;strokeColor=none;fillColor=none;fontSize=18;fontColor=default;fontStyle=0;" parent="1" vertex="1">
          <mxGeometry x="-5774.07" y="270.71000000000004" width="60" height="40" as="geometry" />
        </mxCell>
        <mxCell id="XZ_ln-_SIz76lMkO4deZ-4" value="&lt;b style=&quot;border-color: var(--border-color); font-size: 18px;&quot;&gt;linode2.revs.dev (ipv4 / ipv6)&lt;/b&gt;" style="text;html=1;align=center;verticalAlign=middle;resizable=0;points=[];autosize=1;strokeColor=none;fillColor=none;" vertex="1" parent="1">
          <mxGeometry x="-6441.88" y="40" width="270" height="40" as="geometry" />
        </mxCell>
        <mxCell id="XZ_ln-_SIz76lMkO4deZ-5" value="" style="rounded=1;whiteSpace=wrap;html=1;fillColor=#fff2cc;strokeColor=#d6b656;strokeWidth=3;fontSize=9;" vertex="1" parent="1">
          <mxGeometry x="-6500" y="400" width="830" height="130" as="geometry" />
        </mxCell>
        <mxCell id="XZ_ln-_SIz76lMkO4deZ-6" value="&lt;b style=&quot;border-color: var(--border-color); font-size: 18px;&quot;&gt;linode.revs.dev (ipv4 / ipv6)&lt;/b&gt;" style="text;html=1;align=center;verticalAlign=middle;resizable=0;points=[];autosize=1;strokeColor=none;fillColor=none;" vertex="1" parent="1">
          <mxGeometry x="-6482" y="400" width="260" height="40" as="geometry" />
        </mxCell>
        <mxCell id="XZ_ln-_SIz76lMkO4deZ-7" value="&lt;b&gt;NGINX&lt;/b&gt;&lt;br&gt;&lt;br&gt;http&lt;br&gt;https&lt;br&gt;&lt;br&gt;random-5MB-2302.2_2023-04-13T14-21-49.pkgtb" style="rounded=1;whiteSpace=wrap;html=1;fillColor=#f8cecc;strokeColor=#b85450;strokeWidth=2;fontSize=9;verticalAlign=top;" vertex="1" parent="1">
          <mxGeometry x="-6070" y="420" width="310" height="85" as="geometry" />
        </mxCell>
        <mxCell id="XZ_ln-_SIz76lMkO4deZ-9" value="Jammy" style="text;html=1;align=center;verticalAlign=middle;resizable=0;points=[];autosize=1;strokeColor=none;fillColor=none;fontStyle=1" vertex="1" parent="1">
          <mxGeometry x="-6486.36" y="500" width="60" height="30" as="geometry" />
        </mxCell>
        <mxCell id="XZ_ln-_SIz76lMkO4deZ-10" value="Jammy" style="text;html=1;align=center;verticalAlign=middle;resizable=0;points=[];autosize=1;strokeColor=none;fillColor=none;fontStyle=1" vertex="1" parent="1">
          <mxGeometry x="-6482.71" y="310.71000000000004" width="60" height="30" as="geometry" />
        </mxCell>
      </root>
    </mxGraphModel>
  </diagram>
</mxfile>
